<svg xmlns="http://www.w3.org/2000/svg" xmlns:xlink="http://www.w3.org/1999/xlink" width="810" zoomAndPan="magnify" viewBox="0 0 607.5 153.750002" height="205" preserveAspectRatio="xMidYMid meet" version="1.0"><defs><clipPath id="f98e789f19"><path d="M 6.097656 41.644531 L 68.75 41.644531 L 68.75 110.792969 L 6.097656 110.792969 Z M 6.097656 41.644531 " clip-rule="nonzero"/></clipPath><clipPath id="be6a0e44f8"><path d="M 5.695312 41.34375 L 68.75 41.34375 L 68.75 110.882812 L 5.695312 110.882812 Z M 5.695312 41.34375 " clip-rule="nonzero"/></clipPath><clipPath id="f19e711220"><path d="M 537.539062 21.40625 L 602.953125 21.40625 L 602.953125 126.507812 L 537.539062 126.507812 Z M 537.539062 21.40625 " clip-rule="nonzero"/></clipPath></defs><g clip-path="url(#f98e789f19)"><path fill="#fff8f0" d="M 47.628906 110.40625 C 47.371094 110.167969 47.101562 109.925781 46.855469 109.679688 C 46.140625 108.957031 45.425781 108.234375 44.714844 107.515625 C 43.519531 106.296875 42.28125 105.042969 41.054688 103.820312 C 40.242188 103.011719 39.429688 102.1875 38.675781 101.410156 L 37.492188 100.203125 L 36.527344 99.21875 L 36.285156 98.988281 L 35.980469 99.003906 L 35.335938 99.015625 L 34.375 99.039062 C 32.160156 99.101562 29.910156 99.121094 27.734375 99.144531 C 26.761719 99.152344 25.796875 99.164062 24.824219 99.175781 C 23.195312 99.199219 21.859375 99.207031 20.613281 99.207031 C 19.601562 99.207031 18.664062 99.203125 17.757812 99.1875 C 16.527344 99.167969 14.050781 99.011719 12.234375 98.867188 L 12.21875 98.863281 L 12.199219 98.863281 C 11.886719 98.871094 11.574219 98.875 11.261719 98.875 C 11.140625 98.875 11.015625 98.875 10.886719 98.871094 C 10.496094 98.867188 9.976562 98.851562 9.4375 98.777344 C 8.847656 98.691406 8.421875 98.546875 8.066406 98.304688 L 8.007812 98.261719 C 7.921875 98.203125 7.847656 98.148438 7.792969 98.089844 L 7.628906 97.929688 C 7.605469 97.902344 7.589844 97.878906 7.574219 97.855469 C 7.554688 97.832031 7.539062 97.8125 7.519531 97.789062 L 7.414062 97.644531 L 7.320312 97.484375 L 7.230469 97.316406 C 7.214844 97.285156 7.203125 97.253906 7.1875 97.222656 L 7.160156 97.152344 C 7.066406 96.957031 7.007812 96.753906 6.945312 96.546875 L 6.917969 96.457031 L 6.882812 96.320312 C 6.835938 96.125 6.789062 95.9375 6.757812 95.753906 C 6.585938 94.773438 6.515625 93.820312 6.449219 92.84375 C 6.359375 91.375 6.324219 89.910156 6.289062 88.539062 C 6.261719 87.242188 6.242188 85.835938 6.222656 84.242188 C 6.210938 83.066406 6.242188 81.097656 6.277344 79.011719 C 6.300781 77.703125 6.328125 76.121094 6.359375 75.453125 L 6.359375 75.425781 C 6.3125 72.503906 6.3125 69.535156 6.3125 66.65625 C 6.316406 64.683594 6.316406 62.644531 6.300781 60.636719 L 6.25 52.308594 L 6.214844 48.152344 L 6.214844 48.003906 C 6.195312 47.371094 6.175781 46.714844 6.214844 46.058594 C 6.234375 45.683594 6.277344 45.34375 6.351562 45.011719 C 6.425781 44.65625 6.558594 44.316406 6.730469 44.019531 C 6.96875 43.605469 7.378906 43.230469 7.890625 42.957031 C 8.292969 42.738281 8.75 42.574219 9.363281 42.429688 C 9.90625 42.296875 10.441406 42.222656 10.898438 42.167969 C 11.144531 42.136719 11.40625 42.109375 11.660156 42.089844 C 11.902344 42.066406 12.148438 42.050781 12.4375 42.035156 C 13.335938 41.984375 14.320312 41.957031 15.53125 41.957031 C 15.996094 41.957031 16.488281 41.960938 17.074219 41.96875 C 17.296875 41.972656 17.515625 41.980469 17.734375 41.984375 C 18.023438 41.992188 18.320312 42 18.621094 42 C 19.875 42.003906 21.945312 42.039062 24.453125 42.097656 L 24.46875 42.097656 C 25.601562 42.074219 26.742188 42.054688 27.878906 42.027344 C 30.71875 41.96875 33.609375 41.941406 36.40625 41.910156 C 38.277344 41.886719 40.210938 41.867188 42.113281 41.839844 C 44.328125 41.804688 46.628906 41.785156 48.953125 41.785156 C 51.765625 41.785156 54.726562 41.8125 57.753906 41.859375 L 58.027344 41.867188 C 58.886719 41.878906 59.773438 41.894531 60.652344 41.921875 C 61.140625 41.9375 61.617188 41.957031 62.105469 42 C 62.285156 42.007812 62.460938 42.027344 62.644531 42.050781 C 62.707031 42.054688 62.777344 42.0625 62.839844 42.070312 L 62.992188 42.09375 C 63.1875 42.121094 63.375 42.148438 63.5625 42.191406 C 63.972656 42.28125 64.5 42.414062 64.992188 42.671875 C 65.449219 42.914062 65.855469 43.246094 66.179688 43.636719 C 66.34375 43.828125 66.46875 44.03125 66.601562 44.246094 L 66.613281 44.265625 L 66.792969 44.613281 C 66.828125 44.679688 66.855469 44.746094 66.882812 44.820312 C 66.902344 44.863281 66.917969 44.910156 66.941406 44.957031 C 67.011719 45.117188 67.066406 45.28125 67.121094 45.457031 C 67.144531 45.523438 67.164062 45.585938 67.1875 45.652344 C 67.246094 45.859375 67.304688 46.085938 67.375 46.367188 C 67.5625 47.164062 67.707031 48.289062 67.777344 49.542969 C 67.84375 50.652344 67.871094 51.957031 67.859375 53.417969 C 67.847656 54.390625 67.824219 55.417969 67.792969 56.398438 L 67.789062 56.417969 L 67.792969 56.4375 C 67.878906 58.085938 67.960938 59.867188 68.027344 61.882812 C 68.164062 65.753906 68.191406 69.695312 68.21875 73.507812 C 68.222656 74.59375 68.234375 75.675781 68.242188 76.757812 C 68.265625 79.042969 68.265625 81.363281 68.269531 83.605469 L 68.273438 84.929688 C 68.277344 86.164062 68.28125 87.597656 68.296875 89.019531 L 68.300781 89.550781 C 68.308594 90.710938 68.320312 91.914062 68.25 93.113281 C 68.183594 94.078125 68.074219 95.117188 67.699219 96.109375 C 67.503906 96.621094 67.238281 97.066406 66.914062 97.429688 C 66.589844 97.804688 66.164062 98.132812 65.6875 98.375 C 65.285156 98.589844 64.824219 98.753906 64.238281 98.894531 C 63.707031 99.027344 63.179688 99.09375 62.726562 99.140625 C 61.984375 99.214844 61.246094 99.222656 60.683594 99.222656 C 60.394531 99.222656 60.105469 99.21875 59.820312 99.21875 L 59.695312 99.214844 C 58.894531 99.207031 57.777344 99.1875 56.371094 99.148438 L 56.347656 99.148438 C 55.496094 99.171875 54.640625 99.183594 53.785156 99.199219 L 53.675781 99.203125 C 53.238281 99.207031 52.804688 99.21875 52.367188 99.234375 C 51.734375 99.253906 51.085938 99.277344 50.445312 99.277344 C 50.316406 99.277344 50.1875 99.273438 50.058594 99.273438 L 49.992188 99.273438 C 49.472656 99.273438 48.910156 99.277344 48.210938 99.296875 L 47.089844 99.328125 L 47.003906 99.359375 L 46.960938 99.378906 L 46.945312 99.382812 C 46.882812 99.421875 46.828125 99.46875 46.785156 99.527344 L 46.648438 99.722656 L 46.746094 99.9375 L 46.761719 100.046875 C 46.804688 100.363281 46.84375 100.679688 46.878906 101 C 46.957031 101.699219 47.011719 102.328125 47.046875 102.914062 C 47.089844 103.617188 47.160156 104.320312 47.230469 105.003906 C 47.304688 105.742188 47.382812 106.503906 47.417969 107.253906 C 47.433594 107.457031 47.457031 107.730469 47.484375 108.046875 C 47.546875 108.703125 47.625 109.574219 47.628906 110.40625 Z M 47.628906 110.40625 " fill-opacity="1" fill-rule="nonzero"/></g><g clip-path="url(#be6a0e44f8)"><path fill="#ffb9b9" d="M 68.710938 89.015625 C 68.695312 87.652344 68.695312 86.292969 68.6875 84.929688 C 68.683594 82.207031 68.679688 79.480469 68.65625 76.753906 C 68.609375 71.796875 68.613281 66.828125 68.441406 61.871094 C 68.378906 60.050781 68.308594 58.230469 68.207031 56.410156 C 68.234375 55.550781 68.261719 54.519531 68.273438 53.421875 C 68.285156 52.140625 68.265625 50.773438 68.191406 49.519531 C 68.121094 48.257812 67.976562 47.109375 67.777344 46.269531 C 67.71875 46.023438 67.65625 45.773438 67.582031 45.527344 C 67.5 45.28125 67.429688 45.035156 67.320312 44.789062 C 67.265625 44.667969 67.226562 44.542969 67.160156 44.421875 L 66.976562 44.0625 C 66.832031 43.828125 66.6875 43.589844 66.503906 43.375 C 66.144531 42.9375 65.683594 42.566406 65.1875 42.308594 C 64.6875 42.042969 64.164062 41.898438 63.652344 41.785156 C 63.398438 41.726562 63.148438 41.699219 62.890625 41.65625 C 62.644531 41.632812 62.390625 41.597656 62.144531 41.582031 C 61.644531 41.539062 61.15625 41.523438 60.667969 41.507812 C 59.691406 41.476562 58.730469 41.460938 57.761719 41.445312 C 52.539062 41.363281 47.320312 41.34375 42.105469 41.421875 C 37.363281 41.496094 32.613281 41.511719 27.867188 41.613281 C 26.730469 41.640625 25.597656 41.660156 24.460938 41.683594 C 22.234375 41.628906 20.011719 41.585938 18.621094 41.585938 C 18.105469 41.582031 17.597656 41.5625 17.082031 41.554688 C 16.566406 41.546875 16.046875 41.539062 15.53125 41.539062 C 14.496094 41.539062 13.457031 41.558594 12.417969 41.617188 C 12.15625 41.632812 11.894531 41.652344 11.628906 41.675781 C 11.371094 41.695312 11.109375 41.722656 10.847656 41.753906 C 10.324219 41.816406 9.796875 41.894531 9.265625 42.023438 C 8.738281 42.152344 8.207031 42.3125 7.691406 42.589844 C 7.183594 42.863281 6.683594 43.273438 6.375 43.808594 C 6.164062 44.164062 6.023438 44.550781 5.941406 44.921875 C 5.863281 45.300781 5.816406 45.671875 5.800781 46.035156 C 5.757812 46.757812 5.78125 47.46875 5.800781 48.15625 L 5.835938 52.3125 C 5.851562 55.085938 5.867188 57.863281 5.886719 60.636719 C 5.921875 65.566406 5.863281 70.5 5.941406 75.433594 C 5.914062 76.058594 5.886719 77.457031 5.863281 79.003906 C 5.828125 80.902344 5.792969 83.03125 5.808594 84.25 C 5.824219 85.679688 5.84375 87.113281 5.875 88.550781 C 5.910156 89.988281 5.949219 91.425781 6.035156 92.871094 C 6.101562 93.847656 6.171875 94.824219 6.351562 95.820312 C 6.386719 96.066406 6.457031 96.316406 6.515625 96.570312 C 6.59375 96.816406 6.660156 97.070312 6.777344 97.316406 C 6.804688 97.382812 6.832031 97.445312 6.859375 97.503906 L 7.066406 97.875 L 7.195312 98.046875 C 7.242188 98.101562 7.277344 98.160156 7.332031 98.21875 L 7.488281 98.375 C 7.585938 98.480469 7.710938 98.5625 7.832031 98.648438 C 8.320312 98.980469 8.871094 99.117188 9.378906 99.1875 C 9.894531 99.261719 10.390625 99.277344 10.886719 99.285156 C 11.328125 99.292969 11.765625 99.285156 12.203125 99.277344 C 13.96875 99.421875 16.472656 99.582031 17.75 99.605469 C 20.109375 99.636719 22.46875 99.621094 24.832031 99.59375 C 28.015625 99.550781 31.199219 99.542969 34.386719 99.453125 L 35.34375 99.429688 L 35.824219 99.421875 L 35.941406 99.417969 L 36.027344 99.417969 L 36.128906 99.410156 L 36.304688 99.585938 L 36.601562 99.886719 L 37.195312 100.492188 L 38.378906 101.703125 C 39.167969 102.511719 39.960938 103.316406 40.761719 104.117188 C 42.707031 106.054688 44.625 108.019531 46.558594 109.96875 C 46.867188 110.28125 47.195312 110.570312 47.519531 110.867188 C 47.578125 110.921875 47.648438 110.960938 47.714844 110.96875 C 47.75 111.019531 47.808594 111.054688 47.917969 111.042969 C 48.054688 111.023438 48.035156 110.945312 48.039062 110.871094 C 48.082031 109.496094 47.871094 107.917969 47.835938 107.230469 C 47.761719 105.78125 47.546875 104.339844 47.460938 102.886719 C 47.421875 102.242188 47.363281 101.597656 47.289062 100.953125 C 47.253906 100.636719 47.21875 100.3125 47.175781 99.992188 L 47.160156 99.871094 L 47.152344 99.8125 L 47.148438 99.796875 C 47.148438 99.792969 47.144531 99.792969 47.144531 99.792969 C 47.136719 99.785156 47.132812 99.777344 47.128906 99.765625 C 47.132812 99.761719 47.132812 99.753906 47.144531 99.75 L 47.160156 99.746094 L 47.160156 99.742188 L 47.164062 99.742188 L 47.191406 99.738281 L 47.304688 99.734375 L 48.222656 99.710938 C 48.835938 99.695312 49.445312 99.6875 50.054688 99.6875 C 51.265625 99.703125 52.476562 99.636719 53.679688 99.617188 C 54.574219 99.601562 55.46875 99.585938 56.359375 99.566406 C 57.65625 99.601562 58.832031 99.621094 59.691406 99.632812 C 60.6875 99.640625 61.730469 99.65625 62.769531 99.554688 C 63.292969 99.5 63.8125 99.429688 64.335938 99.300781 C 64.855469 99.175781 65.382812 99.007812 65.878906 98.746094 C 66.375 98.488281 66.847656 98.140625 67.222656 97.707031 C 67.605469 97.273438 67.890625 96.769531 68.085938 96.253906 C 68.480469 95.21875 68.59375 94.164062 68.664062 93.136719 C 68.746094 91.742188 68.722656 90.378906 68.710938 89.015625 Z M 67.800781 67.261719 C 67.757812 74.09375 67.804688 80.925781 67.789062 87.773438 C 67.777344 89.421875 67.824219 91.066406 67.757812 92.683594 C 67.71875 93.488281 67.648438 94.289062 67.484375 95.050781 C 67.390625 95.433594 67.28125 95.800781 67.132812 96.148438 C 66.976562 96.492188 66.777344 96.808594 66.539062 97.085938 L 66.375 97.265625 L 66.195312 97.429688 C 66.136719 97.484375 66.070312 97.53125 66.003906 97.578125 C 65.9375 97.625 65.875 97.675781 65.804688 97.71875 C 65.660156 97.800781 65.527344 97.894531 65.371094 97.960938 C 65.296875 98 65.226562 98.035156 65.148438 98.070312 L 64.910156 98.160156 C 64.28125 98.402344 63.59375 98.535156 62.898438 98.617188 C 62.203125 98.699219 61.492188 98.730469 60.785156 98.734375 L 60.253906 98.738281 C 59.144531 98.601562 57.347656 98.429688 56.472656 98.417969 C 54.984375 98.394531 53.5 98.421875 52.015625 98.464844 C 51.078125 98.488281 50.140625 98.511719 49.203125 98.53125 L 47.796875 98.574219 L 47.042969 98.601562 L 45.863281 98.628906 L 45.953125 99.285156 L 46.03125 99.847656 L 46.085938 100.210938 L 46.1875 100.890625 L 46.371094 102.246094 C 46.496094 103.148438 46.617188 104.054688 46.761719 104.957031 C 47.03125 106.664062 47.261719 108.378906 47.515625 110.089844 C 47.527344 110.171875 47.542969 110.253906 47.5625 110.335938 C 46.253906 108.71875 44.640625 107.058594 43.964844 106.289062 C 42.445312 104.554688 40.816406 102.910156 39.285156 101.183594 C 38.882812 100.726562 38.476562 100.28125 38.0625 99.835938 L 37.445312 99.175781 L 36.613281 98.292969 L 35.265625 98.296875 L 34.222656 98.304688 L 32.132812 98.332031 C 30.738281 98.351562 29.34375 98.367188 27.949219 98.359375 C 26.027344 98.332031 24.109375 98.390625 22.1875 98.402344 C 22.089844 98.402344 21.988281 98.402344 21.890625 98.402344 C 21.445312 98.394531 21 98.386719 20.550781 98.375 C 18.121094 98.3125 15.691406 98.316406 13.265625 98.328125 L 11.445312 98.339844 C 10.84375 98.339844 10.246094 98.332031 9.683594 98.265625 C 9.542969 98.253906 9.410156 98.222656 9.273438 98.203125 C 9.207031 98.191406 9.144531 98.175781 9.078125 98.160156 C 9.015625 98.140625 8.945312 98.132812 8.890625 98.101562 C 8.769531 98.058594 8.648438 98.023438 8.546875 97.960938 C 8.433594 97.910156 8.34375 97.835938 8.246094 97.769531 C 7.886719 97.472656 7.652344 96.996094 7.496094 96.457031 C 7.355469 95.9375 7.265625 95.378906 7.195312 94.816406 C 7.132812 94.25 7.082031 93.675781 7.046875 93.101562 C 6.96875 91.945312 6.917969 90.78125 6.886719 89.613281 C 6.824219 86.992188 6.773438 84.363281 6.679688 81.742188 C 6.65625 77.9375 6.605469 74.128906 6.683594 70.316406 C 6.75 66.835938 6.777344 63.351562 6.773438 59.867188 L 6.742188 49.410156 C 6.742188 48.992188 6.746094 48.570312 6.742188 48.148438 C 6.730469 47.726562 6.722656 47.3125 6.71875 46.902344 C 6.722656 46.496094 6.734375 46.089844 6.777344 45.699219 C 6.820312 45.308594 6.894531 44.9375 7.03125 44.605469 C 7.167969 44.277344 7.371094 43.992188 7.640625 43.761719 C 7.90625 43.53125 8.242188 43.355469 8.597656 43.210938 C 9.324219 42.933594 10.132812 42.785156 10.941406 42.691406 C 11.660156 42.605469 12.386719 42.558594 13.113281 42.527344 C 13.835938 42.492188 14.570312 42.484375 15.300781 42.472656 C 16.03125 42.472656 16.761719 42.472656 17.5 42.484375 C 17.863281 42.484375 18.234375 42.5 18.601562 42.492188 L 19.703125 42.484375 C 21.199219 42.46875 22.699219 42.449219 24.195312 42.429688 C 27.132812 42.441406 30.082031 42.410156 33.019531 42.453125 C 39.5625 42.550781 46.101562 42.375 52.636719 42.476562 C 54.210938 42.5 55.78125 42.527344 57.351562 42.550781 L 59.707031 42.589844 C 60.492188 42.609375 61.273438 42.625 62.039062 42.6875 C 62.707031 42.742188 63.367188 42.828125 63.976562 43.007812 C 64.585938 43.1875 65.113281 43.492188 65.53125 43.925781 C 65.945312 44.367188 66.238281 44.945312 66.457031 45.554688 C 66.675781 46.167969 66.828125 46.828125 66.941406 47.488281 C 66.957031 47.570312 66.96875 47.652344 66.980469 47.730469 C 67.011719 47.964844 67.039062 48.199219 67.066406 48.433594 C 67.171875 49.378906 67.261719 50.3125 67.332031 51.195312 C 67.386719 51.910156 67.433594 52.585938 67.472656 53.203125 C 67.511719 54.027344 67.542969 54.851562 67.570312 55.679688 C 67.605469 56.613281 67.636719 57.546875 67.679688 58.476562 C 67.679688 58.484375 67.679688 58.492188 67.679688 58.5 C 67.765625 61.414062 67.820312 64.339844 67.800781 67.261719 Z M 67.800781 67.261719 " fill-opacity="1" fill-rule="nonzero"/></g><path fill="#ffb9b9" d="M 327.472656 103.414062 C 311.140625 106.238281 295.457031 112.171875 278.878906 113.691406 C 275.410156 114.007812 271.917969 114.117188 268.4375 113.964844 C 264.851562 113.816406 261.023438 113.519531 257.691406 112.113281 C 255.257812 111.089844 253.148438 109.449219 251 107.945312 C 248.445312 106.15625 245.851562 104.527344 242.863281 103.589844 C 236.617188 101.632812 230.050781 104.316406 224.453125 106.976562 C 221.449219 108.402344 218.488281 109.914062 215.351562 111.023438 C 213.996094 111.5 212.546875 111.886719 211.4375 112.039062 C 209.832031 112.257812 208.714844 112.242188 207.390625 111.886719 C 207.347656 111.875 206.839844 111.691406 206.816406 111.6875 C 206.617188 111.601562 206.421875 111.507812 206.226562 111.410156 C 205.703125 111.164062 205.207031 110.863281 204.714844 110.5625 C 203.65625 109.910156 202.648438 109.179688 201.589844 108.53125 C 199.0625 106.976562 196.152344 106.183594 193.179688 106.40625 C 186.503906 106.902344 180.617188 110.980469 175.214844 114.570312 C 172.640625 116.28125 170.042969 117.96875 167.257812 119.320312 C 165.945312 119.953125 164.582031 120.433594 163.160156 120.765625 C 162.824219 120.847656 162.484375 120.90625 162.148438 120.964844 C 162.117188 120.96875 161.457031 121.027344 161.484375 121.042969 C 161.28125 121.039062 161.082031 121.023438 160.878906 121.011719 C 160.796875 121 160.714844 120.992188 160.628906 120.980469 C 160.597656 120.96875 160.550781 120.953125 160.492188 120.9375 C 160.429688 120.914062 160.300781 120.851562 160.207031 120.808594 C 160.109375 120.738281 160.011719 120.660156 159.917969 120.582031 C 160.457031 121.015625 160.007812 120.574219 159.722656 120.25 C 159.648438 120.09375 159.332031 119.542969 159.265625 119.382812 C 159.042969 118.886719 158.867188 118.371094 158.6875 117.855469 C 157.960938 115.753906 157.261719 113.597656 155.871094 111.820312 C 152.019531 106.886719 145.671875 106.371094 140.019531 107.902344 C 134.425781 109.417969 129.339844 112.601562 124.382812 115.5 C 122.246094 116.746094 120.085938 117.945312 117.941406 119.171875 C 117.445312 119.453125 116.945312 119.730469 116.4375 119.996094 C 116.390625 120.023438 116.121094 120.152344 116.003906 120.210938 C 115.851562 120.28125 115.699219 120.347656 115.542969 120.414062 C 115.191406 120.566406 114.832031 120.6875 114.46875 120.796875 C 114.050781 119.605469 114.054688 118.304688 114.011719 117.058594 C 113.914062 114.292969 113.585938 111.511719 112.5625 108.917969 C 111.019531 104.980469 107.710938 102.234375 103.484375 101.742188 C 99.371094 101.265625 95.109375 102.683594 91.445312 104.429688 C 84.292969 107.839844 77.632812 112.644531 71.828125 118.027344 C 69.671875 120.023438 72.683594 123.417969 74.871094 121.433594 C 80.875 115.996094 87.800781 111.109375 95.457031 108.324219 C 97.261719 107.667969 99.152344 107.214844 101.074219 107.121094 C 101.246094 107.113281 102.105469 107.136719 102.019531 107.121094 C 102.332031 107.148438 102.648438 107.1875 102.960938 107.238281 C 103.125 107.261719 103.285156 107.296875 103.449219 107.328125 C 103.132812 107.265625 103.652344 107.402344 103.707031 107.417969 C 103.914062 107.484375 104.714844 107.863281 104.648438 107.808594 C 105.957031 108.582031 106.546875 109.550781 107.035156 110.753906 C 107.21875 111.195312 107.363281 111.652344 107.503906 112.109375 C 107.503906 112.128906 107.511719 112.144531 107.515625 112.15625 C 107.523438 112.203125 107.539062 112.273438 107.5625 112.375 C 107.621094 112.640625 107.671875 112.90625 107.71875 113.175781 C 107.957031 114.453125 108.054688 115.746094 108.0625 117.046875 C 108.085938 119.917969 108.207031 123.148438 110.277344 125.367188 C 111.960938 127.171875 114.480469 127.203125 116.683594 126.519531 C 118.953125 125.808594 121.058594 124.414062 123.09375 123.222656 C 125.179688 122.003906 127.285156 120.828125 129.363281 119.601562 C 131.777344 118.175781 134.21875 116.789062 136.757812 115.585938 C 137.96875 115.007812 139.222656 114.523438 140.5 114.097656 C 141.125 113.890625 141.761719 113.714844 142.40625 113.550781 C 143.320312 113.316406 143.441406 113.3125 144.097656 113.234375 C 144.703125 113.160156 145.3125 113.144531 145.917969 113.144531 C 145.960938 113.144531 146.554688 113.183594 146.511719 113.171875 C 146.722656 113.199219 146.9375 113.238281 147.148438 113.273438 C 147.433594 113.328125 147.714844 113.402344 147.992188 113.476562 C 148.078125 113.5 148.140625 113.519531 148.1875 113.527344 C 148.226562 113.546875 148.277344 113.566406 148.335938 113.589844 C 148.609375 113.703125 148.867188 113.835938 149.125 113.96875 C 149.296875 114.0625 149.457031 114.15625 149.617188 114.253906 C 149.652344 114.277344 149.691406 114.308594 149.738281 114.34375 C 150.113281 114.625 150.472656 114.9375 150.800781 115.273438 C 150.699219 115.179688 151.050781 115.59375 151.101562 115.667969 C 151.253906 115.875 151.382812 116.097656 151.515625 116.320312 C 151.53125 116.34375 151.542969 116.367188 151.554688 116.382812 C 151.570312 116.421875 151.589844 116.46875 151.621094 116.535156 C 151.730469 116.769531 151.832031 117.011719 151.929688 117.25 C 152.160156 117.808594 152.351562 118.386719 152.546875 118.957031 C 153.226562 120.996094 153.859375 123.144531 155.34375 124.773438 C 157.429688 127.070312 160.40625 127.570312 163.367188 127.144531 C 169.726562 126.226562 175.199219 122.230469 180.429688 118.789062 C 181.703125 117.949219 182.992188 117.128906 184.304688 116.351562 C 184.953125 115.96875 185.613281 115.605469 186.277344 115.25 C 186.972656 114.878906 187.75 114.503906 188.175781 114.320312 C 189.523438 113.746094 190.921875 113.304688 192.351562 112.988281 C 193.503906 112.730469 194.761719 112.730469 195.859375 112.976562 C 196.152344 113.046875 196.441406 113.144531 196.730469 113.238281 C 196.113281 113.03125 197 113.367188 197.054688 113.390625 C 197.582031 113.632812 198.089844 113.921875 198.585938 114.21875 C 199.65625 114.863281 200.671875 115.601562 201.730469 116.269531 C 204.328125 117.90625 207.164062 118.691406 210.234375 118.605469 C 217.019531 118.429688 223.085938 114.59375 229.105469 111.925781 C 230.542969 111.289062 232.007812 110.71875 233.507812 110.246094 C 235.070312 109.75 236.0625 109.609375 237.78125 109.449219 C 238.117188 109.414062 238.453125 109.410156 238.789062 109.40625 C 238.855469 109.40625 238.910156 109.40625 238.960938 109.40625 C 239.011719 109.414062 239.101562 109.425781 239.242188 109.4375 C 239.871094 109.503906 240.484375 109.644531 241.097656 109.804688 C 241.148438 109.820312 241.191406 109.828125 241.230469 109.835938 C 241.28125 109.859375 241.359375 109.890625 241.488281 109.9375 C 241.785156 110.042969 242.070312 110.167969 242.355469 110.292969 C 243.035156 110.585938 243.679688 110.9375 244.324219 111.300781 C 244.328125 111.304688 244.902344 111.652344 244.871094 111.625 C 245.089844 111.769531 245.308594 111.914062 245.527344 112.058594 C 246.074219 112.417969 246.609375 112.796875 247.144531 113.175781 C 248.320312 114 249.484375 114.839844 250.6875 115.628906 C 253.699219 117.609375 256.660156 118.992188 260.203125 119.707031 C 268.050781 121.296875 276.132812 121.097656 284.035156 120.054688 C 299.367188 118.023438 314.277344 113.148438 328.691406 107.707031 C 331.082031 106.804688 329.957031 102.984375 327.472656 103.414062 Z M 327.472656 103.414062 " fill-opacity="1" fill-rule="nonzero"/><g clip-path="url(#f19e711220)"><path fill="#ffb9b9" d="M 603.179688 73.265625 C 603.199219 73.957031 603.210938 74.648438 602.90625 75.304688 C 602.785156 75.574219 602.632812 75.824219 602.445312 76.054688 C 601.878906 76.683594 601.253906 77.246094 600.574219 77.746094 C 600.027344 78.171875 599.5 78.621094 598.964844 79.046875 C 598.332031 79.546875 597.6875 80.03125 597.054688 80.527344 C 596.171875 81.21875 595.296875 81.933594 594.40625 82.628906 C 593.382812 83.425781 592.335938 84.183594 591.328125 85 C 590.253906 85.875 589.117188 86.664062 588.050781 87.535156 C 587.359375 88.097656 586.621094 88.597656 585.921875 89.148438 C 585.074219 89.8125 584.199219 90.4375 583.367188 91.136719 C 582.695312 91.703125 581.964844 92.199219 581.261719 92.722656 C 580.554688 93.246094 579.828125 93.75 579.15625 94.3125 C 578.378906 94.964844 577.542969 95.523438 576.769531 96.195312 C 576.234375 96.65625 575.601562 97.03125 575.042969 97.484375 C 574.351562 98.039062 573.628906 98.5625 572.9375 99.121094 C 572.164062 99.742188 571.375 100.351562 570.582031 100.9375 C 569.785156 101.527344 568.984375 102.148438 568.183594 102.75 C 567.9375 102.941406 567.953125 103.042969 568.160156 103.28125 C 568.398438 103.542969 568.667969 103.761719 568.972656 103.945312 C 569.894531 104.535156 570.746094 105.25 571.640625 105.882812 C 572.492188 106.484375 573.316406 107.117188 574.148438 107.746094 C 575.085938 108.445312 576.019531 109.15625 576.964844 109.859375 C 577.980469 110.613281 579.007812 111.355469 580.019531 112.113281 C 580.863281 112.738281 581.679688 113.402344 582.539062 114.003906 C 583.359375 114.578125 584.152344 115.191406 584.957031 115.792969 C 585.824219 116.449219 586.714844 117.078125 587.589844 117.726562 C 587.984375 118.019531 588.375 118.316406 588.753906 118.632812 C 588.984375 118.824219 589.25 118.945312 589.484375 119.128906 C 589.945312 119.488281 590.429688 119.820312 590.863281 120.203125 C 592.132812 121.300781 592.652344 122.917969 591.902344 124.535156 C 591.683594 125.019531 591.363281 125.421875 590.945312 125.75 C 590.523438 126.074219 590.054688 126.28125 589.527344 126.375 C 588.269531 126.632812 587.207031 126.230469 586.207031 125.453125 C 585.582031 124.96875 584.957031 124.476562 584.316406 124 C 583.679688 123.523438 583.0625 123.078125 582.464844 122.601562 C 581.683594 121.96875 580.90625 121.332031 580.09375 120.742188 C 579.285156 120.152344 578.441406 119.503906 577.648438 118.859375 C 576.703125 118.09375 575.703125 117.40625 574.78125 116.625 C 574.285156 116.203125 573.742188 115.839844 573.21875 115.441406 C 572.792969 115.117188 572.378906 114.765625 571.9375 114.453125 C 571.160156 113.894531 570.453125 113.246094 569.6875 112.683594 C 568.621094 111.90625 567.609375 111.050781 566.550781 110.28125 C 565.914062 109.820312 565.324219 109.304688 564.683594 108.851562 C 564.042969 108.398438 563.441406 107.890625 562.839844 107.394531 C 562.136719 106.824219 561.429688 106.253906 560.746094 105.664062 C 560.394531 105.386719 560.085938 105.070312 559.824219 104.714844 C 559.335938 103.984375 559.148438 103.183594 559.257812 102.3125 C 559.335938 101.464844 559.828125 100.882812 560.347656 100.3125 C 561.191406 99.40625 562.121094 98.609375 563.152344 97.921875 C 563.613281 97.605469 564.035156 97.230469 564.484375 96.921875 C 565.289062 96.367188 566.042969 95.75 566.835938 95.179688 C 567.539062 94.671875 568.238281 94.152344 568.929688 93.621094 C 569.535156 93.160156 570.199219 92.761719 570.789062 92.273438 C 571.269531 91.882812 571.816406 91.582031 572.285156 91.195312 C 572.816406 90.734375 573.394531 90.347656 573.957031 89.941406 C 574.777344 89.347656 575.570312 88.726562 576.382812 88.117188 C 577.449219 87.328125 578.539062 86.578125 579.578125 85.757812 C 580.253906 85.222656 580.996094 84.777344 581.664062 84.234375 C 582.628906 83.453125 583.675781 82.785156 584.640625 82.003906 C 585.285156 81.480469 585.988281 81.027344 586.660156 80.539062 C 587.164062 80.171875 587.664062 79.800781 588.167969 79.433594 C 588.671875 79.0625 589.128906 78.722656 589.609375 78.375 C 590.222656 77.929688 590.835938 77.5 591.449219 77.054688 L 592.769531 76.117188 C 592.945312 76 593.105469 75.867188 593.25 75.714844 C 593.414062 75.535156 593.398438 75.4375 593.15625 75.394531 C 592.832031 75.332031 592.503906 75.289062 592.171875 75.265625 C 591.078125 75.175781 589.984375 75.097656 588.894531 74.964844 C 587.664062 74.808594 586.425781 74.75 585.191406 74.597656 C 584.269531 74.484375 583.324219 74.433594 582.394531 74.335938 C 581.152344 74.207031 579.90625 74.089844 578.667969 73.972656 L 575.160156 73.632812 C 574.199219 73.546875 573.238281 73.488281 572.277344 73.347656 C 571.585938 73.246094 570.863281 73.230469 570.160156 73.148438 C 568.890625 73 567.625 72.898438 566.347656 72.722656 C 565.632812 72.628906 564.902344 72.539062 564.175781 72.511719 C 563.28125 72.511719 562.480469 72.242188 561.765625 71.710938 C 561.328125 71.339844 560.984375 70.894531 560.726562 70.378906 C 560.171875 69.359375 560.316406 68.308594 560.589844 67.257812 C 560.863281 66.210938 561.175781 65.21875 561.527344 64.214844 C 561.730469 63.632812 561.796875 63.015625 562.007812 62.449219 C 562.277344 61.738281 562.421875 60.992188 562.726562 60.292969 C 562.8125 60.023438 562.882812 59.75 562.929688 59.46875 C 563.214844 58.4375 563.515625 57.410156 563.890625 56.40625 C 564.089844 55.871094 564.101562 55.289062 564.328125 54.761719 C 564.542969 54.183594 564.714844 53.59375 564.84375 52.996094 C 565.042969 52.246094 565.324219 51.519531 565.535156 50.773438 C 565.90625 49.492188 566.335938 48.238281 566.671875 46.9375 C 566.839844 46.277344 567.058594 45.636719 567.269531 44.992188 C 567.460938 44.417969 567.582031 43.820312 567.78125 43.246094 C 568.0625 42.449219 568.242188 41.636719 568.53125 40.832031 C 568.691406 40.40625 568.808594 39.964844 568.875 39.515625 C 568.949219 38.976562 569.21875 38.5 569.371094 37.984375 C 569.648438 37.011719 569.949219 36.039062 570.222656 35.066406 C 570.328125 34.703125 570.453125 34.34375 570.578125 33.984375 C 570.617188 33.859375 570.664062 33.738281 570.535156 33.644531 C 570.410156 33.554688 570.304688 33.644531 570.222656 33.707031 C 569.484375 34.328125 568.65625 34.832031 567.898438 35.429688 C 567.527344 35.71875 567.117188 35.984375 566.71875 36.253906 C 566.257812 36.5625 565.816406 36.910156 565.359375 37.226562 C 564.71875 37.671875 564.128906 38.175781 563.492188 38.609375 C 562.953125 38.988281 562.390625 39.34375 561.859375 39.746094 C 560.496094 40.769531 559.097656 41.730469 557.734375 42.726562 C 556.667969 43.5 555.601562 44.269531 554.546875 45.050781 C 553.773438 45.621094 552.980469 46.167969 552.207031 46.742188 C 551.535156 47.253906 550.828125 47.730469 550.136719 48.21875 C 549.257812 48.828125 548.398438 49.464844 547.523438 50.078125 C 546.878906 50.539062 546.199219 50.964844 545.566406 51.4375 C 544.933594 51.914062 544.199219 52.378906 543.535156 52.878906 C 542.921875 53.300781 542.25 53.601562 541.519531 53.765625 C 541.484375 53.777344 541.449219 53.78125 541.410156 53.785156 C 540.101562 53.914062 538.769531 53.09375 538.203125 51.910156 C 537.535156 50.527344 538.238281 48.789062 539.238281 47.9375 C 540.144531 47.160156 541.128906 46.472656 542.050781 45.707031 C 542.753906 45.121094 543.542969 44.636719 544.261719 44.070312 C 544.84375 43.609375 545.460938 43.214844 546.042969 42.761719 C 546.75 42.210938 547.488281 41.699219 548.210938 41.167969 C 549.027344 40.566406 549.835938 39.957031 550.648438 39.355469 C 551.417969 38.789062 552.207031 38.246094 552.953125 37.65625 C 554.175781 36.703125 555.460938 35.835938 556.6875 34.894531 C 557.863281 33.976562 559.09375 33.148438 560.273438 32.242188 C 561.039062 31.65625 561.828125 31.082031 562.621094 30.507812 C 564.078125 29.453125 565.511719 28.375 566.972656 27.324219 C 567.996094 26.589844 568.984375 25.816406 570.015625 25.085938 C 570.785156 24.535156 571.519531 23.933594 572.289062 23.394531 C 572.980469 22.898438 573.640625 22.332031 574.460938 22.011719 C 575.765625 21.492188 576.96875 21.570312 578.113281 22.429688 C 578.570312 22.75 578.914062 23.160156 579.148438 23.664062 C 579.429688 24.25 579.515625 24.863281 579.410156 25.507812 C 579.199219 26.40625 579.117188 27.320312 578.980469 28.226562 C 578.890625 28.988281 578.738281 29.738281 578.515625 30.476562 C 578.121094 31.65625 577.863281 32.871094 577.523438 34.0625 C 577.339844 34.695312 577.152344 35.332031 577.023438 35.984375 C 576.941406 36.445312 576.734375 36.859375 576.621094 37.3125 C 576.351562 38.359375 576.039062 39.386719 575.75 40.429688 C 575.539062 41.203125 575.34375 41.984375 575.125 42.757812 C 574.976562 43.289062 574.785156 43.824219 574.664062 44.367188 C 574.488281 45.195312 574.167969 45.980469 573.945312 46.789062 C 573.683594 47.765625 573.5 48.761719 573.132812 49.710938 C 572.980469 50.179688 572.851562 50.652344 572.746094 51.136719 C 572.40625 52.414062 571.964844 53.667969 571.667969 54.964844 C 571.4375 55.925781 571.128906 56.855469 570.875 57.808594 C 570.578125 58.945312 570.246094 60.070312 569.957031 61.207031 C 569.65625 62.378906 569.265625 63.523438 568.996094 64.703125 C 568.902344 65.109375 568.726562 65.492188 568.605469 65.890625 C 568.527344 66.0625 568.542969 66.222656 568.652344 66.371094 C 568.761719 66.523438 568.910156 66.585938 569.09375 66.566406 C 570.273438 66.535156 571.449219 66.703125 572.632812 66.753906 C 573.582031 66.796875 574.53125 66.925781 575.484375 67.007812 C 575.90625 67.042969 576.332031 67.074219 576.757812 67.082031 C 577.660156 67.097656 578.554688 67.21875 579.449219 67.296875 C 580.140625 67.355469 580.832031 67.378906 581.519531 67.429688 C 582.644531 67.515625 583.765625 67.613281 584.886719 67.699219 C 585.519531 67.746094 586.15625 67.777344 586.789062 67.828125 C 587.910156 67.910156 589.035156 68.007812 590.160156 68.09375 C 591.019531 68.160156 591.875 68.21875 592.738281 68.277344 C 593.699219 68.347656 594.660156 68.417969 595.625 68.488281 C 595.984375 68.519531 596.34375 68.519531 596.707031 68.546875 C 597.238281 68.59375 597.785156 68.609375 598.316406 68.601562 C 599.136719 68.59375 599.929688 68.734375 600.703125 69.011719 C 601.605469 69.335938 602.28125 69.921875 602.734375 70.773438 C 603.03125 71.285156 603.179688 71.839844 603.171875 72.433594 C 603.175781 72.695312 603.179688 72.980469 603.179688 73.265625 Z M 603.179688 73.265625 " fill-opacity="1" fill-rule="nonzero"/></g><path fill="#ffb9b9" d="M 349.539062 108.128906 C 349.097656 108.023438 348.734375 107.792969 348.457031 107.441406 C 348.179688 107.089844 348.054688 106.6875 348.089844 106.238281 C 348.105469 106.042969 348.195312 105.886719 348.359375 105.769531 C 348.53125 105.65625 348.707031 105.628906 348.886719 105.683594 C 349.074219 105.734375 349.199219 105.867188 349.269531 106.078125 C 349.339844 106.40625 349.503906 106.601562 349.757812 106.667969 C 350.011719 106.726562 350.265625 106.675781 350.519531 106.519531 C 350.773438 106.367188 350.960938 106.171875 351.085938 105.941406 C 351.332031 105.527344 351.433594 105.078125 351.390625 104.59375 C 351.359375 104.109375 351.171875 103.691406 350.828125 103.339844 C 350.242188 102.785156 349.421875 102.515625 348.359375 102.53125 C 347.589844 102.546875 346.816406 102.785156 346.039062 103.242188 C 345.375 103.628906 344.878906 104.1875 344.554688 104.925781 C 344.289062 105.539062 344.191406 106.160156 344.257812 106.789062 C 344.414062 108.085938 345.28125 109.378906 346.863281 110.671875 C 347.15625 110.886719 347.773438 111.300781 348.714844 111.921875 C 349.664062 112.546875 350.351562 113.082031 350.777344 113.53125 C 351.421875 114.195312 351.882812 114.953125 352.152344 115.8125 C 352.421875 116.671875 352.464844 117.550781 352.289062 118.441406 C 352.097656 119.300781 351.703125 120.0625 351.097656 120.726562 C 350.488281 121.394531 349.808594 121.886719 349.046875 122.199219 C 348.285156 122.507812 347.46875 122.59375 346.605469 122.457031 C 345.734375 122.316406 344.972656 121.921875 344.308594 121.277344 C 343.660156 120.648438 343.28125 119.886719 343.179688 118.992188 C 343.070312 118.105469 343.316406 117.304688 343.914062 116.601562 C 344.457031 116.027344 345.113281 115.710938 345.890625 115.640625 C 346.675781 115.570312 347.355469 115.8125 347.929688 116.367188 C 348.109375 116.546875 348.191406 116.757812 348.175781 116.992188 C 348.15625 117.222656 348.066406 117.40625 347.90625 117.546875 C 347.75 117.675781 347.5625 117.761719 347.339844 117.804688 C 347.125 117.847656 346.921875 117.761719 346.726562 117.558594 C 346.53125 117.394531 346.300781 117.332031 346.039062 117.359375 C 345.773438 117.386719 345.542969 117.492188 345.339844 117.679688 C 345.109375 117.925781 345.007812 118.207031 345.03125 118.515625 C 345.058594 118.820312 345.167969 119.109375 345.363281 119.386719 C 345.796875 119.984375 346.449219 120.277344 347.328125 120.257812 C 347.941406 120.257812 348.519531 119.984375 349.058594 119.4375 C 349.5 118.96875 349.773438 118.421875 349.882812 117.789062 C 349.898438 117.734375 349.90625 117.664062 349.90625 117.582031 C 349.90625 117.476562 349.90625 117.386719 349.90625 117.3125 C 349.90625 117.175781 349.886719 117.050781 349.855469 116.945312 C 349.800781 116.648438 349.675781 116.355469 349.488281 116.058594 C 349.429688 115.957031 349.347656 115.847656 349.242188 115.742188 C 349.144531 115.636719 349.023438 115.503906 348.875 115.347656 C 348.628906 115.121094 348.386719 114.917969 348.152344 114.746094 C 347.96875 114.609375 347.761719 114.464844 347.523438 114.316406 C 347.285156 114.164062 347.046875 114.003906 346.800781 113.835938 C 346.554688 113.675781 346.335938 113.53125 346.148438 113.40625 C 344.242188 112.058594 342.957031 110.683594 342.292969 109.28125 C 341.851562 108.367188 341.632812 107.421875 341.632812 106.445312 C 341.632812 105.464844 341.84375 104.511719 342.269531 103.585938 C 342.703125 102.6875 343.328125 101.945312 344.148438 101.363281 C 344.972656 100.773438 345.886719 100.417969 346.886719 100.296875 C 347.824219 100.191406 348.710938 100.304688 349.539062 100.640625 C 350.378906 100.976562 351.101562 101.554688 351.710938 102.371094 C 352.078125 102.847656 352.34375 103.371094 352.507812 103.941406 C 352.679688 104.507812 352.722656 105.09375 352.632812 105.699219 C 352.550781 106.304688 352.316406 106.832031 351.933594 107.28125 C 351.734375 107.496094 351.503906 107.679688 351.246094 107.832031 C 350.980469 107.992188 350.703125 108.097656 350.410156 108.152344 C 350.121094 108.203125 349.832031 108.195312 349.539062 108.128906 Z M 349.539062 108.128906 " fill-opacity="1" fill-rule="nonzero"/><path fill="#ffb9b9" d="M 385.804688 102.050781 C 386.171875 102.144531 386.359375 102.394531 386.367188 102.8125 C 386.375 103.222656 386.1875 103.476562 385.804688 103.574219 C 385.539062 103.617188 385.242188 103.652344 384.90625 103.683594 C 384.578125 103.71875 384.300781 103.734375 384.070312 103.734375 C 383.839844 103.734375 383.535156 103.730469 383.152344 103.722656 C 382.765625 103.714844 382.480469 103.707031 382.304688 103.707031 C 381.605469 103.726562 380.832031 103.742188 379.972656 103.757812 C 379.972656 104.21875 379.957031 104.722656 379.933594 105.269531 C 379.910156 105.808594 379.878906 106.300781 379.847656 106.742188 C 379.824219 107.175781 379.792969 107.679688 379.761719 108.25 C 379.730469 108.816406 379.703125 109.308594 379.6875 109.726562 C 379.492188 114.398438 379.507812 118.066406 379.738281 120.726562 C 379.800781 121.414062 379.910156 121.992188 380.058594 122.46875 C 380.1875 122.828125 380.304688 123.105469 380.414062 123.304688 C 380.46875 123.425781 380.585938 123.554688 380.757812 123.695312 C 381.277344 124.09375 381.832031 124.132812 382.414062 123.808594 C 382.734375 123.625 382.960938 123.367188 383.101562 123.035156 C 383.238281 122.703125 383.289062 122.339844 383.25 121.941406 C 383.230469 121.746094 383.300781 121.589844 383.457031 121.488281 C 383.621094 121.386719 383.796875 121.367188 383.984375 121.425781 C 384.183594 121.480469 384.296875 121.609375 384.328125 121.804688 C 384.542969 122.875 384.292969 123.800781 383.582031 124.582031 C 382.867188 125.355469 381.964844 125.726562 380.867188 125.683594 C 380.007812 125.636719 379.273438 125.292969 378.667969 124.652344 C 378.0625 124.015625 377.628906 123.25 377.367188 122.359375 C 377.285156 122.054688 377.207031 121.722656 377.136719 121.363281 C 377.066406 121.011719 377.019531 120.699219 376.988281 120.429688 C 376.964844 120.15625 376.941406 119.792969 376.925781 119.351562 C 376.90625 118.90625 376.894531 118.585938 376.890625 118.378906 C 376.878906 118.175781 376.878906 117.824219 376.878906 117.324219 C 376.878906 116.828125 376.878906 116.5 376.878906 116.34375 C 376.851562 113.929688 376.9375 111.722656 377.136719 109.726562 C 377.378906 107.203125 377.6875 105.238281 378.054688 103.820312 C 377.054688 103.851562 376.234375 103.886719 375.589844 103.917969 C 375.144531 103.9375 374.585938 103.953125 373.90625 103.980469 C 373.847656 103.980469 373.738281 103.984375 373.574219 103.992188 C 373.410156 104 373.28125 104.003906 373.195312 104.003906 C 373.109375 104.003906 373.003906 104 372.875 103.992188 C 372.753906 103.984375 372.632812 103.976562 372.519531 103.964844 C 372.410156 103.949219 372.304688 103.925781 372.199219 103.894531 C 371.90625 103.789062 371.726562 103.578125 371.671875 103.265625 C 371.621094 102.949219 371.746094 102.703125 372.039062 102.53125 C 372.316406 102.375 372.902344 102.253906 373.796875 102.160156 C 374.269531 102.113281 374.839844 102.070312 375.503906 102.027344 C 376.605469 101.945312 377.738281 101.890625 378.890625 101.867188 C 379.871094 101.835938 381.039062 101.828125 382.390625 101.84375 C 382.46875 101.84375 382.738281 101.839844 383.199219 101.832031 C 383.65625 101.824219 383.972656 101.824219 384.144531 101.832031 C 384.324219 101.839844 384.578125 101.863281 384.90625 101.902344 C 385.242188 101.9375 385.539062 101.988281 385.804688 102.050781 Z M 385.804688 102.050781 " fill-opacity="1" fill-rule="nonzero"/><path fill="#ffb9b9" d="M 417.625 106.753906 C 417.730469 106.96875 417.75 107.175781 417.6875 107.378906 C 417.628906 107.574219 417.503906 107.746094 417.316406 107.882812 C 416.949219 108.164062 416.535156 108.398438 416.078125 108.59375 C 416.273438 109.453125 416.390625 110.3125 416.433594 111.171875 C 416.484375 112.03125 416.453125 112.902344 416.347656 113.777344 C 416.242188 114.644531 416.027344 115.492188 415.710938 116.316406 C 415.398438 117.136719 414.972656 117.875 414.433594 118.527344 C 413.792969 119.363281 412.996094 120.03125 412.039062 120.527344 C 411.085938 121.027344 410.105469 121.257812 409.09375 121.230469 C 407.863281 121.210938 406.691406 120.859375 405.582031 120.171875 C 404.476562 119.480469 403.5625 118.585938 402.84375 117.496094 C 402.210938 116.53125 401.800781 115.390625 401.613281 114.070312 C 401.433594 112.753906 401.449219 111.535156 401.664062 110.414062 C 401.859375 109.128906 402.269531 108.03125 402.890625 107.121094 C 403.457031 106.304688 404.050781 105.757812 404.683594 105.476562 C 404.4375 104.726562 404.449219 104 404.722656 103.304688 C 404.992188 102.601562 405.460938 102.019531 406.132812 101.558594 C 406.429688 101.363281 406.773438 101.199219 407.164062 101.070312 C 407.558594 100.941406 407.945312 100.855469 408.332031 100.8125 C 408.714844 100.769531 409.09375 100.773438 409.460938 100.824219 C 410.441406 100.945312 411.425781 101.402344 412.40625 102.1875 C 413.878906 103.363281 414.953125 104.949219 415.636719 106.9375 C 415.945312 106.800781 416.230469 106.636719 416.496094 106.445312 C 416.671875 106.324219 416.878906 106.300781 417.109375 106.371094 C 417.335938 106.441406 417.507812 106.566406 417.625 106.753906 Z M 407.054688 103.867188 C 406.960938 104.007812 406.902344 104.167969 406.871094 104.347656 C 406.886719 104.257812 406.894531 104.257812 406.894531 104.347656 L 406.894531 104.519531 C 406.894531 104.527344 406.902344 104.554688 406.917969 104.605469 C 407 104.882812 407.191406 105.175781 407.496094 105.476562 C 408.191406 106.125 409.074219 106.648438 410.148438 107.046875 C 411.515625 107.539062 412.875 107.65625 414.234375 107.390625 C 414.046875 106.859375 413.808594 106.34375 413.523438 105.84375 C 413.246094 105.339844 412.910156 104.859375 412.515625 104.410156 C 412.125 103.960938 411.695312 103.578125 411.226562 103.265625 C 410.507812 102.761719 409.792969 102.53125 409.09375 102.578125 C 408.707031 102.597656 408.382812 102.710938 408.121094 102.921875 C 407.582031 103.324219 407.226562 103.640625 407.054688 103.867188 Z M 414.050781 116.367188 C 414.582031 115.335938 414.894531 114.144531 414.984375 112.792969 C 415.082031 111.4375 414.984375 110.175781 414.691406 109.011719 C 414.179688 109.121094 413.621094 109.191406 413.007812 109.222656 C 411.191406 109.292969 409.621094 109.09375 408.304688 108.621094 C 407.226562 108.234375 406.371094 107.730469 405.742188 107.097656 C 405.730469 107.082031 405.710938 107.074219 405.679688 107.074219 C 405.660156 107.105469 405.636719 107.144531 405.605469 107.183594 C 405.570312 107.21875 405.527344 107.289062 405.46875 107.390625 C 405.222656 107.859375 405.101562 108.089844 405.101562 108.089844 C 404.910156 108.460938 404.75 108.863281 404.609375 109.308594 C 404.308594 110.308594 404.164062 111.320312 404.179688 112.351562 C 404.195312 114.644531 404.800781 116.421875 406 117.679688 C 406.675781 118.402344 407.472656 118.867188 408.378906 119.078125 C 408.992188 119.222656 409.828125 119.164062 410.882812 118.921875 C 412.265625 118.601562 413.320312 117.75 414.050781 116.367188 Z M 414.050781 116.367188 " fill-opacity="1" fill-rule="nonzero"/><path fill="#ffb9b9" d="M 453.097656 123.808594 C 453.929688 124.746094 454.058594 125.933594 453.476562 127.367188 C 453.039062 128.4375 452.089844 129.28125 450.617188 129.898438 C 449.902344 130.15625 449.195312 130.21875 448.492188 130.082031 C 447.796875 129.941406 447.15625 129.640625 446.578125 129.183594 C 446.175781 128.871094 445.820312 128.503906 445.519531 128.078125 C 445.226562 127.660156 444.96875 127.171875 444.746094 126.605469 C 444.53125 126.046875 444.371094 125.570312 444.257812 125.167969 C 444.140625 124.769531 444.003906 124.253906 443.851562 123.621094 C 443.742188 123.164062 443.539062 122.222656 443.238281 120.800781 C 442.941406 119.382812 442.695312 118.300781 442.5 117.546875 C 442.253906 116.679688 441.9375 115.929688 441.554688 115.296875 C 441.519531 115.242188 441.464844 115.167969 441.382812 115.078125 L 441.382812 115.054688 C 441.339844 115.003906 441.289062 114.941406 441.222656 114.867188 C 441.199219 114.839844 441.144531 114.78125 441.0625 114.710938 C 441.0625 114.695312 441.0625 114.683594 441.0625 114.683594 C 440.941406 114.582031 440.84375 114.496094 440.769531 114.425781 C 440.523438 114.230469 440.277344 114.09375 440.03125 114.007812 C 439.917969 113.992188 439.832031 113.984375 439.773438 113.984375 C 439.667969 113.980469 439.570312 113.949219 439.480469 113.898438 C 439.382812 113.898438 439.285156 113.90625 439.199219 113.921875 C 439.125 113.957031 439.042969 113.964844 438.964844 113.949219 C 438.964844 114.410156 438.957031 115.0625 438.941406 115.914062 C 438.921875 116.765625 438.914062 117.292969 438.914062 117.496094 C 438.914062 118.109375 438.910156 118.785156 438.902344 119.523438 C 438.871094 120.554688 438.808594 121.230469 438.71875 121.546875 C 438.597656 121.917969 438.34375 122.101562 437.96875 122.101562 C 437.59375 122.101562 437.34375 121.917969 437.222656 121.546875 C 437.171875 121.402344 437.128906 121.21875 437.097656 121.007812 C 437.066406 120.800781 437.042969 120.648438 437.035156 120.542969 C 437.027344 120.4375 437.019531 120.230469 437.011719 119.925781 C 437.011719 119.625 437.011719 119.460938 437.011719 119.4375 C 436.992188 118.773438 436.980469 118.09375 436.964844 117.398438 C 436.945312 115.433594 436.945312 114.09375 436.964844 113.371094 C 436.980469 110.066406 437.085938 107.328125 437.28125 105.15625 C 437.3125 104.882812 437.433594 104.6875 437.636719 104.582031 C 437.851562 104.476562 438.0625 104.476562 438.277344 104.582031 C 438.488281 104.6875 438.613281 104.882812 438.644531 105.15625 C 438.855469 107.171875 438.964844 109.695312 438.964844 112.71875 C 439.242188 112.617188 439.53125 112.554688 439.824219 112.535156 C 440.316406 112.382812 440.660156 112.242188 440.855469 112.117188 C 440.960938 112.046875 441.070312 111.960938 441.1875 111.859375 C 441.308594 111.757812 441.433594 111.636719 441.566406 111.503906 C 441.707031 111.367188 441.808594 111.265625 441.875 111.199219 C 442.578125 110.554688 443.144531 109.84375 443.582031 109.074219 C 443.703125 108.863281 443.808594 108.65625 443.898438 108.460938 C 443.898438 108.460938 443.902344 108.449219 443.914062 108.421875 C 443.917969 108.398438 443.929688 108.375 443.9375 108.347656 C 443.941406 108.320312 443.957031 108.28125 443.972656 108.238281 C 443.988281 108.199219 444 108.164062 444.011719 108.140625 C 444.027344 108.109375 444.035156 108.089844 444.035156 108.089844 C 444.113281 107.855469 444.175781 107.648438 444.21875 107.464844 C 444.234375 107.417969 444.25 107.355469 444.269531 107.28125 C 444.285156 107.203125 444.292969 107.144531 444.292969 107.121094 C 444.292969 107.105469 444.300781 107.066406 444.316406 107 C 444.332031 106.800781 444.34375 106.601562 444.34375 106.386719 C 444.34375 106.371094 444.332031 106.300781 444.316406 106.175781 L 444.316406 106.015625 L 444.316406 106.027344 C 444.269531 105.832031 444.230469 105.65625 444.207031 105.5 C 444.171875 105.425781 444.140625 105.339844 444.109375 105.230469 C 444.089844 105.230469 444.085938 105.226562 444.085938 105.207031 C 443.941406 104.945312 443.839844 104.769531 443.765625 104.679688 C 443.730469 104.628906 443.707031 104.582031 443.691406 104.53125 C 443.648438 104.492188 443.621094 104.46875 443.605469 104.46875 C 443.3125 104.175781 443.082031 103.964844 442.929688 103.84375 C 442.378906 103.425781 441.742188 103.121094 441.015625 102.921875 C 439.679688 102.539062 438.355469 102.738281 437.050781 103.523438 C 436.390625 103.925781 435.863281 104.429688 435.464844 105.035156 C 435.066406 105.640625 434.902344 106.296875 434.972656 107 C 435.007812 107.21875 434.929688 107.390625 434.742188 107.503906 C 434.542969 107.617188 434.34375 107.648438 434.128906 107.589844 C 433.914062 107.523438 433.792969 107.378906 433.757812 107.160156 C 433.605469 106.121094 433.828125 105.167969 434.421875 104.296875 C 435.011719 103.433594 435.8125 102.6875 436.828125 102.0625 C 438.527344 101.042969 440.328125 100.699219 442.21875 101.03125 C 443.324219 101.230469 444.285156 101.640625 445.101562 102.261719 C 445.929688 102.875 446.527344 103.691406 446.894531 104.703125 C 447.171875 105.441406 447.28125 106.207031 447.214844 107 C 447.15625 107.785156 446.972656 108.542969 446.664062 109.269531 C 446.359375 109.992188 445.96875 110.65625 445.496094 111.273438 C 444.636719 112.347656 443.753906 113.058594 442.84375 113.40625 C 442.761719 113.441406 442.675781 113.476562 442.585938 113.507812 C 443.09375 113.921875 443.546875 114.5625 443.949219 115.421875 C 444.636719 116.820312 445.292969 118.609375 445.925781 120.785156 C 446.023438 121.128906 446.210938 121.867188 446.492188 122.996094 C 446.777344 124.125 447.023438 124.988281 447.226562 125.585938 C 447.355469 125.972656 447.550781 126.363281 447.804688 126.765625 C 448.054688 127.175781 448.339844 127.503906 448.652344 127.761719 C 449.070312 128.046875 449.53125 128.171875 450.039062 128.140625 C 450.546875 128.117188 451.019531 127.957031 451.464844 127.660156 C 451.921875 127.347656 452.285156 126.945312 452.554688 126.445312 C 452.824219 125.945312 452.820312 125.476562 452.542969 125.035156 C 452.347656 124.695312 452.046875 124.472656 451.648438 124.359375 C 451.246094 124.253906 450.886719 124.316406 450.566406 124.554688 C 450.394531 124.660156 450.203125 124.683594 450.003906 124.617188 C 449.796875 124.558594 449.644531 124.445312 449.546875 124.273438 C 449.441406 124.082031 449.414062 123.894531 449.460938 123.707031 C 449.515625 123.527344 449.632812 123.378906 449.804688 123.253906 C 450.359375 122.886719 450.949219 122.765625 451.5625 122.898438 C 452.175781 123.027344 452.683594 123.332031 453.097656 123.808594 Z M 444.109375 105.253906 Z M 444.109375 105.253906 " fill-opacity="1" fill-rule="nonzero"/><path fill="#ffb9b9" d="M 471.292969 119.339844 C 471.59375 119.355469 471.832031 119.484375 472.003906 119.730469 C 472.175781 119.976562 472.210938 120.242188 472.113281 120.527344 C 472.023438 120.8125 471.824219 121 471.523438 121.09375 C 470.984375 121.246094 469.996094 121.390625 468.566406 121.523438 C 468.371094 121.539062 468.082031 121.566406 467.707031 121.609375 C 467.328125 121.648438 467.109375 121.671875 467.042969 121.671875 C 467.019531 121.671875 466.933594 121.675781 466.785156 121.695312 C 466.636719 121.710938 466.53125 121.71875 466.464844 121.71875 C 466.410156 121.726562 466.324219 121.730469 466.207031 121.730469 C 466.09375 121.730469 465.992188 121.722656 465.902344 121.707031 C 465.820312 121.699219 465.734375 121.671875 465.644531 121.621094 C 465.320312 121.5 465.132812 121.28125 465.089844 120.972656 C 465.042969 120.671875 465.164062 120.414062 465.460938 120.199219 C 465.550781 120.132812 465.667969 120.074219 465.816406 120.027344 C 465.964844 119.96875 466.066406 119.9375 466.121094 119.925781 C 466.1875 119.921875 466.332031 119.902344 466.550781 119.878906 C 466.773438 119.847656 466.890625 119.828125 466.910156 119.828125 C 466.9375 119.8125 466.976562 119.804688 467.019531 119.804688 C 467.070312 119.804688 467.109375 119.800781 467.140625 119.792969 C 467.183594 119.785156 467.222656 119.777344 467.265625 119.769531 C 467.304688 119.761719 467.34375 119.753906 467.386719 119.742188 C 467.4375 119.738281 467.476562 119.730469 467.511719 119.730469 C 467.441406 119.4375 467.398438 118.820312 467.375 117.890625 C 467.339844 116.90625 467.308594 116.101562 467.277344 115.46875 C 467.21875 113.039062 467.183594 111.492188 467.167969 110.828125 C 467.132812 109.429688 467.132812 107.847656 467.167969 106.078125 C 467.191406 104.589844 467.226562 103.546875 467.277344 102.949219 C 466.449219 102.992188 465.792969 102.972656 465.300781 102.898438 C 465.097656 102.867188 464.929688 102.761719 464.796875 102.578125 C 464.667969 102.390625 464.601562 102.199219 464.601562 102.003906 C 464.601562 101.554688 464.832031 101.246094 465.300781 101.082031 C 465.4375 101.03125 465.589844 100.992188 465.753906 100.957031 C 465.925781 100.917969 466.066406 100.890625 466.171875 100.871094 C 466.277344 100.855469 466.449219 100.84375 466.6875 100.824219 C 466.925781 100.808594 467.070312 100.800781 467.128906 100.800781 C 467.195312 100.800781 467.371094 100.796875 467.65625 100.785156 C 467.941406 100.78125 468.085938 100.773438 468.085938 100.773438 C 468.175781 100.757812 468.261719 100.757812 468.34375 100.773438 C 469.589844 100.734375 470.5 100.757812 471.082031 100.847656 C 471.253906 100.882812 471.402344 100.984375 471.523438 101.15625 C 471.648438 101.320312 471.710938 101.496094 471.710938 101.683594 C 471.710938 102.074219 471.5 102.351562 471.082031 102.503906 C 470.605469 102.675781 470.003906 102.785156 469.265625 102.824219 C 469.320312 103.433594 469.390625 104.515625 469.476562 106.078125 C 469.546875 107.847656 469.585938 109.394531 469.585938 110.71875 C 469.585938 111.457031 469.585938 113.039062 469.585938 115.46875 C 469.566406 116.109375 469.5625 116.84375 469.5625 117.679688 C 469.5625 117.789062 469.5625 117.933594 469.5625 118.109375 C 469.5625 118.28125 469.5625 118.429688 469.574219 118.550781 C 469.578125 118.675781 469.578125 118.820312 469.574219 118.992188 C 469.5625 119.164062 469.550781 119.3125 469.535156 119.4375 C 470.230469 119.355469 470.816406 119.324219 471.292969 119.339844 Z M 471.292969 119.339844 " fill-opacity="1" fill-rule="nonzero"/><path fill="#ffb9b9" d="M 500.425781 118.046875 C 500.613281 117.789062 500.851562 117.714844 501.140625 117.828125 C 501.425781 117.945312 501.527344 118.164062 501.445312 118.492188 C 501.25 119.441406 500.753906 120.285156 499.960938 121.019531 C 499.164062 121.757812 498.269531 122.253906 497.269531 122.519531 C 496.269531 122.792969 495.273438 122.824219 494.277344 122.605469 C 493.273438 122.390625 492.386719 121.957031 491.597656 121.300781 C 490.953125 120.761719 490.449219 120.070312 490.101562 119.226562 C 489.75 118.378906 489.539062 117.503906 489.476562 116.601562 C 489.449219 115.996094 489.5 115.394531 489.621094 114.796875 C 489.746094 114.199219 489.933594 113.628906 490.199219 113.089844 C 490.46875 112.542969 490.804688 112.03125 491.207031 111.566406 C 491.777344 110.921875 492.5 110.457031 493.378906 110.167969 C 492.976562 109.78125 492.644531 109.367188 492.386719 108.914062 C 492.03125 108.300781 491.824219 107.644531 491.757812 106.9375 C 491.699219 106.226562 491.773438 105.550781 491.980469 104.910156 C 492.191406 104.273438 492.539062 103.691406 493.023438 103.167969 C 493.503906 102.636719 494.078125 102.246094 494.742188 102.003906 C 495.445312 101.757812 496.183594 101.714844 496.953125 101.878906 C 497.71875 102.035156 498.394531 102.347656 498.976562 102.8125 C 499.519531 103.273438 499.847656 103.851562 499.972656 104.542969 C 500.09375 105.230469 499.949219 105.855469 499.53125 106.421875 C 499.375 106.613281 499.191406 106.636719 498.988281 106.496094 C 498.785156 106.359375 498.710938 106.1875 498.769531 105.992188 C 498.972656 105.347656 498.855469 104.796875 498.414062 104.347656 C 497.976562 103.890625 497.421875 103.644531 496.742188 103.609375 C 495.605469 103.585938 494.773438 104.09375 494.25 105.132812 C 493.824219 106.011719 493.839844 106.925781 494.300781 107.882812 C 494.527344 108.34375 494.828125 108.734375 495.195312 109.0625 C 495.566406 109.378906 496.035156 109.71875 496.609375 110.070312 C 496.785156 110.136719 496.921875 110.265625 497.011719 110.460938 C 497.113281 110.65625 497.128906 110.851562 497.0625 111.039062 C 497.003906 111.269531 496.882812 111.429688 496.695312 111.53125 C 496.511719 111.621094 496.308594 111.648438 496.082031 111.617188 C 495.753906 111.566406 495.429688 111.472656 495.109375 111.332031 C 494.585938 111.367188 494.105469 111.574219 493.675781 111.960938 C 493.230469 112.394531 492.816406 113 492.433594 113.777344 C 492.105469 114.457031 491.925781 115.167969 491.894531 115.914062 C 491.871094 116.660156 492 117.386719 492.285156 118.097656 C 492.582031 118.804688 493.027344 119.371094 493.625 119.804688 C 494.148438 120.199219 494.75 120.457031 495.429688 120.578125 C 496.117188 120.691406 496.773438 120.65625 497.40625 120.46875 C 498.453125 120.148438 499.460938 119.34375 500.425781 118.046875 Z M 500.425781 118.046875 " fill-opacity="1" fill-rule="nonzero"/><path fill="#ffb9b9" d="M 527.152344 108.128906 C 526.710938 108.023438 526.347656 107.792969 526.070312 107.441406 C 525.792969 107.089844 525.667969 106.6875 525.703125 106.238281 C 525.71875 106.042969 525.808594 105.886719 525.972656 105.769531 C 526.144531 105.65625 526.320312 105.628906 526.5 105.683594 C 526.6875 105.734375 526.816406 105.867188 526.882812 106.078125 C 526.957031 106.40625 527.117188 106.601562 527.375 106.667969 C 527.625 106.726562 527.878906 106.675781 528.132812 106.519531 C 528.386719 106.367188 528.578125 106.171875 528.699219 105.941406 C 528.945312 105.527344 529.046875 105.078125 529.007812 104.59375 C 528.972656 104.109375 528.785156 103.691406 528.441406 103.339844 C 527.859375 102.785156 527.035156 102.515625 525.972656 102.53125 C 525.203125 102.546875 524.429688 102.785156 523.652344 103.242188 C 522.992188 103.628906 522.492188 104.1875 522.167969 104.925781 C 521.902344 105.539062 521.804688 106.160156 521.871094 106.789062 C 522.027344 108.085938 522.894531 109.378906 524.476562 110.671875 C 524.769531 110.886719 525.386719 111.300781 526.328125 111.921875 C 527.277344 112.546875 527.964844 113.082031 528.390625 113.53125 C 529.035156 114.195312 529.496094 114.953125 529.765625 115.8125 C 530.039062 116.671875 530.082031 117.550781 529.902344 118.441406 C 529.710938 119.300781 529.316406 120.0625 528.710938 120.726562 C 528.105469 121.394531 527.421875 121.886719 526.660156 122.199219 C 525.898438 122.507812 525.082031 122.59375 524.21875 122.457031 C 523.347656 122.316406 522.585938 121.921875 521.921875 121.277344 C 521.273438 120.648438 520.898438 119.886719 520.792969 118.992188 C 520.683594 118.105469 520.929688 117.304688 521.527344 116.601562 C 522.070312 116.027344 522.726562 115.710938 523.507812 115.640625 C 524.292969 115.570312 524.96875 115.8125 525.542969 116.367188 C 525.722656 116.546875 525.804688 116.757812 525.789062 116.992188 C 525.769531 117.222656 525.683594 117.40625 525.519531 117.546875 C 525.363281 117.675781 525.175781 117.761719 524.953125 117.804688 C 524.738281 117.847656 524.539062 117.761719 524.339844 117.558594 C 524.144531 117.394531 523.914062 117.332031 523.652344 117.359375 C 523.390625 117.386719 523.15625 117.492188 522.953125 117.679688 C 522.722656 117.925781 522.621094 118.207031 522.648438 118.515625 C 522.671875 118.820312 522.78125 119.109375 522.976562 119.386719 C 523.410156 119.984375 524.066406 120.277344 524.941406 120.257812 C 525.554688 120.257812 526.132812 119.984375 526.671875 119.4375 C 527.117188 118.96875 527.390625 118.421875 527.496094 117.789062 C 527.511719 117.734375 527.519531 117.664062 527.519531 117.582031 C 527.519531 117.476562 527.519531 117.386719 527.519531 117.3125 C 527.519531 117.175781 527.503906 117.050781 527.472656 116.945312 C 527.414062 116.648438 527.289062 116.355469 527.101562 116.058594 C 527.042969 115.957031 526.960938 115.847656 526.859375 115.742188 C 526.757812 115.636719 526.636719 115.503906 526.488281 115.347656 C 526.242188 115.121094 526 114.917969 525.765625 114.746094 C 525.582031 114.609375 525.375 114.464844 525.140625 114.316406 C 524.898438 114.164062 524.660156 114.003906 524.414062 113.835938 C 524.167969 113.675781 523.949219 113.53125 523.765625 113.40625 C 521.855469 112.058594 520.570312 110.683594 519.910156 109.28125 C 519.464844 108.367188 519.246094 107.421875 519.246094 106.445312 C 519.246094 105.464844 519.457031 104.511719 519.882812 103.585938 C 520.316406 102.6875 520.941406 101.945312 521.761719 101.363281 C 522.589844 100.773438 523.5 100.417969 524.5 100.296875 C 525.441406 100.191406 526.324219 100.304688 527.152344 100.640625 C 527.992188 100.976562 528.71875 101.554688 529.324219 102.371094 C 529.695312 102.847656 529.957031 103.371094 530.125 103.941406 C 530.296875 104.507812 530.335938 105.09375 530.246094 105.699219 C 530.164062 106.304688 529.929688 106.832031 529.546875 107.28125 C 529.351562 107.496094 529.121094 107.679688 528.859375 107.832031 C 528.59375 107.992188 528.320312 108.097656 528.023438 108.152344 C 527.734375 108.203125 527.445312 108.195312 527.152344 108.128906 Z M 527.152344 108.128906 " fill-opacity="1" fill-rule="nonzero"/><path fill="#a8d8ea" d="M 47.066406 78.097656 L 47.9375 77.472656 C 49.03125 76.828125 49.804688 76.5 50.257812 76.5 C 51.265625 76.5 52.347656 77.40625 53.511719 79.214844 C 54.222656 80.34375 54.578125 81.25 54.578125 81.929688 C 54.578125 82.609375 54.363281 83.175781 53.929688 83.632812 C 53.492188 84.085938 52.984375 84.492188 52.394531 84.851562 C 51.8125 85.203125 51.253906 85.542969 50.722656 85.871094 C 50.191406 86.1875 49.097656 86.613281 47.445312 87.132812 C 45.800781 87.648438 44.207031 87.90625 42.671875 87.90625 C 41.128906 87.90625 39.578125 87.703125 38.003906 87.304688 C 36.4375 86.898438 34.824219 86.214844 33.15625 85.253906 C 31.484375 84.296875 29.988281 83.132812 28.660156 81.757812 C 27.335938 80.382812 26.242188 78.621094 25.382812 76.476562 C 24.53125 74.324219 24.105469 71.988281 24.105469 69.464844 C 24.105469 66.9375 24.523438 64.648438 25.359375 62.589844 C 26.199219 60.539062 27.277344 58.839844 28.589844 57.496094 C 29.90625 56.15625 31.402344 55.027344 33.082031 54.121094 C 36.253906 52.375 39.445312 51.503906 42.644531 51.503906 C 44.167969 51.503906 45.707031 51.738281 47.273438 52.203125 C 48.847656 52.671875 50.035156 53.148438 50.847656 53.640625 L 52.011719 54.316406 C 52.59375 54.679688 53.042969 54.964844 53.363281 55.1875 C 54.203125 55.871094 54.628906 56.636719 54.628906 57.496094 C 54.628906 58.355469 54.289062 59.25 53.609375 60.183594 C 52.347656 61.9375 51.21875 62.8125 50.222656 62.8125 C 49.632812 62.8125 48.804688 62.457031 47.742188 61.742188 C 46.382812 60.640625 44.566406 60.085938 42.300781 60.085938 C 40.195312 60.085938 38.128906 60.816406 36.089844 62.273438 C 35.121094 62.984375 34.316406 63.992188 33.671875 65.292969 C 33.023438 66.585938 32.699219 68.050781 32.699219 69.6875 C 32.699219 71.316406 33.023438 72.777344 33.671875 74.070312 C 34.316406 75.367188 35.136719 76.386719 36.136719 77.128906 C 38.109375 78.550781 40.164062 79.265625 42.300781 79.265625 C 43.308594 79.265625 44.253906 79.136719 45.136719 78.882812 C 46.027344 78.621094 46.671875 78.363281 47.066406 78.097656 Z M 47.066406 78.097656 " fill-opacity="1" fill-rule="nonzero"/><path fill="#a8d8ea" d="M 92.871094 54.363281 L 105.980469 81.449219 C 106.527344 82.546875 106.804688 83.371094 106.804688 83.917969 C 106.804688 85.089844 105.863281 86.140625 103.980469 87.074219 C 102.882812 87.628906 102.019531 87.90625 101.390625 87.90625 C 100.757812 87.90625 100.238281 87.761719 99.832031 87.464844 C 99.429688 87.171875 99.136719 86.863281 98.960938 86.542969 C 98.785156 86.21875 98.535156 85.730469 98.210938 85.082031 L 95.691406 79.839844 L 82.25 79.839844 L 79.71875 85.082031 C 79.390625 85.730469 79.136719 86.199219 78.957031 86.496094 C 78.785156 86.785156 78.496094 87.082031 78.085938 87.390625 C 77.683594 87.703125 77.167969 87.859375 76.539062 87.859375 C 75.90625 87.859375 75.046875 87.578125 73.949219 87.023438 C 72.066406 86.125 71.125 85.089844 71.125 83.917969 C 71.125 83.371094 71.398438 82.546875 71.949219 81.449219 L 85.0625 54.316406 C 85.410156 53.574219 85.949219 52.976562 86.679688 52.523438 C 87.410156 52.066406 88.179688 51.835938 88.988281 51.835938 C 90.734375 51.835938 92.023438 52.679688 92.871094 54.363281 Z M 88.941406 66.015625 L 85.734375 72.660156 L 92.195312 72.660156 Z M 88.941406 66.015625 " fill-opacity="1" fill-rule="nonzero"/><path fill="#a8d8ea" d="M 151.257812 81.398438 C 151.738281 82.5625 151.980469 83.402344 151.980469 83.917969 C 151.980469 85.152344 150.976562 86.1875 148.972656 87.023438 C 147.933594 87.480469 147.097656 87.710938 146.46875 87.710938 C 145.835938 87.710938 145.316406 87.558594 144.910156 87.257812 C 144.507812 86.945312 144.210938 86.628906 144.023438 86.300781 C 143.695312 85.683594 142.433594 82.761719 140.230469 77.519531 L 138.734375 77.605469 L 132.621094 77.605469 L 132.621094 83.09375 C 132.621094 83.839844 132.59375 84.402344 132.546875 84.777344 C 132.496094 85.144531 132.339844 85.570312 132.078125 86.054688 C 131.628906 86.929688 130.367188 87.367188 128.296875 87.367188 C 126.03125 87.367188 124.703125 86.773438 124.320312 85.574219 C 124.125 85.027344 124.023438 84.183594 124.023438 83.046875 L 124.023438 56.109375 C 124.023438 55.367188 124.050781 54.808594 124.097656 54.4375 C 124.148438 54.0625 124.300781 53.632812 124.566406 53.148438 C 125.011719 52.273438 126.273438 51.835938 128.347656 51.835938 L 138.832031 51.835938 C 141.679688 51.835938 144.445312 52.875 147.132812 54.941406 C 148.421875 55.949219 149.488281 57.3125 150.324219 59.03125 C 151.164062 60.742188 151.589844 62.648438 151.589844 64.75 C 151.589844 68.410156 150.375 71.417969 147.953125 73.777344 C 148.664062 75.496094 149.765625 78.035156 151.257812 81.398438 Z M 132.621094 69.023438 L 138.832031 69.023438 C 139.765625 69.023438 140.699219 68.667969 141.644531 67.957031 C 142.582031 67.246094 143.054688 66.175781 143.054688 64.75 C 143.054688 63.328125 142.582031 62.253906 141.644531 61.523438 C 140.699219 60.796875 139.730469 60.429688 138.734375 60.429688 L 132.621094 60.429688 Z M 132.621094 69.023438 " fill-opacity="1" fill-rule="nonzero"/><path fill="#a8d8ea" d="M 171.539062 51.785156 L 198.523438 51.785156 C 199.554688 51.785156 200.3125 51.910156 200.796875 52.15625 C 201.289062 52.402344 201.609375 52.78125 201.765625 53.296875 C 201.929688 53.8125 202.011719 54.492188 202.011719 55.335938 C 202.011719 56.179688 201.929688 56.851562 201.765625 57.347656 C 201.609375 57.847656 201.335938 58.195312 200.941406 58.390625 C 200.359375 58.6875 199.539062 58.835938 198.476562 58.835938 L 189.207031 58.835938 L 189.207031 83.242188 C 189.207031 83.988281 189.179688 84.539062 189.132812 84.898438 C 189.082031 85.253906 188.9375 85.667969 188.691406 86.140625 C 188.449219 86.605469 188.019531 86.9375 187.402344 87.132812 C 186.789062 87.324219 185.976562 87.417969 184.96875 87.417969 C 183.96875 87.417969 183.171875 87.324219 182.578125 87.132812 C 181.976562 86.9375 181.558594 86.605469 181.3125 86.140625 C 181.070312 85.667969 180.929688 85.242188 180.882812 84.875 C 180.832031 84.5 180.808594 83.9375 180.808594 83.191406 L 180.808594 58.835938 L 171.488281 58.835938 C 170.449219 58.835938 169.6875 58.710938 169.207031 58.464844 C 168.722656 58.21875 168.398438 57.839844 168.234375 57.324219 C 168.070312 56.808594 167.992188 56.128906 167.992188 55.285156 C 167.992188 54.445312 168.070312 53.773438 168.234375 53.273438 C 168.398438 52.773438 168.671875 52.425781 169.058594 52.230469 C 169.640625 51.933594 170.464844 51.785156 171.539062 51.785156 Z M 171.539062 51.785156 " fill-opacity="1" fill-rule="nonzero"/><path fill="#a8d8ea" d="M 239.769531 54.363281 L 252.878906 81.449219 C 253.425781 82.546875 253.703125 83.371094 253.703125 83.917969 C 253.703125 85.089844 252.761719 86.140625 250.878906 87.074219 C 249.78125 87.628906 248.917969 87.90625 248.289062 87.90625 C 247.65625 87.90625 247.136719 87.761719 246.730469 87.464844 C 246.328125 87.171875 246.035156 86.863281 245.855469 86.542969 C 245.683594 86.21875 245.433594 85.730469 245.109375 85.082031 L 242.589844 79.839844 L 229.148438 79.839844 L 226.617188 85.082031 C 226.289062 85.730469 226.035156 86.199219 225.855469 86.496094 C 225.683594 86.785156 225.394531 87.082031 224.984375 87.390625 C 224.582031 87.703125 224.066406 87.859375 223.4375 87.859375 C 222.804688 87.859375 221.945312 87.578125 220.847656 87.023438 C 218.964844 86.125 218.023438 85.089844 218.023438 83.917969 C 218.023438 83.371094 218.296875 82.546875 218.847656 81.449219 L 231.960938 54.316406 C 232.308594 53.574219 232.847656 52.976562 233.578125 52.523438 C 234.308594 52.066406 235.078125 51.835938 235.886719 51.835938 C 237.632812 51.835938 238.921875 52.679688 239.769531 54.363281 Z M 235.839844 66.015625 L 232.632812 72.660156 L 239.09375 72.660156 Z M 235.839844 66.015625 " fill-opacity="1" fill-rule="nonzero"/><path fill="#a8d8ea" d="M 289.460938 65.96875 L 298.007812 65.96875 C 299.75 66.035156 300.820312 66.484375 301.210938 67.316406 C 301.53125 67.941406 301.691406 68.847656 301.691406 70.042969 L 301.691406 80.710938 C 301.691406 81.753906 301.238281 82.746094 300.339844 83.683594 C 297.621094 86.5 293.542969 87.90625 288.097656 87.90625 C 283.277344 87.90625 279.085938 86.085938 275.527344 82.445312 C 271.972656 78.804688 270.199219 74.410156 270.199219 69.269531 C 270.199219 64.121094 272.007812 59.824219 275.625 56.378906 C 279.25 52.933594 283.523438 51.210938 288.441406 51.210938 C 292.265625 51.210938 295.875 52.472656 299.273438 54.992188 C 300.136719 55.640625 300.574219 56.359375 300.574219 57.152344 C 300.574219 57.945312 300.199219 58.863281 299.457031 59.902344 C 298.195312 61.613281 297.050781 62.46875 296.019531 62.46875 C 295.40625 62.46875 294.417969 62.027344 293.058594 61.140625 C 291.699219 60.253906 290.078125 59.804688 288.199219 59.804688 C 285.742188 59.804688 283.558594 60.671875 281.652344 62.40625 C 279.746094 64.136719 278.792969 66.398438 278.792969 69.195312 C 278.792969 71.996094 279.761719 74.375 281.703125 76.328125 C 283.644531 78.289062 285.839844 79.265625 288.296875 79.265625 C 290.078125 79.265625 291.683594 78.976562 293.109375 78.390625 L 293.109375 73.101562 L 289.265625 73.101562 C 288.265625 73.101562 287.554688 72.976562 287.128906 72.71875 C 286.710938 72.460938 286.4375 72.078125 286.308594 71.578125 C 286.175781 71.070312 286.109375 70.394531 286.109375 69.539062 C 286.109375 68.679688 286.183594 67.992188 286.332031 67.476562 C 286.480469 66.957031 286.742188 66.59375 287.128906 66.398438 C 287.71875 66.113281 288.496094 65.96875 289.460938 65.96875 Z M 289.460938 65.96875 " fill-opacity="1" fill-rule="nonzero"/><path fill="#a8d8ea" d="M 328.726562 78.820312 L 343.667969 78.820312 C 344.410156 78.820312 344.96875 78.847656 345.335938 78.894531 C 345.710938 78.945312 346.140625 79.101562 346.625 79.363281 C 347.5 79.8125 347.941406 81.074219 347.941406 83.144531 C 347.941406 85.410156 347.34375 86.738281 346.148438 87.121094 C 345.597656 87.316406 344.753906 87.417969 343.617188 87.417969 L 324.40625 87.417969 C 322.136719 87.417969 320.808594 86.800781 320.425781 85.574219 C 320.230469 85.058594 320.132812 84.234375 320.132812 83.09375 L 320.132812 56.109375 C 320.132812 54.464844 320.4375 53.34375 321.054688 52.746094 C 321.667969 52.140625 322.832031 51.835938 324.550781 51.835938 L 343.667969 51.835938 C 344.410156 51.835938 344.96875 51.859375 345.335938 51.910156 C 345.710938 51.957031 346.140625 52.117188 346.625 52.375 C 347.5 52.828125 347.941406 54.089844 347.941406 56.15625 C 347.941406 58.425781 347.34375 59.75 346.148438 60.136719 C 345.597656 60.332031 344.753906 60.429688 343.617188 60.429688 L 328.726562 60.429688 L 328.726562 65.328125 L 338.328125 65.328125 C 339.070312 65.328125 339.628906 65.351562 339.996094 65.402344 C 340.371094 65.453125 340.808594 65.609375 341.296875 65.871094 C 342.164062 66.320312 342.601562 67.582031 342.601562 69.652344 C 342.601562 71.917969 341.984375 73.246094 340.757812 73.628906 C 340.207031 73.824219 339.371094 73.921875 338.242188 73.921875 L 328.726562 73.921875 Z M 328.726562 78.820312 " fill-opacity="1" fill-rule="nonzero"/><path fill="#a8d8ea" d="M 388.625 53.320312 C 388.933594 52.757812 389.398438 52.375 390.011719 52.179688 C 390.632812 51.984375 391.402344 51.886719 392.320312 51.886719 C 393.242188 51.886719 393.988281 51.96875 394.554688 52.128906 C 395.117188 52.296875 395.539062 52.492188 395.820312 52.71875 C 396.09375 52.941406 396.296875 53.28125 396.421875 53.738281 C 396.617188 54.253906 396.714844 55.078125 396.714844 56.207031 L 396.714844 83.144531 C 396.714844 83.921875 396.691406 84.492188 396.640625 84.851562 C 396.59375 85.203125 396.4375 85.621094 396.1875 86.101562 C 395.726562 86.980469 394.460938 87.417969 392.394531 87.417969 C 391.132812 87.417969 390.257812 87.324219 389.765625 87.132812 C 389.28125 86.9375 388.882812 86.628906 388.5625 86.199219 C 381.285156 76.496094 376.496094 70.152344 374.199219 67.183594 L 374.199219 83.144531 C 374.199219 83.921875 374.171875 84.492188 374.125 84.851562 C 374.074219 85.203125 373.917969 85.621094 373.65625 86.101562 C 373.207031 86.980469 371.945312 87.417969 369.875 87.417969 C 367.867188 87.417969 366.640625 86.980469 366.191406 86.101562 C 365.929688 85.621094 365.777344 85.1875 365.726562 84.800781 C 365.675781 84.40625 365.652344 83.839844 365.652344 83.09375 L 365.652344 56.011719 C 365.652344 54.78125 365.804688 53.886719 366.105469 53.320312 C 366.417969 52.757812 366.878906 52.375 367.496094 52.179688 C 368.109375 51.984375 368.898438 51.886719 369.875 51.886719 C 370.847656 51.886719 371.621094 51.976562 372.183594 52.15625 C 372.75 52.335938 373.144531 52.542969 373.375 52.769531 C 373.5 52.859375 373.871094 53.277344 374.492188 54.019531 C 381.320312 63.3125 385.878906 69.449219 388.167969 72.425781 L 388.167969 56.011719 C 388.167969 54.78125 388.320312 53.886719 388.625 53.320312 Z M 388.625 53.320312 " fill-opacity="1" fill-rule="nonzero"/><path fill="#a8d8ea" d="M 415.152344 56.109375 C 415.152344 55.367188 415.175781 54.808594 415.226562 54.4375 C 415.277344 54.0625 415.429688 53.632812 415.691406 53.148438 C 416.140625 52.273438 417.402344 51.835938 419.472656 51.835938 C 421.738281 51.835938 423.085938 52.4375 423.5 53.640625 C 423.664062 54.191406 423.746094 55.027344 423.746094 56.15625 L 423.746094 83.144531 C 423.746094 83.921875 423.722656 84.492188 423.671875 84.851562 C 423.625 85.203125 423.46875 85.621094 423.207031 86.101562 C 422.753906 86.980469 421.492188 87.417969 419.425781 87.417969 C 417.15625 87.417969 415.832031 86.800781 415.449219 85.574219 C 415.25 85.058594 415.152344 84.234375 415.152344 83.09375 Z M 415.152344 56.109375 " fill-opacity="1" fill-rule="nonzero"/><path fill="#a8d8ea" d="M 444.515625 51.785156 L 471.503906 51.785156 C 472.535156 51.785156 473.289062 51.910156 473.773438 52.15625 C 474.265625 52.402344 474.589844 52.78125 474.746094 53.296875 C 474.90625 53.8125 474.988281 54.492188 474.988281 55.335938 C 474.988281 56.179688 474.90625 56.851562 474.746094 57.347656 C 474.589844 57.847656 474.316406 58.195312 473.921875 58.390625 C 473.339844 58.6875 472.515625 58.835938 471.453125 58.835938 L 462.183594 58.835938 L 462.183594 83.242188 C 462.183594 83.988281 462.160156 84.539062 462.109375 84.898438 C 462.0625 85.253906 461.914062 85.667969 461.667969 86.140625 C 461.429688 86.605469 461 86.9375 460.378906 87.132812 C 459.765625 87.324219 458.957031 87.417969 457.949219 87.417969 C 456.949219 87.417969 456.148438 87.324219 455.554688 87.132812 C 454.957031 86.9375 454.535156 86.605469 454.289062 86.140625 C 454.050781 85.667969 453.910156 85.242188 453.859375 84.875 C 453.8125 84.5 453.785156 83.9375 453.785156 83.191406 L 453.785156 58.835938 L 444.46875 58.835938 C 443.429688 58.835938 442.667969 58.710938 442.183594 58.464844 C 441.699219 58.21875 441.378906 57.839844 441.214844 57.324219 C 441.050781 56.808594 440.96875 56.128906 440.96875 55.285156 C 440.96875 54.445312 441.050781 53.773438 441.214844 53.273438 C 441.378906 52.773438 441.652344 52.425781 442.039062 52.230469 C 442.617188 51.933594 443.441406 51.785156 444.515625 51.785156 Z M 444.515625 51.785156 " fill-opacity="1" fill-rule="nonzero"/><path fill="#a8d8ea" d="M 512.746094 54.363281 L 525.859375 81.449219 C 526.40625 82.546875 526.679688 83.371094 526.679688 83.917969 C 526.679688 85.089844 525.738281 86.140625 523.859375 87.074219 C 522.757812 87.628906 521.894531 87.90625 521.265625 87.90625 C 520.632812 87.90625 520.117188 87.761719 519.707031 87.464844 C 519.304688 87.171875 519.015625 86.863281 518.835938 86.542969 C 518.664062 86.21875 518.414062 85.730469 518.085938 85.082031 L 515.570312 79.839844 L 502.125 79.839844 L 499.597656 85.082031 C 499.269531 85.730469 499.015625 86.199219 498.835938 86.496094 C 498.664062 86.785156 498.371094 87.082031 497.964844 87.390625 C 497.5625 87.703125 497.046875 87.859375 496.417969 87.859375 C 495.785156 87.859375 494.921875 87.578125 493.828125 87.023438 C 491.941406 86.125 491.003906 85.089844 491.003906 83.917969 C 491.003906 83.371094 491.277344 82.546875 491.824219 81.449219 L 504.9375 54.316406 C 505.289062 53.574219 505.828125 52.976562 506.558594 52.523438 C 507.285156 52.066406 508.054688 51.835938 508.867188 51.835938 C 510.609375 51.835938 511.902344 52.679688 512.746094 54.363281 Z M 508.816406 66.015625 L 505.613281 72.660156 L 512.070312 72.660156 Z M 508.816406 66.015625 " fill-opacity="1" fill-rule="nonzero"/></svg>