<svg xmlns="http://www.w3.org/2000/svg" xmlns:xlink="http://www.w3.org/1999/xlink" width="576" zoomAndPan="magnify" viewBox="0 0 432 149.999998" height="200" preserveAspectRatio="xMidYMid meet" version="1.0"><defs><g/><clipPath id="8697847c5d"><path d="M 25 98 L 132 98 L 132 118.175781 L 25 118.175781 Z M 25 98 " clip-rule="nonzero"/></clipPath><clipPath id="5421ccbb7e"><path d="M 129 28 L 165 28 L 165 118.175781 L 129 118.175781 Z M 129 28 " clip-rule="nonzero"/></clipPath></defs><g clip-path="url(#8697847c5d)"><path fill="#ffd4b8" d="M 28.1875 118.0625 C 23.984375 111.726562 24.597656 103.402344 27.90625 98.851562 C 61.035156 99.046875 94.324219 98.65625 127.453125 98.851562 C 128.121094 98.855469 128.816406 98.871094 129.394531 99.195312 C 130.15625 99.628906 130.527344 100.511719 130.808594 101.339844 C 131.765625 104.128906 132.582031 114.769531 129.402344 116.648438 C 128.867188 116.960938 128.214844 117 127.585938 117.019531 C 100.210938 118.03125 72.8125 118.269531 45.425781 118.011719 Z M 28.1875 118.0625 " fill-opacity="1" fill-rule="nonzero"/></g><path stroke-linecap="round" transform="matrix(0.628426, 0, 0, 0.628426, -40.091072, -60.178698)" fill="none" stroke-linejoin="round" d="M 121.343062 281.648286 C 118.570759 272.007384 118.521031 261.601922 121.200096 251.92994 " stroke="#365fa0" stroke-width="0.835" stroke-opacity="1" stroke-miterlimit="10"/><path stroke-linecap="round" transform="matrix(0.628426, 0, 0, 0.628426, -40.091072, -60.178698)" fill="none" stroke-linejoin="round" d="M 238.618953 281.741525 C 240.738584 271.758747 240.831823 263.901815 238.942181 253.869309 " stroke="#365fa0" stroke-width="0.835" stroke-opacity="1" stroke-miterlimit="10"/><path stroke-linecap="round" transform="matrix(0.628426, 0, 0, 0.628426, -40.091072, -60.178698)" fill="none" stroke-linejoin="round" d="M 231.091466 281.101285 C 232.850573 273.362456 232.819494 263.690474 230.992011 255.957861 " stroke="#365fa0" stroke-width="0.835" stroke-opacity="1" stroke-miterlimit="10"/><path stroke-linecap="round" transform="matrix(0.628426, 0, 0, 0.628426, -40.091072, -60.178698)" fill="none" stroke-linejoin="round" d="M 131.767171 271.740099 C 134.371645 270.496914 136.478844 268.29026 137.610142 265.642275 C 136.441548 267.482189 137.230971 270.590153 139.400329 270.789062 C 140.867288 270.932029 142.122905 269.707491 142.819089 268.420794 C 143.521489 267.127881 143.913092 265.648491 144.851697 264.510976 C 144.329559 266.009015 144.279832 267.668667 144.702515 269.210217 C 144.80197 269.570741 144.93872 269.949912 145.249517 270.148822 C 145.64112 270.409891 146.150826 270.310436 146.592157 270.192333 C 149.917678 269.247512 152.832947 266.922756 154.480168 263.876952 C 154.082349 265.468229 154.088564 267.171393 154.511247 268.750238 C 154.641782 269.259944 154.877987 269.83181 155.387693 269.99964 C 155.810376 270.142606 156.257923 269.962344 156.649526 269.751002 C 158.881044 268.582408 160.708527 266.649255 161.759018 264.361794 C 161.57254 265.549036 161.392278 266.792221 161.74037 267.942168 C 162.088462 269.092114 163.157602 270.117742 164.357276 270.018287 C 164.96022 269.96856 165.501006 269.651548 166.010712 269.309672 C 167.931433 268.029191 169.622166 266.41305 170.977238 264.560704 C 171.188579 265.592547 170.796976 266.649255 170.741032 267.699747 C 170.678873 268.750238 171.201011 270.030719 172.251503 270.130174 C 172.860663 270.192333 173.432529 269.806946 173.911155 269.440206 C 175.577023 268.159725 177.099926 266.692767 178.442566 265.07041 C 178.137985 265.897128 177.852053 266.767358 177.982587 267.650019 C 178.106906 268.520249 178.821737 269.371831 179.698183 269.359399 C 180.307344 269.346967 180.841913 268.949148 181.308108 268.557545 C 182.557509 267.519485 183.738535 266.400618 184.838754 265.219592 C 183.769615 266.151981 184.018252 268.06027 185.149551 268.911852 C 186.287065 269.751002 187.971582 269.589388 189.109096 268.76267 C 190.259043 267.929736 190.917931 266.568448 191.197648 265.182296 " stroke="#365fa0" stroke-width="0.835" stroke-opacity="1" stroke-miterlimit="10"/><path fill="#d5ecc2" d="M 36.054688 98.769531 C 34.246094 96.167969 34.390625 90.59375 35.824219 87.996094 C 63.511719 88.109375 91.015625 86.457031 118.707031 86.570312 C 119.265625 86.570312 119.851562 86.578125 120.332031 86.765625 C 120.96875 87.011719 121.277344 87.5 121.515625 87.964844 C 122.3125 89.53125 122.878906 97.636719 120.21875 98.695312 C 119.773438 98.871094 119.226562 98.886719 118.707031 98.902344 C 95.832031 99.464844 73.359375 98.886719 50.472656 98.742188 Z M 36.054688 98.769531 " fill-opacity="1" fill-rule="nonzero"/><path stroke-linecap="round" transform="matrix(0.628426, 0, 0, 0.628426, -40.091072, -60.178698)" fill="none" stroke-linejoin="round" d="M 142.066962 248.87792 C 145.802734 249.207364 150.390088 249.499513 153.541563 247.479337 C 155.33175 246.32939 156.898163 244.358941 155.549307 242.357413 C 153.871007 239.85861 150.197394 239.871042 147.530762 239.72186 C 142.470997 239.442143 136.279934 239.379984 131.959865 242.419572 C 126.371747 246.32939 139.593023 248.660363 142.066962 248.87792 Z M 142.066962 248.87792 " stroke="#365fa0" stroke-width="0.835" stroke-opacity="1" stroke-miterlimit="10"/><path stroke-linecap="round" transform="matrix(0.628426, 0, 0, 0.628426, -40.091072, -60.178698)" fill="none" stroke-linejoin="round" d="M 161.087698 249.170069 C 160.758254 246.086969 160.422594 242.997653 160.086934 239.92077 " stroke="#365fa0" stroke-width="0.835" stroke-opacity="1" stroke-miterlimit="10"/><path stroke-linecap="round" transform="matrix(0.628426, 0, 0, 0.628426, -40.091072, -60.178698)" fill="none" stroke-linejoin="round" d="M 164.48781 249.760582 C 164.027831 246.111833 163.779194 242.43822 163.760547 238.758391 " stroke="#365fa0" stroke-width="0.835" stroke-opacity="1" stroke-miterlimit="10"/><path stroke-linecap="round" transform="matrix(0.628426, 0, 0, 0.628426, -40.091072, -60.178698)" fill="none" stroke-linejoin="round" d="M 240.061048 248.977375 C 240.116992 245.962651 240.011321 242.929278 239.712956 239.92077 " stroke="#365fa0" stroke-width="0.835" stroke-opacity="1" stroke-miterlimit="10"/><path stroke-linecap="round" transform="matrix(0.628426, 0, 0, 0.628426, -40.091072, -60.178698)" fill="none" stroke-linejoin="round" d="M 243.939787 248.790897 C 243.740877 245.048909 243.442513 241.306921 243.019829 237.577365 " stroke="#365fa0" stroke-width="0.835" stroke-opacity="1" stroke-miterlimit="10"/><path fill="#ffb9b9" d="M 25.019531 87.917969 C 21.054688 80.066406 21.632812 69.765625 24.757812 64.128906 C 55.976562 64.375 87.339844 63.886719 118.5625 64.128906 C 119.191406 64.136719 119.851562 64.148438 120.394531 64.5625 C 121.113281 65.105469 121.464844 66.183594 121.730469 67.214844 C 122.628906 70.671875 123.398438 83.84375 120.402344 86.167969 C 119.894531 86.566406 119.285156 86.601562 118.691406 86.628906 C 92.902344 87.882812 67.082031 88.175781 41.277344 87.851562 Z M 25.019531 87.917969 " fill-opacity="1" fill-rule="nonzero"/><path stroke-linecap="round" transform="matrix(0.628426, 0, 0, 0.628426, -40.091072, -60.178698)" fill="none" stroke-linejoin="round" d="M 115.618193 226.407345 C 121.890064 226.357617 128.149502 226.332754 134.421372 226.332754 C 133.967609 219.830894 133.520063 213.329035 133.072516 206.820959 C 133.047652 206.572322 133.029004 206.298822 132.86739 206.099912 C 132.662265 205.832627 132.283093 205.7829 131.941217 205.739388 C 126.029871 205.192387 120.087445 205.061852 114.169882 205.372648 C 114.729316 210.301878 115.643057 215.212461 115.643057 220.17277 Z M 115.618193 226.407345 " stroke="#365fa0" stroke-width="0.835" stroke-opacity="1" stroke-miterlimit="10"/><path stroke-linecap="round" transform="matrix(0.628426, 0, 0, 0.628426, -40.091072, -60.178698)" fill="none" stroke-linejoin="round" d="M 142.141553 216.039179 C 142.340463 217.630456 143.987683 218.879857 145.572745 218.649868 C 147.15159 218.419879 148.382344 216.747794 148.121275 215.168949 C 148.960425 216.64834 150.191178 218.071787 151.857047 218.370151 C 153.529131 218.668516 155.49958 217.251285 155.170136 215.591632 C 156.208195 216.872113 157.731098 217.978548 159.372102 217.798286 C 161.006891 217.618024 162.368179 215.5792 161.398494 214.242776 C 162.41169 215.722167 163.549205 217.307228 165.271017 217.79207 C 166.992829 218.276912 169.24921 216.847249 168.807879 215.119222 C 169.802427 216.729147 171.337761 217.997196 173.121732 218.637436 C 173.749541 217.251285 174.122497 215.740814 174.20952 214.211696 C 175.962411 215.628928 177.050198 218.612573 179.269284 218.220969 C 180.388151 218.022059 181.171358 216.878329 181.270812 215.740814 C 181.370267 214.597084 180.928936 213.490649 180.388151 212.477453 " stroke="#365fa0" stroke-width="0.835" stroke-opacity="1" stroke-miterlimit="10"/><path stroke-linecap="round" transform="matrix(0.628426, 0, 0, 0.628426, -40.091072, -60.178698)" fill="none" stroke-linejoin="round" d="M 214.072258 225.860343 C 214.501157 219.86819 214.58818 213.851173 214.327111 207.852803 " stroke="#365fa0" stroke-width="0.835" stroke-opacity="1" stroke-miterlimit="10"/><path stroke-linecap="round" transform="matrix(0.628426, 0, 0, 0.628426, -40.091072, -60.178698)" fill="none" stroke-linejoin="round" d="M 220.990585 225.207671 C 220.630061 219.209302 220.257105 213.210932 219.902798 207.218779 " stroke="#365fa0" stroke-width="0.835" stroke-opacity="1" stroke-miterlimit="10"/><path stroke-linecap="round" transform="matrix(0.628426, 0, 0, 0.628426, -40.091072, -60.178698)" fill="none" stroke-linejoin="round" d="M 226.068997 225.331989 C 226.162236 219.327404 226.249259 212.800681 226.348714 206.802312 C 233.29812 206.802312 240.962358 208.138736 248.290935 207.840371 C 249.39737 210.332958 249.90086 213.490649 249.882213 216.070258 C 249.857349 219.140926 249.39737 221.701888 248.147969 224.791204 C 242.541203 224.697965 236.909573 224.791204 231.321455 225.338205 L 226.068997 225.338205 Z M 226.068997 225.331989 " stroke="#365fa0" stroke-width="0.835" stroke-opacity="1" stroke-miterlimit="10"/><path fill="#a8d8ea" d="M 40.742188 64.105469 C 37.085938 58.214844 37.613281 49.613281 40.675781 45.496094 C 70.429688 46.289062 100.332031 46.535156 130.085938 47.324219 C 130.683594 47.34375 131.3125 47.363281 131.828125 47.679688 C 132.5 48.09375 132.820312 48.902344 133.058594 49.671875 C 133.863281 52.246094 134.398438 62.023438 131.507812 63.691406 C 131.015625 63.972656 130.433594 63.984375 129.871094 64 C 105.269531 64.425781 81.957031 64.828125 57.363281 64.09375 Z M 40.742188 64.105469 " fill-opacity="1" fill-rule="nonzero"/><path stroke-linecap="round" transform="matrix(0.628426, 0, 0, 0.628426, -40.091072, -60.178698)" fill-opacity="1" fill="#a8d8ea" fill-rule="nonzero" stroke-linejoin="round" d="M 270.450715 197.60274 C 246.189952 198.019207 222.718612 198.429458 199.060795 198.398379 C 184.54039 198.379731 169.95161 198.199469 155.070681 197.751922 " stroke="#365fa0" stroke-width="0.835" stroke-opacity="1" stroke-miterlimit="10"/><path stroke-linecap="round" transform="matrix(0.628426, 0, 0, 0.628426, -40.091072, -60.178698)" fill="none" stroke-linejoin="round" d="M 128.522457 168.157895 C 156.071445 168.891374 183.688808 169.332705 211.312387 169.817547 C 220.101707 169.972945 228.878596 170.128343 237.661701 170.308605 C 248.707403 170.532379 259.75932 170.781016 270.798806 171.066948 C 271.749843 171.098028 272.750607 171.129108 273.57111 171.632598 C 274.640249 172.291486 275.149955 173.578183 275.529127 174.80272 " stroke="#365fa0" stroke-width="0.835" stroke-opacity="1" stroke-miterlimit="10"/><path stroke-linecap="round" transform="matrix(0.628426, 0, 0, 0.628426, -40.091072, -60.178698)" fill="none" stroke-linejoin="round" d="M 171.381273 190.939266 C 171.120204 185.891934 170.871567 180.832169 170.610498 175.778621 " stroke="#365fa0" stroke-width="0.835" stroke-opacity="1" stroke-miterlimit="10"/><path stroke-linecap="round" transform="matrix(0.628426, 0, 0, 0.628426, -40.091072, -60.178698)" fill="none" stroke-linejoin="round" d="M 175.01759 191.977326 C 174.65085 185.997605 174.507884 179.980587 174.601123 173.969786 " stroke="#365fa0" stroke-width="0.835" stroke-opacity="1" stroke-miterlimit="10"/><path stroke-linecap="round" transform="matrix(0.628426, 0, 0, 0.628426, -40.091072, -60.178698)" fill="none" stroke-linejoin="round" d="M 256.259754 192.368929 C 256.427584 187.421052 256.40272 182.466958 256.191378 177.531512 " stroke="#365fa0" stroke-width="0.835" stroke-opacity="1" stroke-miterlimit="10"/><path stroke-linecap="round" transform="matrix(0.628426, 0, 0, 0.628426, -40.091072, -60.178698)" fill="none" stroke-linejoin="round" d="M 260.430641 192.13894 C 260.337402 186.010036 260.138492 179.887348 259.82148 173.777092 " stroke="#365fa0" stroke-width="0.835" stroke-opacity="1" stroke-miterlimit="10"/><path stroke-linecap="round" transform="matrix(0.628426, 0, 0, 0.628426, -40.091072, -60.178698)" fill-opacity="1" fill="#d5ecc2" fill-rule="nonzero" stroke-linejoin="round" d="M 181.028391 192.971874 C 180.978664 187.04188 181.45729 180.440566 181.407563 174.510572 C 190.942795 174.821368 208.098753 175.107301 218.069099 175.318642 C 218.659612 181.372955 218.03802 186.880266 217.689928 193.730217 C 208.832232 193.549956 198.899181 193.351046 186.579214 193.089977 Z M 181.028391 192.971874 " stroke="#365fa0" stroke-width="0.835" stroke-opacity="1" stroke-miterlimit="10"/><path stroke-linecap="round" transform="matrix(0.628426, 0, 0, 0.628426, -40.091072, -60.178698)" fill="none" stroke-linejoin="round" d="M 163.101658 191.461404 C 160.857709 189.982014 158.247019 188.999897 155.543091 188.620726 C 157.109505 188.900442 158.75051 188.807203 160.267196 188.372089 C 160.727174 188.229122 161.249312 187.999133 161.330119 187.551586 C 161.398494 187.178631 161.137425 186.830539 160.870141 186.557038 C 159.396966 185.02792 157.240039 184.107963 155.039601 184.058235 C 156.829788 184.250929 158.657271 184.083099 160.379082 183.579609 C 161.249312 183.31854 162.218997 182.790186 162.212781 181.938604 C 162.187917 181.149182 161.330119 180.651907 160.546912 180.328679 C 159.160761 179.76303 157.71245 179.327915 156.233059 179.029551 C 158.178644 179.551688 160.490969 179.999235 162.038735 178.787129 C 162.927612 178.090946 162.299804 176.791817 161.709291 176.101849 C 160.919868 175.16946 159.58966 174.678402 158.371338 174.479492 " stroke="#365fa0" stroke-width="0.835" stroke-opacity="1" stroke-miterlimit="10"/><g clip-path="url(#5421ccbb7e)"><path fill="#ffb9b9" d="M 130.113281 32.023438 C 129.734375 32.664062 129.804688 35.699219 130.261719 38.019531 C 131.363281 43.574219 132.128906 50.5 133.121094 56.097656 C 136.847656 77.113281 139.480469 94.949219 143.8125 115.867188 C 143.976562 116.652344 144.1875 117.507812 144.84375 117.972656 C 145.421875 118.382812 146.1875 118.355469 146.898438 118.332031 C 152.445312 118.15625 163.820312 116.320312 164.667969 114.066406 C 165.914062 112.511719 157.417969 75.78125 156.664062 72.011719 C 155.136719 64.402344 154.078125 57.921875 152.667969 50.285156 C 151.804688 45.609375 150.417969 38.527344 149.277344 33.847656 C 147.746094 27.503906 145.691406 27.40625 133.273438 30.484375 C 131.609375 30.898438 130.402344 31.535156 130.113281 32.023438 Z M 130.113281 32.023438 " fill-opacity="1" fill-rule="nonzero"/></g><path stroke-linecap="round" transform="matrix(0.628426, 0, 0, 0.628426, -40.091072, -60.178698)" fill="none" stroke-linejoin="round" d="M 273.931634 167.443063 C 282.801761 164.179701 292.05106 161.917104 301.430894 160.71743 " stroke="#365fa0" stroke-width="0.624" stroke-opacity="1" stroke-miterlimit="10"/><path stroke-linecap="round" transform="matrix(0.628426, 0, 0, 0.628426, -40.091072, -60.178698)" fill="none" stroke-linejoin="round" d="M 277.499576 187.812655 C 287.128046 185.630865 296.750301 183.442859 306.378772 181.261068 " stroke="#365fa0" stroke-width="0.624" stroke-opacity="1" stroke-miterlimit="10"/><path fill="#ffd4b8" d="M 138.4375 63.878906 C 139.527344 70.167969 141.050781 78.351562 142.277344 84.390625 C 142.308594 84.558594 142.367188 84.742188 142.511719 84.84375 C 142.660156 84.949219 142.867188 84.9375 143.050781 84.914062 C 147.042969 84.414062 150.875 83.277344 154.867188 82.78125 C 153.019531 75.292969 152.640625 69.238281 150.792969 61.742188 C 144.019531 62.910156 138.4375 63.878906 138.4375 63.878906 Z M 138.4375 63.878906 " fill-opacity="1" fill-rule="nonzero"/><path stroke-linecap="round" transform="matrix(0.628426, 0, 0, 0.628426, -40.091072, -60.178698)" fill="none" stroke-linejoin="round" d="M 289.83819 262.012174 C 299.678002 260.147396 309.517815 258.301265 319.357627 256.442703 " stroke="#365fa0" stroke-width="0.624" stroke-opacity="1" stroke-miterlimit="10"/><path stroke-linecap="round" transform="matrix(0.628426, 0, 0, 0.628426, -40.091072, -60.178698)" fill="none" stroke-linejoin="round" d="M 290.7395 239.038108 C 291.560002 238.217606 292.088356 237.117387 292.212674 235.96744 C 292.262402 236.520658 292.312129 237.092523 292.610494 237.552502 C 292.908858 238.01248 293.549099 238.298413 294.027725 238.037344 C 294.301226 237.888162 294.469056 237.602229 294.618238 237.328728 C 295.009841 236.589033 295.339286 235.83069 295.612786 235.041267 C 295.799264 235.712587 296.041685 236.452283 296.619766 236.831454 C 297.297302 237.279001 298.260771 237.092523 298.869932 236.551737 C 299.479093 236.010952 299.802321 235.209097 299.970151 234.419674 C 299.75881 235.308552 300.548232 236.228509 301.461973 236.359044 C 302.369499 236.489578 303.270808 235.99852 303.879969 235.308552 C 304.482914 234.618584 304.837222 233.748354 305.179098 232.902988 C 305.092075 233.61782 305.309632 234.401027 305.83177 234.898301 C 306.360124 235.401791 307.199274 235.588269 307.851946 235.258825 C 308.268413 235.047483 308.572994 234.662096 308.858926 234.28914 C 309.561326 233.381615 310.282374 232.430578 310.468851 231.299279 " stroke="#365fa0" stroke-width="0.624" stroke-opacity="1" stroke-miterlimit="10"/><g fill="#a8d8ea" fill-opacity="1"><g transform="translate(184.187923, 60.554371)"><g><path d="M 14.1875 -20.3125 C 14.34375 -20.601562 14.601562 -20.804688 14.96875 -20.921875 C 15.332031 -21.035156 15.789062 -21.09375 16.34375 -21.09375 C 16.90625 -21.09375 17.347656 -21.046875 17.671875 -20.953125 C 17.992188 -20.859375 18.238281 -20.742188 18.40625 -20.609375 C 18.582031 -20.472656 18.722656 -20.28125 18.828125 -20.03125 C 18.921875 -19.707031 18.96875 -19.207031 18.96875 -18.53125 L 18.96875 -2.5625 C 18.96875 -2.125 18.953125 -1.789062 18.921875 -1.5625 C 18.890625 -1.34375 18.800781 -1.09375 18.65625 -0.8125 C 18.382812 -0.289062 17.632812 -0.03125 16.40625 -0.03125 C 15.0625 -0.03125 14.273438 -0.382812 14.046875 -1.09375 C 13.929688 -1.414062 13.875 -1.914062 13.875 -2.59375 L 13.875 -8.4375 L 6.25 -8.4375 L 6.25 -2.5625 C 6.25 -2.125 6.234375 -1.789062 6.203125 -1.5625 C 6.171875 -1.34375 6.078125 -1.09375 5.921875 -0.8125 C 5.660156 -0.289062 4.914062 -0.03125 3.6875 -0.03125 C 2.34375 -0.03125 1.554688 -0.382812 1.328125 -1.09375 C 1.210938 -1.414062 1.15625 -1.914062 1.15625 -2.59375 L 1.15625 -18.5625 C 1.15625 -19 1.164062 -19.328125 1.1875 -19.546875 C 1.21875 -19.773438 1.3125 -20.03125 1.46875 -20.3125 C 1.738281 -20.832031 2.488281 -21.09375 3.71875 -21.09375 C 5.0625 -21.09375 5.859375 -20.738281 6.109375 -20.03125 C 6.203125 -19.707031 6.25 -19.207031 6.25 -18.53125 L 6.25 -12.65625 L 13.875 -12.65625 L 13.875 -18.5625 C 13.875 -19 13.882812 -19.328125 13.90625 -19.546875 C 13.9375 -19.773438 14.03125 -20.03125 14.1875 -20.3125 Z M 14.1875 -20.3125 "/></g></g></g><g fill="#a8d8ea" fill-opacity="1"><g transform="translate(212.355671, 60.554371)"><g><path d="M 1.15625 -18.5625 C 1.15625 -19 1.164062 -19.328125 1.1875 -19.546875 C 1.21875 -19.773438 1.3125 -20.03125 1.46875 -20.3125 C 1.738281 -20.832031 2.488281 -21.09375 3.71875 -21.09375 C 5.0625 -21.09375 5.859375 -20.738281 6.109375 -20.03125 C 6.203125 -19.707031 6.25 -19.207031 6.25 -18.53125 L 6.25 -2.53125 C 6.25 -2.070312 6.234375 -1.734375 6.203125 -1.515625 C 6.171875 -1.304688 6.078125 -1.0625 5.921875 -0.78125 C 5.660156 -0.257812 4.914062 0 3.6875 0 C 2.34375 0 1.554688 -0.363281 1.328125 -1.09375 C 1.210938 -1.394531 1.15625 -1.882812 1.15625 -2.5625 Z M 1.15625 -18.5625 "/></g></g></g><g fill="#a8d8ea" fill-opacity="1"><g transform="translate(227.807534, 60.554371)"><g><path d="M 1.46875 -2.96875 C 0.96875 -3.582031 0.71875 -4.132812 0.71875 -4.625 C 0.71875 -5.113281 1.128906 -5.757812 1.953125 -6.5625 C 2.429688 -7.019531 2.9375 -7.25 3.46875 -7.25 C 4.007812 -7.25 4.765625 -6.769531 5.734375 -5.8125 C 5.992188 -5.488281 6.375 -5.175781 6.875 -4.875 C 7.375 -4.582031 7.835938 -4.4375 8.265625 -4.4375 C 10.046875 -4.4375 10.9375 -5.164062 10.9375 -6.625 C 10.9375 -7.0625 10.691406 -7.425781 10.203125 -7.71875 C 9.710938 -8.019531 9.101562 -8.238281 8.375 -8.375 C 7.644531 -8.507812 6.859375 -8.722656 6.015625 -9.015625 C 5.171875 -9.316406 4.382812 -9.664062 3.65625 -10.0625 C 2.925781 -10.46875 2.316406 -11.109375 1.828125 -11.984375 C 1.335938 -12.859375 1.09375 -13.910156 1.09375 -15.140625 C 1.09375 -16.828125 1.71875 -18.296875 2.96875 -19.546875 C 4.226562 -20.804688 5.941406 -21.4375 8.109375 -21.4375 C 9.265625 -21.4375 10.316406 -21.285156 11.265625 -20.984375 C 12.210938 -20.691406 12.867188 -20.394531 13.234375 -20.09375 L 13.953125 -19.546875 C 14.546875 -18.984375 14.84375 -18.507812 14.84375 -18.125 C 14.84375 -17.75 14.613281 -17.222656 14.15625 -16.546875 C 13.507812 -15.585938 12.835938 -15.109375 12.140625 -15.109375 C 11.742188 -15.109375 11.25 -15.300781 10.65625 -15.6875 C 10.59375 -15.726562 10.476562 -15.820312 10.3125 -15.96875 C 10.15625 -16.125 10.007812 -16.25 9.875 -16.34375 C 9.46875 -16.59375 8.953125 -16.71875 8.328125 -16.71875 C 7.703125 -16.71875 7.179688 -16.566406 6.765625 -16.265625 C 6.359375 -15.972656 6.15625 -15.5625 6.15625 -15.03125 C 6.15625 -14.507812 6.398438 -14.082031 6.890625 -13.75 C 7.378906 -13.425781 7.988281 -13.207031 8.71875 -13.09375 C 9.445312 -12.976562 10.242188 -12.800781 11.109375 -12.5625 C 11.972656 -12.320312 12.769531 -12.03125 13.5 -11.6875 C 14.226562 -11.34375 14.835938 -10.742188 15.328125 -9.890625 C 15.816406 -9.035156 16.0625 -7.984375 16.0625 -6.734375 C 16.0625 -5.484375 15.8125 -4.382812 15.3125 -3.4375 C 14.8125 -2.488281 14.160156 -1.753906 13.359375 -1.234375 C 11.796875 -0.222656 10.132812 0.28125 8.375 0.28125 C 7.46875 0.28125 6.613281 0.171875 5.8125 -0.046875 C 5.007812 -0.265625 4.359375 -0.535156 3.859375 -0.859375 C 2.835938 -1.472656 2.128906 -2.066406 1.734375 -2.640625 Z M 1.46875 -2.96875 "/></g></g></g><g fill="#a8d8ea" fill-opacity="1"><g transform="translate(252.638082, 60.554371)"><g><path d="M 2.53125 -21.125 L 18.53125 -21.125 C 19.144531 -21.125 19.59375 -21.050781 19.875 -20.90625 C 20.164062 -20.757812 20.359375 -20.53125 20.453125 -20.21875 C 20.554688 -19.914062 20.609375 -19.515625 20.609375 -19.015625 C 20.609375 -18.523438 20.554688 -18.128906 20.453125 -17.828125 C 20.359375 -17.535156 20.195312 -17.332031 19.96875 -17.21875 C 19.625 -17.039062 19.132812 -16.953125 18.5 -16.953125 L 13.015625 -16.953125 L 13.015625 -2.46875 C 13.015625 -2.03125 13 -1.707031 12.96875 -1.5 C 12.9375 -1.289062 12.847656 -1.046875 12.703125 -0.765625 C 12.554688 -0.484375 12.300781 -0.285156 11.9375 -0.171875 C 11.570312 -0.0546875 11.09375 0 10.5 0 C 9.90625 0 9.429688 -0.0546875 9.078125 -0.171875 C 8.722656 -0.285156 8.472656 -0.484375 8.328125 -0.765625 C 8.179688 -1.046875 8.09375 -1.296875 8.0625 -1.515625 C 8.039062 -1.734375 8.03125 -2.0625 8.03125 -2.5 L 8.03125 -16.953125 L 2.5 -16.953125 C 1.882812 -16.953125 1.429688 -17.023438 1.140625 -17.171875 C 0.859375 -17.316406 0.671875 -17.539062 0.578125 -17.84375 C 0.484375 -18.15625 0.4375 -18.554688 0.4375 -19.046875 C 0.4375 -19.546875 0.484375 -19.941406 0.578125 -20.234375 C 0.671875 -20.535156 0.832031 -20.742188 1.0625 -20.859375 C 1.40625 -21.035156 1.894531 -21.125 2.53125 -21.125 Z M 2.53125 -21.125 "/></g></g></g><g fill="#a8d8ea" fill-opacity="1"><g transform="translate(281.726445, 60.554371)"><g><path d="M 11.046875 -21.359375 C 13.890625 -21.359375 16.351562 -20.332031 18.4375 -18.28125 C 20.53125 -16.226562 21.578125 -13.679688 21.578125 -10.640625 C 21.578125 -7.597656 20.578125 -5.003906 18.578125 -2.859375 C 16.585938 -0.722656 14.132812 0.34375 11.21875 0.34375 C 8.300781 0.34375 5.820312 -0.707031 3.78125 -2.8125 C 1.738281 -4.925781 0.71875 -7.441406 0.71875 -10.359375 C 0.71875 -11.953125 1.003906 -13.441406 1.578125 -14.828125 C 2.160156 -16.222656 2.929688 -17.390625 3.890625 -18.328125 C 4.847656 -19.273438 5.945312 -20.015625 7.1875 -20.546875 C 8.4375 -21.085938 9.722656 -21.359375 11.046875 -21.359375 Z M 5.8125 -10.5 C 5.8125 -8.789062 6.363281 -7.40625 7.46875 -6.34375 C 8.570312 -5.28125 9.800781 -4.75 11.15625 -4.75 C 12.519531 -4.75 13.75 -5.265625 14.84375 -6.296875 C 15.9375 -7.335938 16.484375 -8.726562 16.484375 -10.46875 C 16.484375 -12.21875 15.929688 -13.617188 14.828125 -14.671875 C 13.734375 -15.734375 12.503906 -16.265625 11.140625 -16.265625 C 9.773438 -16.265625 8.546875 -15.726562 7.453125 -14.65625 C 6.359375 -13.59375 5.8125 -12.207031 5.8125 -10.5 Z M 5.8125 -10.5 "/></g></g></g><g fill="#a8d8ea" fill-opacity="1"><g transform="translate(312.080639, 60.554371)"><g><path d="M 17.296875 -3.5625 C 17.585938 -2.875 17.734375 -2.378906 17.734375 -2.078125 C 17.734375 -1.347656 17.132812 -0.734375 15.9375 -0.234375 C 15.332031 0.0351562 14.84375 0.171875 14.46875 0.171875 C 14.09375 0.171875 13.785156 0.0820312 13.546875 -0.09375 C 13.304688 -0.28125 13.128906 -0.46875 13.015625 -0.65625 C 12.816406 -1.019531 12.066406 -2.757812 10.765625 -5.875 L 9.875 -5.8125 L 6.25 -5.8125 L 6.25 -2.5625 C 6.25 -2.125 6.234375 -1.789062 6.203125 -1.5625 C 6.171875 -1.34375 6.078125 -1.09375 5.921875 -0.8125 C 5.660156 -0.289062 4.914062 -0.03125 3.6875 -0.03125 C 2.34375 -0.03125 1.554688 -0.382812 1.328125 -1.09375 C 1.210938 -1.414062 1.15625 -1.914062 1.15625 -2.59375 L 1.15625 -18.5625 C 1.15625 -19 1.164062 -19.328125 1.1875 -19.546875 C 1.21875 -19.773438 1.3125 -20.03125 1.46875 -20.3125 C 1.738281 -20.832031 2.488281 -21.09375 3.71875 -21.09375 L 9.921875 -21.09375 C 11.617188 -21.09375 13.257812 -20.476562 14.84375 -19.25 C 15.613281 -18.65625 16.25 -17.847656 16.75 -16.828125 C 17.25 -15.816406 17.5 -14.6875 17.5 -13.4375 C 17.5 -11.269531 16.78125 -9.488281 15.34375 -8.09375 C 15.757812 -7.070312 16.410156 -5.5625 17.296875 -3.5625 Z M 6.25 -10.90625 L 9.921875 -10.90625 C 10.484375 -10.90625 11.039062 -11.113281 11.59375 -11.53125 C 12.15625 -11.957031 12.4375 -12.59375 12.4375 -13.4375 C 12.4375 -14.28125 12.15625 -14.914062 11.59375 -15.34375 C 11.039062 -15.78125 10.46875 -16 9.875 -16 L 6.25 -16 Z M 6.25 -10.90625 "/></g></g></g><g fill="#a8d8ea" fill-opacity="1"><g transform="translate(338.292095, 60.554371)"><g><path d="M 1.15625 -18.5625 C 1.15625 -19 1.164062 -19.328125 1.1875 -19.546875 C 1.21875 -19.773438 1.3125 -20.03125 1.46875 -20.3125 C 1.738281 -20.832031 2.488281 -21.09375 3.71875 -21.09375 C 5.0625 -21.09375 5.859375 -20.738281 6.109375 -20.03125 C 6.203125 -19.707031 6.25 -19.207031 6.25 -18.53125 L 6.25 -2.53125 C 6.25 -2.070312 6.234375 -1.734375 6.203125 -1.515625 C 6.171875 -1.304688 6.078125 -1.0625 5.921875 -0.78125 C 5.660156 -0.257812 4.914062 0 3.6875 0 C 2.34375 0 1.554688 -0.363281 1.328125 -1.09375 C 1.210938 -1.394531 1.15625 -1.882812 1.15625 -2.5625 Z M 1.15625 -18.5625 "/></g></g></g><g fill="#a8d8ea" fill-opacity="1"><g transform="translate(353.743961, 60.554371)"><g><path d="M 13.328125 -19.59375 L 21.09375 -3.546875 C 21.414062 -2.890625 21.578125 -2.398438 21.578125 -2.078125 C 21.578125 -1.378906 21.023438 -0.753906 19.921875 -0.203125 C 19.265625 0.117188 18.75 0.28125 18.375 0.28125 C 18 0.28125 17.691406 0.191406 17.453125 0.015625 C 17.210938 -0.148438 17.039062 -0.328125 16.9375 -0.515625 C 16.832031 -0.710938 16.679688 -1 16.484375 -1.375 L 15 -4.484375 L 7.015625 -4.484375 L 5.53125 -1.375 C 5.332031 -1 5.179688 -0.722656 5.078125 -0.546875 C 4.972656 -0.367188 4.800781 -0.1875 4.5625 0 C 4.320312 0.175781 4.015625 0.265625 3.640625 0.265625 C 3.265625 0.265625 2.75 0.0976562 2.09375 -0.234375 C 0.988281 -0.765625 0.4375 -1.378906 0.4375 -2.078125 C 0.4375 -2.398438 0.597656 -2.890625 0.921875 -3.546875 L 8.6875 -19.625 C 8.90625 -20.070312 9.226562 -20.425781 9.65625 -20.6875 C 10.082031 -20.957031 10.535156 -21.09375 11.015625 -21.09375 C 12.054688 -21.09375 12.828125 -20.59375 13.328125 -19.59375 Z M 11 -12.6875 L 9.09375 -8.75 L 12.921875 -8.75 Z M 11 -12.6875 "/></g></g></g><g fill="#a8d8ea" fill-opacity="1"><g transform="translate(383.810465, 60.554371)"><g><path d="M 6.25 -4.265625 L 14.078125 -4.265625 C 14.710938 -4.265625 15.171875 -4.191406 15.453125 -4.046875 C 15.742188 -3.898438 15.9375 -3.671875 16.03125 -3.359375 C 16.125 -3.054688 16.171875 -2.648438 16.171875 -2.140625 C 16.171875 -1.628906 16.125 -1.21875 16.03125 -0.90625 C 15.9375 -0.601562 15.773438 -0.394531 15.546875 -0.28125 C 15.179688 -0.09375 14.679688 0 14.046875 0 L 3.6875 0 C 2.34375 0 1.554688 -0.363281 1.328125 -1.09375 C 1.210938 -1.394531 1.15625 -1.882812 1.15625 -2.5625 L 1.15625 -18.5625 C 1.15625 -19 1.164062 -19.328125 1.1875 -19.546875 C 1.21875 -19.773438 1.3125 -20.03125 1.46875 -20.3125 C 1.738281 -20.832031 2.488281 -21.09375 3.71875 -21.09375 C 5.0625 -21.09375 5.859375 -20.738281 6.109375 -20.03125 C 6.203125 -19.707031 6.25 -19.207031 6.25 -18.53125 Z M 6.25 -4.265625 "/></g></g></g><g fill="#a8d8ea" fill-opacity="1"><g transform="translate(184.187923, 85.746905)"><g><path d="M 3.71875 -21.125 L 9.03125 -21.09375 C 11.8125 -21.09375 14.257812 -20.085938 16.375 -18.078125 C 18.488281 -16.078125 19.546875 -13.613281 19.546875 -10.6875 C 19.546875 -7.757812 18.515625 -5.25 16.453125 -3.15625 C 14.390625 -1.070312 11.890625 -0.03125 8.953125 -0.03125 L 3.6875 -0.03125 C 2.507812 -0.03125 1.78125 -0.269531 1.5 -0.75 C 1.269531 -1.15625 1.15625 -1.769531 1.15625 -2.59375 L 1.15625 -18.59375 C 1.15625 -19.050781 1.164062 -19.382812 1.1875 -19.59375 C 1.21875 -19.8125 1.3125 -20.0625 1.46875 -20.34375 C 1.738281 -20.863281 2.488281 -21.125 3.71875 -21.125 Z M 9.03125 -5.125 C 10.414062 -5.125 11.664062 -5.632812 12.78125 -6.65625 C 13.894531 -7.6875 14.453125 -8.976562 14.453125 -10.53125 C 14.453125 -12.082031 13.910156 -13.378906 12.828125 -14.421875 C 11.742188 -15.472656 10.472656 -16 9.015625 -16 L 6.25 -16 L 6.25 -5.125 Z M 9.03125 -5.125 "/></g></g></g><g fill="#a8d8ea" fill-opacity="1"><g transform="translate(212.499516, 85.746905)"><g><path d="M 6.25 -5.09375 L 15.109375 -5.09375 C 15.546875 -5.09375 15.875 -5.078125 16.09375 -5.046875 C 16.320312 -5.023438 16.578125 -4.9375 16.859375 -4.78125 C 17.378906 -4.507812 17.640625 -3.757812 17.640625 -2.53125 C 17.640625 -1.1875 17.285156 -0.398438 16.578125 -0.171875 C 16.253906 -0.0546875 15.753906 0 15.078125 0 L 3.6875 0 C 2.34375 0 1.554688 -0.363281 1.328125 -1.09375 C 1.210938 -1.394531 1.15625 -1.882812 1.15625 -2.5625 L 1.15625 -18.5625 C 1.15625 -19.539062 1.335938 -20.207031 1.703125 -20.5625 C 2.066406 -20.914062 2.753906 -21.09375 3.765625 -21.09375 L 15.109375 -21.09375 C 15.546875 -21.09375 15.875 -21.078125 16.09375 -21.046875 C 16.320312 -21.023438 16.578125 -20.9375 16.859375 -20.78125 C 17.378906 -20.507812 17.640625 -19.757812 17.640625 -18.53125 C 17.640625 -17.1875 17.285156 -16.398438 16.578125 -16.171875 C 16.253906 -16.054688 15.753906 -16 15.078125 -16 L 6.25 -16 L 6.25 -13.09375 L 11.9375 -13.09375 C 12.382812 -13.09375 12.71875 -13.078125 12.9375 -13.046875 C 13.15625 -13.023438 13.410156 -12.9375 13.703125 -12.78125 C 14.222656 -12.507812 14.484375 -11.757812 14.484375 -10.53125 C 14.484375 -9.1875 14.117188 -8.398438 13.390625 -8.171875 C 13.054688 -8.054688 12.554688 -8 11.890625 -8 L 6.25 -8 Z M 6.25 -5.09375 "/></g></g></g><g fill="#a8d8ea" fill-opacity="1"><g transform="translate(184.187923, 110.93944)"><g><path d="M 16.71875 -16.828125 C 17.21875 -15.816406 17.46875 -14.6875 17.46875 -13.4375 C 17.46875 -12.1875 17.21875 -11.054688 16.71875 -10.046875 C 16.21875 -9.046875 15.578125 -8.25 14.796875 -7.65625 C 13.203125 -6.425781 11.550781 -5.8125 9.84375 -5.8125 L 6.25 -5.8125 L 6.25 -2.5625 C 6.25 -2.125 6.234375 -1.789062 6.203125 -1.5625 C 6.171875 -1.34375 6.078125 -1.09375 5.921875 -0.8125 C 5.660156 -0.289062 4.914062 -0.03125 3.6875 -0.03125 C 2.34375 -0.03125 1.554688 -0.382812 1.328125 -1.09375 C 1.210938 -1.414062 1.15625 -1.914062 1.15625 -2.59375 L 1.15625 -18.5625 C 1.15625 -19 1.164062 -19.328125 1.1875 -19.546875 C 1.21875 -19.773438 1.3125 -20.03125 1.46875 -20.3125 C 1.738281 -20.832031 2.488281 -21.09375 3.71875 -21.09375 L 9.875 -21.09375 C 11.5625 -21.09375 13.203125 -20.476562 14.796875 -19.25 C 15.578125 -18.65625 16.21875 -17.847656 16.71875 -16.828125 Z M 9.875 -10.90625 C 10.445312 -10.90625 11.007812 -11.113281 11.5625 -11.53125 C 12.125 -11.957031 12.40625 -12.59375 12.40625 -13.4375 C 12.40625 -14.28125 12.125 -14.914062 11.5625 -15.34375 C 11.007812 -15.78125 10.4375 -16 9.84375 -16 L 6.25 -16 L 6.25 -10.90625 Z M 9.875 -10.90625 "/></g></g></g><g fill="#a8d8ea" fill-opacity="1"><g transform="translate(210.428152, 110.93944)"><g><path d="M 6.25 -5.09375 L 15.109375 -5.09375 C 15.546875 -5.09375 15.875 -5.078125 16.09375 -5.046875 C 16.320312 -5.023438 16.578125 -4.9375 16.859375 -4.78125 C 17.378906 -4.507812 17.640625 -3.757812 17.640625 -2.53125 C 17.640625 -1.1875 17.285156 -0.398438 16.578125 -0.171875 C 16.253906 -0.0546875 15.753906 0 15.078125 0 L 3.6875 0 C 2.34375 0 1.554688 -0.363281 1.328125 -1.09375 C 1.210938 -1.394531 1.15625 -1.882812 1.15625 -2.5625 L 1.15625 -18.5625 C 1.15625 -19.539062 1.335938 -20.207031 1.703125 -20.5625 C 2.066406 -20.914062 2.753906 -21.09375 3.765625 -21.09375 L 15.109375 -21.09375 C 15.546875 -21.09375 15.875 -21.078125 16.09375 -21.046875 C 16.320312 -21.023438 16.578125 -20.9375 16.859375 -20.78125 C 17.378906 -20.507812 17.640625 -19.757812 17.640625 -18.53125 C 17.640625 -17.1875 17.285156 -16.398438 16.578125 -16.171875 C 16.253906 -16.054688 15.753906 -16 15.078125 -16 L 6.25 -16 L 6.25 -13.09375 L 11.9375 -13.09375 C 12.382812 -13.09375 12.71875 -13.078125 12.9375 -13.046875 C 13.15625 -13.023438 13.410156 -12.9375 13.703125 -12.78125 C 14.222656 -12.507812 14.484375 -11.757812 14.484375 -10.53125 C 14.484375 -9.1875 14.117188 -8.398438 13.390625 -8.171875 C 13.054688 -8.054688 12.554688 -8 11.890625 -8 L 6.25 -8 Z M 6.25 -5.09375 "/></g></g></g><g fill="#a8d8ea" fill-opacity="1"><g transform="translate(236.840991, 110.93944)"><g><path d="M 3.71875 -21.125 L 9.03125 -21.09375 C 11.8125 -21.09375 14.257812 -20.085938 16.375 -18.078125 C 18.488281 -16.078125 19.546875 -13.613281 19.546875 -10.6875 C 19.546875 -7.757812 18.515625 -5.25 16.453125 -3.15625 C 14.390625 -1.070312 11.890625 -0.03125 8.953125 -0.03125 L 3.6875 -0.03125 C 2.507812 -0.03125 1.78125 -0.269531 1.5 -0.75 C 1.269531 -1.15625 1.15625 -1.769531 1.15625 -2.59375 L 1.15625 -18.59375 C 1.15625 -19.050781 1.164062 -19.382812 1.1875 -19.59375 C 1.21875 -19.8125 1.3125 -20.0625 1.46875 -20.34375 C 1.738281 -20.863281 2.488281 -21.125 3.71875 -21.125 Z M 9.03125 -5.125 C 10.414062 -5.125 11.664062 -5.632812 12.78125 -6.65625 C 13.894531 -7.6875 14.453125 -8.976562 14.453125 -10.53125 C 14.453125 -12.082031 13.910156 -13.378906 12.828125 -14.421875 C 11.742188 -15.472656 10.472656 -16 9.015625 -16 L 6.25 -16 L 6.25 -5.125 Z M 9.03125 -5.125 "/></g></g></g><g fill="#a8d8ea" fill-opacity="1"><g transform="translate(265.152581, 110.93944)"><g><path d="M 1.15625 -18.5625 C 1.15625 -19 1.164062 -19.328125 1.1875 -19.546875 C 1.21875 -19.773438 1.3125 -20.03125 1.46875 -20.3125 C 1.738281 -20.832031 2.488281 -21.09375 3.71875 -21.09375 C 5.0625 -21.09375 5.859375 -20.738281 6.109375 -20.03125 C 6.203125 -19.707031 6.25 -19.207031 6.25 -18.53125 L 6.25 -2.53125 C 6.25 -2.070312 6.234375 -1.734375 6.203125 -1.515625 C 6.171875 -1.304688 6.078125 -1.0625 5.921875 -0.78125 C 5.660156 -0.257812 4.914062 0 3.6875 0 C 2.34375 0 1.554688 -0.363281 1.328125 -1.09375 C 1.210938 -1.394531 1.15625 -1.882812 1.15625 -2.5625 Z M 1.15625 -18.5625 "/></g></g></g><g fill="#a8d8ea" fill-opacity="1"><g transform="translate(280.604447, 110.93944)"><g><path d="M 3.71875 -21.125 L 9.03125 -21.09375 C 11.8125 -21.09375 14.257812 -20.085938 16.375 -18.078125 C 18.488281 -16.078125 19.546875 -13.613281 19.546875 -10.6875 C 19.546875 -7.757812 18.515625 -5.25 16.453125 -3.15625 C 14.390625 -1.070312 11.890625 -0.03125 8.953125 -0.03125 L 3.6875 -0.03125 C 2.507812 -0.03125 1.78125 -0.269531 1.5 -0.75 C 1.269531 -1.15625 1.15625 -1.769531 1.15625 -2.59375 L 1.15625 -18.59375 C 1.15625 -19.050781 1.164062 -19.382812 1.1875 -19.59375 C 1.21875 -19.8125 1.3125 -20.0625 1.46875 -20.34375 C 1.738281 -20.863281 2.488281 -21.125 3.71875 -21.125 Z M 9.03125 -5.125 C 10.414062 -5.125 11.664062 -5.632812 12.78125 -6.65625 C 13.894531 -7.6875 14.453125 -8.976562 14.453125 -10.53125 C 14.453125 -12.082031 13.910156 -13.378906 12.828125 -14.421875 C 11.742188 -15.472656 10.472656 -16 9.015625 -16 L 6.25 -16 L 6.25 -5.125 Z M 9.03125 -5.125 "/></g></g></g><g fill="#a8d8ea" fill-opacity="1"><g transform="translate(308.916042, 110.93944)"><g><path d="M 11.046875 -21.359375 C 13.890625 -21.359375 16.351562 -20.332031 18.4375 -18.28125 C 20.53125 -16.226562 21.578125 -13.679688 21.578125 -10.640625 C 21.578125 -7.597656 20.578125 -5.003906 18.578125 -2.859375 C 16.585938 -0.722656 14.132812 0.34375 11.21875 0.34375 C 8.300781 0.34375 5.820312 -0.707031 3.78125 -2.8125 C 1.738281 -4.925781 0.71875 -7.441406 0.71875 -10.359375 C 0.71875 -11.953125 1.003906 -13.441406 1.578125 -14.828125 C 2.160156 -16.222656 2.929688 -17.390625 3.890625 -18.328125 C 4.847656 -19.273438 5.945312 -20.015625 7.1875 -20.546875 C 8.4375 -21.085938 9.722656 -21.359375 11.046875 -21.359375 Z M 5.8125 -10.5 C 5.8125 -8.789062 6.363281 -7.40625 7.46875 -6.34375 C 8.570312 -5.28125 9.800781 -4.75 11.15625 -4.75 C 12.519531 -4.75 13.75 -5.265625 14.84375 -6.296875 C 15.9375 -7.335938 16.484375 -8.726562 16.484375 -10.46875 C 16.484375 -12.21875 15.929688 -13.617188 14.828125 -14.671875 C 13.734375 -15.734375 12.503906 -16.265625 11.140625 -16.265625 C 9.773438 -16.265625 8.546875 -15.726562 7.453125 -14.65625 C 6.359375 -13.59375 5.8125 -12.207031 5.8125 -10.5 Z M 5.8125 -10.5 "/></g></g></g><g fill="#a8d8ea" fill-opacity="1"><g transform="translate(339.270237, 110.93944)"><g><path d="M 1.46875 -2.96875 C 0.96875 -3.582031 0.71875 -4.132812 0.71875 -4.625 C 0.71875 -5.113281 1.128906 -5.757812 1.953125 -6.5625 C 2.429688 -7.019531 2.9375 -7.25 3.46875 -7.25 C 4.007812 -7.25 4.765625 -6.769531 5.734375 -5.8125 C 5.992188 -5.488281 6.375 -5.175781 6.875 -4.875 C 7.375 -4.582031 7.835938 -4.4375 8.265625 -4.4375 C 10.046875 -4.4375 10.9375 -5.164062 10.9375 -6.625 C 10.9375 -7.0625 10.691406 -7.425781 10.203125 -7.71875 C 9.710938 -8.019531 9.101562 -8.238281 8.375 -8.375 C 7.644531 -8.507812 6.859375 -8.722656 6.015625 -9.015625 C 5.171875 -9.316406 4.382812 -9.664062 3.65625 -10.0625 C 2.925781 -10.46875 2.316406 -11.109375 1.828125 -11.984375 C 1.335938 -12.859375 1.09375 -13.910156 1.09375 -15.140625 C 1.09375 -16.828125 1.71875 -18.296875 2.96875 -19.546875 C 4.226562 -20.804688 5.941406 -21.4375 8.109375 -21.4375 C 9.265625 -21.4375 10.316406 -21.285156 11.265625 -20.984375 C 12.210938 -20.691406 12.867188 -20.394531 13.234375 -20.09375 L 13.953125 -19.546875 C 14.546875 -18.984375 14.84375 -18.507812 14.84375 -18.125 C 14.84375 -17.75 14.613281 -17.222656 14.15625 -16.546875 C 13.507812 -15.585938 12.835938 -15.109375 12.140625 -15.109375 C 11.742188 -15.109375 11.25 -15.300781 10.65625 -15.6875 C 10.59375 -15.726562 10.476562 -15.820312 10.3125 -15.96875 C 10.15625 -16.125 10.007812 -16.25 9.875 -16.34375 C 9.46875 -16.59375 8.953125 -16.71875 8.328125 -16.71875 C 7.703125 -16.71875 7.179688 -16.566406 6.765625 -16.265625 C 6.359375 -15.972656 6.15625 -15.5625 6.15625 -15.03125 C 6.15625 -14.507812 6.398438 -14.082031 6.890625 -13.75 C 7.378906 -13.425781 7.988281 -13.207031 8.71875 -13.09375 C 9.445312 -12.976562 10.242188 -12.800781 11.109375 -12.5625 C 11.972656 -12.320312 12.769531 -12.03125 13.5 -11.6875 C 14.226562 -11.34375 14.835938 -10.742188 15.328125 -9.890625 C 15.816406 -9.035156 16.0625 -7.984375 16.0625 -6.734375 C 16.0625 -5.484375 15.8125 -4.382812 15.3125 -3.4375 C 14.8125 -2.488281 14.160156 -1.753906 13.359375 -1.234375 C 11.796875 -0.222656 10.132812 0.28125 8.375 0.28125 C 7.46875 0.28125 6.613281 0.171875 5.8125 -0.046875 C 5.007812 -0.265625 4.359375 -0.535156 3.859375 -0.859375 C 2.835938 -1.472656 2.128906 -2.066406 1.734375 -2.640625 Z M 1.46875 -2.96875 "/></g></g></g></svg>