<svg xmlns="http://www.w3.org/2000/svg" xmlns:xlink="http://www.w3.org/1999/xlink" width="576" zoomAndPan="magnify" viewBox="0 0 432 149.999998" height="200" preserveAspectRatio="xMidYMid meet" version="1.0"><defs><clipPath id="9be4447ecb"><path d="M 0.289062 2.488281 L 430.59375 2.488281 L 430.59375 147.910156 L 0.289062 147.910156 Z M 0.289062 2.488281 " clip-rule="nonzero"/></clipPath><clipPath id="35933976b1"><path d="M 26.089844 2.488281 L 404.609375 2.488281 C 418.855469 2.488281 430.40625 14.039062 430.40625 28.289062 L 430.40625 122.109375 C 430.40625 136.359375 418.855469 147.910156 404.609375 147.910156 L 26.089844 147.910156 C 11.839844 147.910156 0.289062 136.359375 0.289062 122.109375 L 0.289062 28.289062 C 0.289062 14.039062 11.839844 2.488281 26.089844 2.488281 Z M 26.089844 2.488281 " clip-rule="nonzero"/></clipPath><clipPath id="03b54c6792"><path d="M 20.078125 33.28125 L 93.125 33.28125 L 93.125 122 L 20.078125 122 Z M 20.078125 33.28125 " clip-rule="nonzero"/></clipPath><clipPath id="1795d160cc"><path d="M 20.472656 28.792969 L 90 28.792969 L 90 41.882812 L 20.472656 41.882812 Z M 20.472656 28.792969 " clip-rule="nonzero"/></clipPath></defs><g clip-path="url(#9be4447ecb)"><g clip-path="url(#35933976b1)"><path fill="#ffffff" d="M 0.289062 2.488281 L 430.3125 2.488281 L 430.3125 147.910156 L 0.289062 147.910156 Z M 0.289062 2.488281 " fill-opacity="1" fill-rule="nonzero"/></g></g><g clip-path="url(#03b54c6792)"><path fill="#ffb9b9" d="M 20.929688 33.378906 C 20.878906 35.621094 22.078125 37.710938 23.894531 39.03125 C 27.375 41.558594 31.59375 41.375 35.644531 41.328125 C 55.714844 41.089844 73.769531 42.273438 93.058594 41.285156 C 92.535156 62.257812 93.265625 91.46875 92.355469 114.945312 C 92.226562 118.363281 89.417969 121.074219 86.003906 121.25 C 65.875 122.277344 45.769531 122.074219 25.671875 120.472656 C 22.800781 120.246094 20.574219 117.875 20.53125 114.992188 C 20.195312 90.101562 20.476562 60.714844 20.949219 33.980469 Z M 20.929688 33.378906 " fill-opacity="1" fill-rule="nonzero"/></g><path stroke-linecap="round" transform="matrix(0.469573, 0, 0, 0.469573, -43.108616, -18.541594)" fill="none" stroke-linejoin="round" d="M 152.90506 287.617349 C 151.815306 254.84985 152.64718 190.795588 152.64718 157.02984 " stroke="#365fa0" stroke-width="1" stroke-opacity="1" stroke-miterlimit="10"/><g clip-path="url(#1795d160cc)"><path stroke-linecap="round" transform="matrix(0.469573, 0, 0, 0.469573, -43.108645, -18.541586)" fill="none" stroke-linejoin="round" d="M 137.423962 116.018465 C 135.701984 111.368291 136.825013 108.930902 140.52685 105.65332 C 144.245325 102.359101 154.28604 101.96812 159.244006 101.801745 C 177.969481 101.152884 193.858266 102.03467 210.861762 102.550431 C 237.539948 103.365668 258.644581 103.091149 282.153329 103.723373 C 282.702365 112.915576 281.437917 117.540793 281.986954 126.724678 " stroke="#365fa0" stroke-width="1" stroke-opacity="1" stroke-miterlimit="10"/></g><path stroke-linecap="round" transform="matrix(0.469573, 0, 0, 0.469573, -43.108616, -18.541594)" fill="none" stroke-linejoin="round" d="M 197.160733 125.26059 C 224.179986 125.052621 251.199238 125.002709 278.218491 125.110853 " stroke="#365fa0" stroke-width="1" stroke-opacity="1" stroke-miterlimit="10"/><path stroke-linecap="round" transform="matrix(0.469573, 0, 0, 0.469573, -43.108616, -18.541594)" fill="none" stroke-linejoin="round" d="M 281.57926 117.698859 C 245.875248 118.430908 193.982976 118.039927 158.30392 116.783798 " stroke="#365fa0" stroke-width="1" stroke-opacity="1" stroke-miterlimit="10"/><path stroke-linecap="round" transform="matrix(0.469573, 0, 0, 0.469573, -43.108616, -18.541594)" fill="none" stroke-linejoin="round" d="M 161.007509 147.912506 C 166.123531 147.621351 170.124843 141.864786 168.652426 136.973369 C 202.958891 138.870041 237.356862 139.102966 271.688284 137.655506 C 271.022785 142.380547 275.248702 147.188776 280.023657 147.130545 C 278.534603 189.539458 276.488194 234.510542 275.182153 277.41858 C 270.016218 274.748266 261.12349 283.923831 262.421212 289.231184 C 231.816585 289.672077 201.236913 288.357717 170.640604 288.806928 C 171.514071 286.095021 170.432636 282.210171 167.97029 280.779349 C 165.507944 279.348526 163.286842 278.990821 160.450153 278.86604 C 158.902869 239.293815 161.007509 147.912506 161.007509 147.912506 Z M 161.007509 147.912506 " stroke="#365fa0" stroke-width="1" stroke-opacity="1" stroke-miterlimit="10"/><path stroke-linecap="round" transform="matrix(0.469573, 0, 0, 0.469573, -43.108616, -18.541594)" fill="none" stroke-linejoin="round" d="M 139.095959 113.863922 C 140.318814 108.955868 144.095519 106.668216 149.053486 105.611737 C 158.927825 103.490459 173.69358 103.831527 183.792525 104.172595 C 196.212397 104.588532 207.525877 105.437043 219.954068 105.778111 C 226.284626 105.944486 236.940926 105.736518 243.271483 105.969442 C 258.985575 106.543435 264.559127 106.792997 278.218491 106.318829 " stroke="#365fa0" stroke-width="1" stroke-opacity="1" stroke-miterlimit="10"/><path stroke-linecap="round" transform="matrix(0.469573, 0, 0, 0.469573, -43.108616, -18.541594)" fill-opacity="1" fill="#ffffff" fill-rule="nonzero" stroke-linejoin="round" d="M 228.505728 236.76492 C 230.186113 241.348543 230.643643 247.687419 233.463694 252.637067 C 236.732957 251.663775 240.00222 250.673845 243.263165 249.708872 C 241.566143 244.601168 239.869121 239.501784 238.180417 234.385761 C 238.080592 234.077968 237.040751 233.928231 236.841101 234.302574 Z M 228.505728 236.76492 " stroke="#365fa0" stroke-width="1" stroke-opacity="1" stroke-miterlimit="10"/><path fill="#d5ecc2" d="M 64.496094 100.144531 C 65.480469 103.621094 66.46875 107.101562 67.277344 110.628906 C 69.117188 118.589844 71.21875 126.875 73.351562 133.890625 C 73.425781 134.117188 73.523438 134.355469 73.746094 134.46875 C 73.972656 134.585938 74.265625 134.519531 74.527344 134.460938 C 77.246094 133.773438 78.667969 133.425781 81.378906 132.742188 C 81.777344 132.640625 82.230469 132.503906 82.410156 132.148438 C 82.542969 131.875 82.46875 131.566406 82.390625 131.28125 C 79.246094 120.339844 76.207031 109.871094 73.074219 98.90625 C 72.980469 98.582031 72.875 98.183594 72.519531 98.109375 C 72.347656 98.074219 72.175781 98.125 72.011719 98.175781 C 71.476562 98.335938 70.9375 98.492188 70.394531 98.640625 Z M 64.496094 100.144531 " fill-opacity="1" fill-rule="nonzero"/><path stroke-linecap="round" transform="matrix(0.469573, 0, 0, 0.469573, -43.108616, -18.541594)" fill-opacity="1" fill="#ffffff" fill-rule="nonzero" stroke-linejoin="round" d="M 262.795555 197.300839 C 261.980319 187.409862 257.355102 178.026329 250.575333 170.772391 C 242.298191 161.879663 232.182609 158.643675 220.186993 159.933079 C 210.520622 160.989558 199.756178 165.356895 192.460647 172.560919 C 187.83543 177.119586 184.61608 182.81792 183.950581 189.539458 C 183.30172 196.011435 184.574486 202.533323 186.321421 208.789012 C 187.644099 213.530691 189.274572 218.264052 192.102942 222.29032 C 195.79646 227.556079 201.328419 231.282873 207.118259 234.086287 C 222.599426 241.606424 241.682605 236.681732 253.436978 224.59461 C 260.366485 217.498728 263.602473 207.183496 262.795555 197.300839 Z M 247.139695 219.095926 C 237.880943 228.629196 222.840669 232.497408 210.645403 226.582787 C 206.086736 224.370004 201.736037 221.425171 198.82448 217.282441 C 196.58674 214.113003 195.305655 210.377891 194.257494 206.651097 C 192.884903 201.709768 191.878336 196.585427 192.385779 191.477724 C 192.918178 186.187008 195.455392 181.686572 199.090679 178.101197 C 204.830607 172.419501 213.307398 168.983863 220.92736 168.15199 C 230.369125 167.120466 238.346792 169.682637 244.868681 176.678694 C 250.20099 182.401983 253.844596 189.789021 254.493457 197.575357 C 255.125681 205.378331 252.588467 213.497417 247.139695 219.095926 Z M 247.139695 219.095926 " stroke="#365fa0" stroke-width="1" stroke-opacity="1" stroke-miterlimit="10"/><path fill="#a8d8ea" d="M 119.628906 74.605469 C 120.125 75.621094 120.375 76.753906 120.375 77.996094 C 120.375 79.230469 120.125 80.351562 119.628906 81.355469 C 119.128906 82.355469 118.492188 83.148438 117.714844 83.746094 C 116.132812 84.972656 114.488281 85.585938 112.785156 85.585938 L 109.203125 85.585938 L 109.203125 88.8125 C 109.203125 89.25 109.1875 89.582031 109.15625 89.8125 C 109.125 90.03125 109.035156 90.28125 108.886719 90.558594 C 108.617188 91.078125 107.875 91.335938 106.660156 91.335938 C 105.316406 91.335938 104.53125 90.984375 104.300781 90.273438 C 104.191406 89.957031 104.136719 89.460938 104.136719 88.78125 L 104.136719 72.886719 C 104.136719 72.449219 104.144531 72.121094 104.167969 71.902344 C 104.195312 71.683594 104.289062 71.429688 104.449219 71.140625 C 104.71875 70.625 105.460938 70.363281 106.675781 70.363281 L 112.816406 70.363281 C 114.496094 70.363281 116.132812 70.976562 117.714844 72.199219 C 118.492188 72.789062 119.128906 73.589844 119.628906 74.605469 Z M 112.816406 80.503906 C 113.382812 80.503906 113.945312 80.296875 114.503906 79.878906 C 115.058594 79.460938 115.339844 78.832031 115.339844 77.996094 C 115.339844 77.152344 115.058594 76.511719 114.503906 76.085938 C 113.945312 75.660156 113.371094 75.441406 112.785156 75.441406 L 109.203125 75.441406 L 109.203125 80.503906 Z M 112.816406 80.503906 " fill-opacity="1" fill-rule="nonzero"/><path fill="#a8d8ea" d="M 135.328125 86.300781 L 144.15625 86.300781 C 144.589844 86.300781 144.921875 86.316406 145.140625 86.347656 C 145.355469 86.367188 145.609375 86.457031 145.902344 86.613281 C 146.417969 86.875 146.679688 87.617188 146.679688 88.839844 C 146.679688 90.175781 146.324219 90.957031 145.617188 91.1875 C 145.289062 91.304688 144.789062 91.363281 144.125 91.363281 L 132.789062 91.363281 C 131.441406 91.363281 130.65625 91.003906 130.425781 90.273438 C 130.316406 89.96875 130.261719 89.480469 130.261719 88.8125 L 130.261719 72.886719 C 130.261719 71.914062 130.441406 71.25 130.800781 70.902344 C 131.167969 70.542969 131.855469 70.363281 132.863281 70.363281 L 144.15625 70.363281 C 144.589844 70.363281 144.921875 70.378906 145.140625 70.40625 C 145.355469 70.4375 145.609375 70.527344 145.902344 70.675781 C 146.417969 70.945312 146.679688 71.691406 146.679688 72.917969 C 146.679688 74.253906 146.324219 75.035156 145.617188 75.261719 C 145.289062 75.382812 144.789062 75.441406 144.125 75.441406 L 135.328125 75.441406 L 135.328125 78.324219 L 141.003906 78.324219 C 141.441406 78.324219 141.769531 78.339844 141.988281 78.371094 C 142.207031 78.398438 142.460938 78.488281 142.75 78.636719 C 143.265625 78.90625 143.527344 79.652344 143.527344 80.878906 C 143.527344 82.214844 143.160156 82.996094 142.4375 83.222656 C 142.109375 83.34375 141.609375 83.402344 140.941406 83.402344 L 135.328125 83.402344 Z M 135.328125 86.300781 " fill-opacity="1" fill-rule="nonzero"/><path fill="#a8d8ea" d="M 172.632812 87.808594 C 172.910156 88.496094 173.050781 88.996094 173.050781 89.304688 C 173.050781 90.03125 172.460938 90.644531 171.289062 91.140625 C 170.667969 91.410156 170.171875 91.542969 169.796875 91.542969 C 169.425781 91.542969 169.121094 91.453125 168.882812 91.277344 C 168.644531 91.089844 168.46875 90.898438 168.359375 90.707031 C 168.171875 90.34375 167.425781 88.613281 166.121094 85.523438 L 165.238281 85.585938 L 161.625 85.585938 L 161.625 88.8125 C 161.625 89.25 161.609375 89.582031 161.578125 89.8125 C 161.550781 90.03125 161.460938 90.28125 161.3125 90.558594 C 161.042969 91.078125 160.296875 91.335938 159.085938 91.335938 C 157.742188 91.335938 156.953125 90.984375 156.726562 90.273438 C 156.613281 89.957031 156.5625 89.460938 156.5625 88.78125 L 156.5625 72.886719 C 156.5625 72.449219 156.566406 72.121094 156.589844 71.902344 C 156.621094 71.683594 156.714844 71.429688 156.875 71.140625 C 157.144531 70.625 157.882812 70.363281 159.101562 70.363281 L 165.300781 70.363281 C 166.972656 70.363281 168.605469 70.976562 170.199219 72.199219 C 170.953125 72.789062 171.582031 73.589844 172.082031 74.605469 C 172.578125 75.621094 172.828125 76.75 172.828125 77.980469 C 172.828125 80.144531 172.109375 81.921875 170.675781 83.3125 C 171.09375 84.328125 171.746094 85.832031 172.632812 87.808594 Z M 161.625 80.503906 L 165.300781 80.503906 C 165.84375 80.503906 166.398438 80.296875 166.957031 79.878906 C 167.511719 79.460938 167.792969 78.832031 167.792969 77.996094 C 167.792969 77.152344 167.511719 76.511719 166.957031 76.085938 C 166.398438 75.660156 165.824219 75.441406 165.238281 75.441406 L 161.625 75.441406 Z M 161.625 80.503906 " fill-opacity="1" fill-rule="nonzero"/><path fill="#a8d8ea" d="M 182.972656 88.40625 C 182.472656 87.800781 182.222656 87.253906 182.222656 86.765625 C 182.222656 86.277344 182.632812 85.636719 183.449219 84.835938 C 183.925781 84.382812 184.433594 84.148438 184.972656 84.148438 C 185.511719 84.148438 186.257812 84.628906 187.214844 85.585938 C 187.484375 85.90625 187.859375 86.210938 188.347656 86.511719 C 188.84375 86.808594 189.304688 86.957031 189.722656 86.957031 C 191.503906 86.957031 192.398438 86.234375 192.398438 84.777344 C 192.398438 84.339844 192.152344 83.972656 191.664062 83.671875 C 191.175781 83.375 190.566406 83.160156 189.84375 83.03125 C 189.113281 82.890625 188.328125 82.679688 187.484375 82.386719 C 186.644531 82.089844 185.863281 81.742188 185.136719 81.34375 C 184.421875 80.933594 183.816406 80.296875 183.328125 79.429688 C 182.839844 78.5625 182.597656 77.519531 182.597656 76.292969 C 182.597656 74.613281 183.21875 73.148438 184.464844 71.902344 C 185.71875 70.648438 187.425781 70.019531 189.589844 70.019531 C 190.730469 70.019531 191.777344 70.167969 192.726562 70.46875 C 193.671875 70.765625 194.324219 71.066406 194.683594 71.363281 L 195.398438 71.917969 C 195.996094 72.464844 196.296875 72.933594 196.296875 73.320312 C 196.296875 73.703125 196.0625 74.222656 195.609375 74.890625 C 194.953125 75.84375 194.277344 76.324219 193.59375 76.324219 C 193.191406 76.324219 192.699219 76.136719 192.113281 75.753906 C 192.054688 75.71875 191.9375 75.621094 191.769531 75.472656 C 191.609375 75.316406 191.464844 75.1875 191.335938 75.097656 C 190.9375 74.851562 190.425781 74.726562 189.796875 74.726562 C 189.179688 74.726562 188.664062 74.875 188.246094 75.171875 C 187.832031 75.464844 187.632812 75.871094 187.632812 76.398438 C 187.632812 76.929688 187.875 77.355469 188.363281 77.683594 C 188.847656 78.003906 189.457031 78.21875 190.1875 78.339844 C 190.910156 78.453125 191.703125 78.625 192.5625 78.863281 C 193.425781 79.101562 194.21875 79.394531 194.9375 79.742188 C 195.660156 80.082031 196.269531 80.679688 196.757812 81.535156 C 197.246094 82.382812 197.492188 83.429688 197.492188 84.671875 C 197.492188 85.910156 197.242188 87 196.742188 87.945312 C 196.253906 88.894531 195.609375 89.625 194.800781 90.140625 C 193.257812 91.148438 191.605469 91.648438 189.84375 91.648438 C 188.945312 91.648438 188.09375 91.535156 187.289062 91.320312 C 186.488281 91.105469 185.84375 90.828125 185.347656 90.5 C 184.332031 89.894531 183.621094 89.304688 183.226562 88.734375 Z M 182.972656 88.40625 " fill-opacity="1" fill-rule="nonzero"/><path fill="#a8d8ea" d="M 217.238281 70.109375 C 220.054688 70.109375 222.503906 71.132812 224.585938 73.171875 C 226.667969 75.214844 227.710938 77.75 227.710938 80.773438 C 227.710938 83.804688 226.714844 86.382812 224.738281 88.511719 C 222.753906 90.644531 220.308594 91.707031 217.402344 91.707031 C 214.492188 91.707031 212.027344 90.660156 209.992188 88.558594 C 207.960938 86.457031 206.945312 83.957031 206.945312 81.058594 C 206.945312 79.46875 207.230469 77.976562 207.796875 76.59375 C 208.375 75.210938 209.140625 74.050781 210.097656 73.113281 C 211.054688 72.179688 212.148438 71.445312 213.386719 70.914062 C 214.628906 70.378906 215.914062 70.109375 217.238281 70.109375 Z M 212.011719 80.910156 C 212.011719 82.613281 212.554688 83.996094 213.652344 85.0625 C 214.757812 86.117188 215.988281 86.644531 217.34375 86.644531 C 218.695312 86.644531 219.917969 86.128906 221.003906 85.089844 C 222.097656 84.058594 222.644531 82.671875 222.644531 80.9375 C 222.644531 79.199219 222.09375 77.800781 220.988281 76.757812 C 219.890625 75.703125 218.664062 75.171875 217.3125 75.171875 C 215.957031 75.171875 214.734375 75.707031 213.640625 76.769531 C 212.550781 77.828125 212.011719 79.207031 212.011719 80.910156 Z M 212.011719 80.910156 " fill-opacity="1" fill-rule="nonzero"/><path fill="#a8d8ea" d="M 251.164062 71.246094 C 251.34375 70.910156 251.613281 70.683594 251.972656 70.570312 C 252.335938 70.453125 252.792969 70.394531 253.332031 70.394531 C 253.875 70.394531 254.316406 70.445312 254.644531 70.542969 C 254.980469 70.632812 255.230469 70.746094 255.390625 70.886719 C 255.558594 71.015625 255.683594 71.214844 255.765625 71.484375 C 255.875 71.792969 255.929688 72.28125 255.929688 72.945312 L 255.929688 88.839844 C 255.929688 89.300781 255.914062 89.632812 255.886719 89.839844 C 255.855469 90.050781 255.765625 90.300781 255.617188 90.589844 C 255.347656 91.105469 254.605469 91.363281 253.390625 91.363281 C 252.644531 91.363281 252.125 91.3125 251.835938 91.199219 C 251.546875 91.082031 251.308594 90.898438 251.121094 90.648438 C 246.816406 84.921875 243.988281 81.179688 242.636719 79.414062 L 242.636719 88.839844 C 242.636719 89.300781 242.621094 89.632812 242.589844 89.839844 C 242.570312 90.050781 242.480469 90.300781 242.320312 90.589844 C 242.054688 91.105469 241.308594 91.363281 240.097656 91.363281 C 238.910156 91.363281 238.183594 91.105469 237.914062 90.589844 C 237.753906 90.300781 237.660156 90.042969 237.632812 89.8125 C 237.609375 89.582031 237.601562 89.25 237.601562 88.8125 L 237.601562 72.828125 C 237.601562 72.101562 237.691406 71.574219 237.871094 71.246094 C 238.050781 70.910156 238.320312 70.683594 238.675781 70.570312 C 239.042969 70.453125 239.511719 70.394531 240.082031 70.394531 C 240.65625 70.394531 241.113281 70.449219 241.441406 70.558594 C 241.777344 70.65625 242.015625 70.777344 242.15625 70.914062 C 242.226562 70.96875 242.445312 71.210938 242.816406 71.648438 C 246.835938 77.136719 249.527344 80.753906 250.894531 82.507812 L 250.894531 72.828125 C 250.894531 72.101562 250.984375 71.574219 251.164062 71.246094 Z M 251.164062 71.246094 " fill-opacity="1" fill-rule="nonzero"/><path fill="#a8d8ea" d="M 278.363281 71.855469 L 286.101562 87.839844 C 286.417969 88.488281 286.578125 88.976562 286.578125 89.304688 C 286.578125 89.992188 286.023438 90.613281 284.917969 91.171875 C 284.269531 91.488281 283.757812 91.648438 283.382812 91.648438 C 283.011719 91.648438 282.710938 91.5625 282.46875 91.394531 C 282.230469 91.226562 282.054688 91.046875 281.945312 90.855469 C 281.847656 90.660156 281.699219 90.371094 281.515625 89.992188 L 280.019531 86.898438 L 272.089844 86.898438 L 270.59375 89.992188 C 270.40625 90.371094 270.253906 90.648438 270.148438 90.828125 C 270.046875 91 269.878906 91.171875 269.640625 91.351562 C 269.398438 91.53125 269.089844 91.617188 268.710938 91.617188 C 268.34375 91.617188 267.835938 91.457031 267.1875 91.140625 C 266.082031 90.601562 265.53125 89.992188 265.53125 89.304688 C 265.53125 88.976562 265.6875 88.488281 266.007812 87.839844 L 273.746094 71.828125 C 273.957031 71.390625 274.273438 71.035156 274.703125 70.765625 C 275.140625 70.496094 275.597656 70.363281 276.078125 70.363281 C 277.101562 70.363281 277.863281 70.863281 278.363281 71.855469 Z M 276.046875 78.726562 L 274.148438 82.65625 L 277.957031 82.65625 Z M 276.046875 78.726562 " fill-opacity="1" fill-rule="nonzero"/><path fill="#a8d8ea" d="M 301.246094 87.121094 L 309.042969 87.121094 C 309.671875 87.121094 310.128906 87.199219 310.417969 87.347656 C 310.707031 87.488281 310.898438 87.710938 310.984375 88.019531 C 311.082031 88.316406 311.136719 88.722656 311.136719 89.230469 C 311.136719 89.738281 311.082031 90.148438 310.984375 90.453125 C 310.898438 90.753906 310.734375 90.960938 310.507812 91.082031 C 310.136719 91.273438 309.640625 91.363281 309.015625 91.363281 L 298.707031 91.363281 C 297.363281 91.363281 296.574219 91.003906 296.347656 90.273438 C 296.234375 89.96875 296.183594 89.480469 296.183594 88.8125 L 296.183594 72.886719 C 296.183594 72.449219 296.191406 72.121094 296.214844 71.902344 C 296.242188 71.683594 296.335938 71.429688 296.496094 71.140625 C 296.765625 70.625 297.503906 70.363281 298.722656 70.363281 C 300.066406 70.363281 300.863281 70.71875 301.113281 71.421875 C 301.203125 71.753906 301.246094 72.253906 301.246094 72.917969 Z M 301.246094 87.121094 " fill-opacity="1" fill-rule="nonzero"/><path fill="#a8d8ea" d="M 321.019531 72.886719 C 321.019531 72.449219 321.027344 72.121094 321.050781 71.902344 C 321.078125 71.683594 321.171875 71.429688 321.332031 71.140625 C 321.601562 70.625 322.34375 70.363281 323.558594 70.363281 C 324.902344 70.363281 325.699219 70.71875 325.949219 71.421875 C 326.039062 71.753906 326.082031 72.253906 326.082031 72.917969 L 326.082031 88.839844 C 326.082031 89.300781 326.070312 89.632812 326.039062 89.839844 C 326.007812 90.050781 325.917969 90.300781 325.769531 90.589844 C 325.5 91.105469 324.757812 91.363281 323.542969 91.363281 C 322.199219 91.363281 321.410156 91.003906 321.183594 90.273438 C 321.070312 89.96875 321.019531 89.480469 321.019531 88.8125 Z M 321.019531 72.886719 " fill-opacity="1" fill-rule="nonzero"/><path fill="#a8d8ea" d="M 350.460938 86.464844 C 351.207031 86.464844 351.746094 86.554688 352.074219 86.734375 C 352.410156 86.914062 352.640625 87.179688 352.761719 87.527344 C 352.886719 87.878906 352.957031 88.316406 352.957031 88.855469 C 352.957031 89.386719 352.902344 89.8125 352.804688 90.140625 C 352.714844 90.460938 352.601562 90.707031 352.460938 90.886719 C 352.332031 91.058594 352.132812 91.179688 351.863281 91.246094 C 351.566406 91.363281 351.082031 91.425781 350.414062 91.425781 L 338.496094 91.425781 C 338.054688 91.425781 337.632812 91.3125 337.226562 91.082031 C 336.390625 90.601562 335.972656 89.847656 335.972656 88.8125 C 335.972656 88.3125 336.082031 87.914062 336.316406 87.617188 L 345.203125 75.324219 L 338.601562 75.324219 C 338.140625 75.324219 337.800781 75.308594 337.585938 75.277344 C 337.363281 75.246094 337.105469 75.167969 336.808594 75.039062 C 336.246094 74.769531 335.972656 74.050781 335.972656 72.886719 C 335.972656 71.664062 336.230469 70.914062 336.75 70.648438 C 337.035156 70.496094 337.289062 70.40625 337.511719 70.378906 C 337.726562 70.347656 338.066406 70.332031 338.527344 70.332031 L 350.042969 70.332031 C 350.480469 70.332031 350.898438 70.449219 351.296875 70.675781 C 351.691406 70.910156 352.003906 71.214844 352.222656 71.601562 C 352.441406 71.984375 352.550781 72.433594 352.550781 72.945312 C 352.550781 73.464844 352.4375 73.875 352.207031 74.171875 L 343.335938 86.464844 Z M 350.460938 86.464844 " fill-opacity="1" fill-rule="nonzero"/><path fill="#a8d8ea" d="M 374.960938 71.855469 L 382.695312 87.839844 C 383.015625 88.488281 383.175781 88.976562 383.175781 89.304688 C 383.175781 89.992188 382.621094 90.613281 381.515625 91.171875 C 380.867188 91.488281 380.355469 91.648438 379.976562 91.648438 C 379.609375 91.648438 379.304688 91.5625 379.066406 91.394531 C 378.828125 91.226562 378.652344 91.046875 378.542969 90.855469 C 378.445312 90.660156 378.296875 90.371094 378.109375 89.992188 L 376.617188 86.898438 L 368.6875 86.898438 L 367.191406 89.992188 C 367 90.371094 366.851562 90.648438 366.742188 90.828125 C 366.644531 91 366.476562 91.171875 366.234375 91.351562 C 365.996094 91.53125 365.6875 91.617188 365.308594 91.617188 C 364.941406 91.617188 364.433594 91.457031 363.785156 91.140625 C 362.679688 90.601562 362.128906 89.992188 362.128906 89.304688 C 362.128906 88.976562 362.285156 88.488281 362.605469 87.839844 L 370.34375 71.828125 C 370.554688 71.390625 370.871094 71.035156 371.300781 70.765625 C 371.738281 70.496094 372.195312 70.363281 372.675781 70.363281 C 373.699219 70.363281 374.460938 70.863281 374.960938 71.855469 Z M 372.644531 78.726562 L 370.746094 82.65625 L 374.554688 82.65625 Z M 372.644531 78.726562 " fill-opacity="1" fill-rule="nonzero"/><path fill="#a8d8ea" d="M 408.851562 87.808594 C 409.128906 88.496094 409.269531 88.996094 409.269531 89.304688 C 409.269531 90.03125 408.679688 90.644531 407.507812 91.140625 C 406.890625 91.410156 406.390625 91.542969 406.015625 91.542969 C 405.644531 91.542969 405.34375 91.453125 405.105469 91.277344 C 404.863281 91.089844 404.6875 90.898438 404.582031 90.707031 C 404.390625 90.34375 403.644531 88.613281 402.339844 85.523438 L 401.460938 85.585938 L 397.84375 85.585938 L 397.84375 88.8125 C 397.84375 89.25 397.828125 89.582031 397.800781 89.8125 C 397.769531 90.03125 397.679688 90.28125 397.53125 90.558594 C 397.261719 91.078125 396.519531 91.335938 395.304688 91.335938 C 393.960938 91.335938 393.171875 90.984375 392.945312 90.273438 C 392.832031 89.957031 392.78125 89.460938 392.78125 88.78125 L 392.78125 72.886719 C 392.78125 72.449219 392.789062 72.121094 392.808594 71.902344 C 392.839844 71.683594 392.933594 71.429688 393.09375 71.140625 C 393.363281 70.625 394.101562 70.363281 395.320312 70.363281 L 401.519531 70.363281 C 403.191406 70.363281 404.824219 70.976562 406.417969 72.199219 C 407.171875 72.789062 407.800781 73.589844 408.300781 74.605469 C 408.796875 75.621094 409.046875 76.75 409.046875 77.980469 C 409.046875 80.144531 408.332031 81.921875 406.894531 83.3125 C 407.316406 84.328125 407.964844 85.832031 408.851562 87.808594 Z M 397.84375 80.503906 L 401.519531 80.503906 C 402.0625 80.503906 402.617188 80.296875 403.175781 79.878906 C 403.734375 79.460938 404.011719 78.832031 404.011719 77.996094 C 404.011719 77.152344 403.734375 76.511719 403.175781 76.085938 C 402.617188 75.660156 402.046875 75.441406 401.460938 75.441406 L 397.84375 75.441406 Z M 397.84375 80.503906 " fill-opacity="1" fill-rule="nonzero"/></svg>