<svg xmlns="http://www.w3.org/2000/svg" xmlns:xlink="http://www.w3.org/1999/xlink" width="1080" zoomAndPan="magnify" viewBox="0 0 810 809.999993" height="1080" preserveAspectRatio="xMidYMid meet" version="1.0"><defs><g/><clipPath id="19f8c49493"><path d="M 156 154 L 641 154 L 641 690.675781 L 156 690.675781 Z M 156 154 " clip-rule="nonzero"/></clipPath></defs><path fill="#fff8f0" d="M 478.328125 685.644531 C 476.324219 683.832031 474.261719 681.957031 472.359375 680.042969 C 466.859375 674.496094 461.375 668.929688 455.890625 663.367188 C 446.679688 654.023438 437.152344 644.359375 427.691406 634.9375 C 421.421875 628.691406 415.183594 622.339844 409.378906 616.402344 L 400.257812 607.066406 L 392.824219 599.492188 L 390.976562 597.71875 L 388.625 597.835938 L 383.664062 597.933594 L 376.269531 598.117188 C 359.222656 598.59375 341.886719 598.761719 325.121094 598.929688 C 317.660156 599 310.195312 599.074219 302.730469 599.175781 C 290.191406 599.339844 279.890625 599.417969 270.320312 599.417969 C 262.507812 599.417969 255.304688 599.367188 248.300781 599.261719 C 238.824219 599.117188 219.746094 597.90625 205.796875 596.789062 L 205.648438 596.777344 L 205.496094 596.777344 C 203.105469 596.808594 200.710938 596.839844 198.296875 596.839844 C 197.339844 596.839844 196.382812 596.835938 195.421875 596.824219 C 192.394531 596.785156 188.390625 596.671875 184.234375 596.097656 C 179.695312 595.441406 176.433594 594.324219 173.6875 592.484375 L 173.222656 592.148438 C 172.585938 591.695312 171.984375 591.261719 171.582031 590.824219 L 170.320312 589.5625 C 170.15625 589.386719 170.019531 589.191406 169.878906 589 C 169.753906 588.832031 169.625 588.660156 169.492188 588.492188 L 168.664062 587.375 L 167.953125 586.136719 L 167.230469 584.839844 C 167.117188 584.601562 167.019531 584.359375 166.917969 584.121094 L 166.695312 583.59375 C 165.992188 582.070312 165.53125 580.546875 165.042969 578.933594 L 164.832031 578.242188 L 164.574219 577.183594 C 164.203125 575.660156 163.855469 574.226562 163.636719 572.828125 C 162.269531 565.273438 161.726562 557.917969 161.242188 550.410156 C 160.554688 539.097656 160.257812 527.839844 160.015625 517.277344 C 159.792969 507.265625 159.621094 496.4375 159.492188 484.183594 C 159.390625 475.128906 159.632812 459.960938 159.910156 443.898438 C 160.085938 433.839844 160.316406 421.636719 160.539062 416.492188 L 160.539062 416.300781 C 160.167969 393.808594 160.175781 370.917969 160.183594 348.785156 C 160.1875 333.582031 160.195312 317.863281 160.078125 302.40625 L 159.699219 238.296875 L 159.4375 206.285156 L 159.40625 205.144531 C 159.269531 200.269531 159.128906 195.226562 159.417969 190.15625 C 159.578125 187.289062 159.921875 184.652344 160.472656 182.101562 C 161.050781 179.367188 162.066406 176.738281 163.414062 174.484375 C 165.238281 171.28125 168.386719 168.386719 172.3125 166.28125 C 175.453125 164.601562 178.957031 163.34375 183.679688 162.203125 C 187.859375 161.1875 191.992188 160.613281 195.480469 160.1875 C 197.402344 159.96875 199.414062 159.738281 201.378906 159.597656 C 203.203125 159.429688 205.136719 159.292969 207.347656 159.171875 C 214.261719 158.769531 221.824219 158.582031 231.164062 158.582031 C 234.742188 158.582031 238.519531 158.617188 243.050781 158.691406 C 244.757812 158.714844 246.441406 158.757812 248.125 158.800781 C 250.355469 158.859375 252.660156 158.917969 254.957031 158.921875 C 264.625 158.9375 280.5625 159.199219 299.839844 159.660156 L 299.976562 159.660156 C 308.726562 159.5 317.476562 159.328125 326.222656 159.144531 C 348.109375 158.679688 370.378906 158.4375 391.917969 158.207031 C 406.3125 158.050781 421.199219 157.890625 435.835938 157.664062 C 452.898438 157.410156 470.621094 157.28125 488.511719 157.28125 C 510.175781 157.28125 532.972656 157.46875 556.277344 157.84375 L 558.398438 157.878906 C 565.003906 157.984375 571.835938 158.09375 578.609375 158.304688 C 582.359375 158.433594 586.046875 158.574219 589.808594 158.890625 C 591.183594 158.976562 592.515625 159.128906 593.925781 159.289062 C 594.433594 159.347656 594.941406 159.40625 595.445312 159.460938 L 596.605469 159.632812 C 598.128906 159.855469 599.566406 160.070312 601.011719 160.398438 C 604.171875 161.074219 608.234375 162.097656 612.015625 164.109375 C 615.539062 165.9375 618.691406 168.5 621.160156 171.53125 C 622.421875 172.984375 623.382812 174.550781 624.398438 176.210938 L 624.496094 176.367188 L 625.878906 179.042969 C 626.140625 179.535156 626.351562 180.0625 626.574219 180.617188 C 626.71875 180.96875 626.859375 181.324219 627.015625 181.675781 C 627.570312 182.917969 627.984375 184.1875 628.421875 185.535156 C 628.582031 186.035156 628.746094 186.539062 628.917969 187.039062 C 629.382812 188.636719 629.84375 190.390625 630.371094 192.546875 C 631.800781 198.671875 632.90625 207.363281 633.46875 216.980469 C 633.980469 225.550781 634.1875 235.59375 634.085938 246.84375 C 634.007812 254.300781 633.828125 262.234375 633.5625 269.78125 L 633.558594 269.925781 L 633.566406 270.070312 C 634.265625 282.777344 634.863281 296.5 635.394531 312.023438 C 636.417969 341.832031 636.636719 372.179688 636.847656 401.527344 C 636.910156 409.875 636.96875 418.21875 637.046875 426.5625 C 637.207031 444.136719 637.238281 462.007812 637.265625 479.289062 L 637.285156 489.484375 C 637.308594 498.976562 637.339844 510.019531 637.460938 520.957031 L 637.492188 525.046875 C 637.566406 534.003906 637.644531 543.261719 637.09375 552.472656 C 636.605469 559.933594 635.75 567.914062 632.851562 575.550781 C 631.339844 579.488281 629.304688 582.921875 626.8125 585.746094 C 624.308594 588.613281 621.046875 591.121094 617.371094 593.019531 C 614.25 594.664062 610.710938 595.929688 606.210938 597.015625 C 602.132812 598.03125 598.039062 598.539062 594.570312 598.902344 C 588.859375 599.460938 583.160156 599.53125 578.835938 599.53125 C 576.605469 599.53125 574.390625 599.507812 572.199219 599.488281 L 571.21875 599.480469 C 565.058594 599.425781 556.445312 599.257812 545.617188 598.976562 L 545.457031 598.976562 C 538.882812 599.132812 532.308594 599.242188 525.734375 599.351562 L 524.878906 599.367188 C 521.519531 599.421875 518.15625 599.523438 514.796875 599.628906 C 509.945312 599.777344 504.925781 599.929688 500.015625 599.929688 C 499.027344 599.929688 498.035156 599.925781 497.046875 599.910156 L 496.503906 599.910156 C 492.527344 599.910156 488.179688 599.972656 482.8125 600.105469 L 474.152344 600.34375 L 473.484375 600.585938 L 473.164062 600.730469 L 473.082031 600.773438 C 472.5625 601.050781 472.136719 601.421875 471.820312 601.882812 L 470.785156 603.394531 L 471.542969 605.011719 L 471.652344 605.867188 C 471.964844 608.320312 472.261719 610.773438 472.539062 613.230469 C 473.140625 618.609375 473.566406 623.421875 473.839844 627.945312 C 474.167969 633.351562 474.71875 638.789062 475.246094 644.050781 C 475.820312 649.734375 476.414062 655.609375 476.71875 661.371094 C 476.800781 662.929688 476.992188 665.027344 477.210938 667.457031 C 477.675781 672.550781 478.285156 679.238281 478.328125 685.644531 Z M 478.328125 685.644531 " fill-opacity="1" fill-rule="nonzero"/><g clip-path="url(#19f8c49493)"><path fill="#f5a623" d="M 640.660156 520.925781 C 640.542969 510.4375 640.507812 499.96875 640.484375 489.476562 C 640.441406 468.503906 640.433594 447.519531 640.246094 426.53125 C 639.890625 388.351562 639.90625 350.109375 638.589844 311.914062 C 638.113281 297.90625 637.53125 283.894531 636.757812 269.894531 C 636.992188 263.273438 637.195312 255.300781 637.285156 246.871094 C 637.371094 236.988281 637.238281 226.472656 636.660156 216.796875 C 636.09375 207.121094 634.992188 198.257812 633.476562 191.789062 C 633.011719 189.886719 632.523438 187.980469 631.96875 186.078125 C 631.320312 184.179688 630.789062 182.273438 629.945312 180.390625 C 629.535156 179.453125 629.210938 178.5 628.71875 177.574219 L 627.28125 174.792969 C 626.175781 172.988281 625.078125 171.164062 623.640625 169.511719 C 620.898438 166.140625 617.359375 163.277344 613.519531 161.285156 C 609.675781 159.238281 605.640625 158.117188 601.722656 157.277344 C 599.746094 156.828125 597.804688 156.585938 595.851562 156.285156 C 593.925781 156.082031 591.980469 155.824219 590.074219 155.703125 C 586.242188 155.382812 582.46875 155.238281 578.710938 155.109375 C 571.199219 154.871094 563.792969 154.765625 556.328125 154.648438 C 516.121094 154 475.949219 153.867188 435.785156 154.464844 C 399.257812 155.03125 362.6875 155.171875 326.15625 155.945312 C 317.410156 156.132812 308.664062 156.300781 299.917969 156.460938 C 282.796875 156.050781 265.683594 155.738281 254.960938 155.722656 C 251 155.71875 247.078125 155.542969 243.105469 155.496094 C 239.128906 155.429688 235.148438 155.382812 231.164062 155.382812 C 223.191406 155.382812 215.203125 155.511719 207.175781 155.976562 C 205.167969 156.089844 203.160156 156.222656 201.144531 156.40625 C 199.132812 156.554688 197.113281 156.785156 195.09375 157.011719 C 191.054688 157.507812 187 158.105469 182.929688 159.09375 C 178.867188 160.074219 174.761719 161.34375 170.800781 163.464844 C 166.886719 165.5625 163.027344 168.703125 160.667969 172.84375 C 159.035156 175.574219 157.953125 178.539062 157.347656 181.425781 C 156.722656 184.320312 156.378906 187.179688 156.222656 189.976562 C 155.90625 195.558594 156.09375 201.003906 156.238281 206.3125 L 156.5 238.316406 C 156.628906 259.6875 156.753906 281.054688 156.878906 302.433594 C 157.167969 340.371094 156.714844 378.375 157.34375 416.355469 C 157.132812 421.164062 156.921875 431.914062 156.710938 443.84375 C 156.460938 458.460938 156.191406 474.839844 156.292969 484.214844 C 156.410156 495.253906 156.570312 506.296875 156.816406 517.351562 C 157.074219 528.410156 157.375 539.480469 158.050781 550.617188 C 158.535156 558.128906 159.089844 565.667969 160.476562 573.324219 C 160.777344 575.230469 161.289062 577.164062 161.746094 579.085938 C 162.339844 581.015625 162.875 582.949219 163.761719 584.871094 C 163.972656 585.351562 164.160156 585.835938 164.390625 586.3125 L 165.179688 587.726562 L 165.984375 589.132812 L 166.980469 590.472656 C 167.324219 590.910156 167.628906 591.371094 168.015625 591.78125 L 169.222656 592.984375 C 169.988281 593.824219 170.949219 594.441406 171.863281 595.109375 C 175.648438 597.664062 179.882812 598.699219 183.796875 599.265625 C 187.746094 599.8125 191.59375 599.976562 195.382812 600.023438 C 198.8125 600.0625 202.179688 600.019531 205.539062 599.976562 C 219.148438 601.070312 238.394531 602.308594 248.25 602.457031 C 266.417969 602.734375 284.59375 602.613281 302.773438 602.371094 C 327.296875 602.046875 351.824219 602 376.347656 601.3125 L 383.730469 601.132812 L 387.425781 601.054688 L 388.347656 601.039062 L 388.792969 601.03125 L 388.984375 601.019531 L 389.761719 600.980469 L 390.253906 601.449219 L 390.546875 601.734375 L 391.121094 602.316406 L 393.40625 604.644531 L 397.972656 609.304688 L 407.089844 618.636719 C 413.171875 624.855469 419.269531 631.0625 425.433594 637.203125 C 440.421875 652.128906 455.191406 667.277344 470.089844 682.292969 C 472.457031 684.679688 474.972656 686.914062 477.460938 689.175781 C 477.925781 689.597656 478.457031 689.914062 478.976562 689.960938 C 479.242188 690.375 479.722656 690.652344 480.546875 690.542969 C 481.609375 690.40625 481.46875 689.792969 481.484375 689.222656 C 481.808594 678.636719 480.1875 666.476562 479.910156 661.203125 C 479.324219 650.027344 477.710938 638.9375 477.03125 627.753906 C 476.730469 622.777344 476.269531 617.820312 475.714844 612.875 C 475.441406 610.402344 475.140625 607.929688 474.824219 605.460938 L 474.707031 604.535156 L 474.644531 604.070312 L 474.632812 603.964844 L 474.625 603.957031 C 474.609375 603.945312 474.59375 603.925781 474.574219 603.902344 C 474.542969 603.855469 474.503906 603.789062 474.457031 603.695312 C 474.480469 603.664062 474.519531 603.628906 474.582031 603.597656 L 474.695312 603.546875 L 474.726562 603.53125 L 474.746094 603.527344 L 474.957031 603.519531 L 475.839844 603.496094 L 482.894531 603.300781 C 487.597656 603.183594 492.296875 603.101562 497 603.109375 C 506.316406 603.234375 515.625 602.71875 524.933594 602.5625 C 531.800781 602.449219 538.667969 602.335938 545.53125 602.175781 C 555.519531 602.433594 564.585938 602.621094 571.191406 602.675781 C 578.890625 602.75 586.886719 602.867188 594.902344 602.082031 C 598.914062 601.664062 602.941406 601.125 606.960938 600.125 C 610.972656 599.15625 615.007812 597.878906 618.839844 595.863281 C 622.667969 593.886719 626.289062 591.203125 629.210938 587.863281 C 632.144531 584.539062 634.320312 580.648438 635.84375 576.6875 C 638.867188 568.707031 639.765625 560.574219 640.289062 552.660156 C 640.925781 541.953125 640.730469 531.425781 640.660156 520.925781 Z M 633.640625 353.4375 C 633.3125 406.035156 633.664062 458.65625 633.554688 511.367188 C 633.480469 524.050781 633.820312 536.714844 633.308594 549.167969 C 633.019531 555.378906 632.472656 561.542969 631.195312 567.429688 C 630.507812 570.351562 629.636719 573.191406 628.484375 575.863281 C 627.273438 578.5 625.769531 580.941406 623.914062 583.085938 L 622.660156 584.460938 L 621.269531 585.703125 C 620.824219 586.140625 620.320312 586.511719 619.808594 586.871094 C 619.296875 587.234375 618.8125 587.632812 618.277344 587.96875 C 617.175781 588.59375 616.140625 589.3125 614.953125 589.824219 C 614.375 590.101562 613.804688 590.390625 613.21875 590.65625 L 611.40625 591.359375 C 606.539062 593.203125 601.253906 594.238281 595.898438 594.871094 C 590.535156 595.5 585.074219 595.726562 579.609375 595.792969 L 575.539062 595.804688 C 566.984375 594.746094 553.171875 593.429688 546.398438 593.324219 C 534.96875 593.148438 523.53125 593.363281 512.09375 593.691406 C 504.875 593.871094 497.65625 594.050781 490.4375 594.230469 L 479.613281 594.539062 L 473.800781 594.730469 L 464.722656 594.960938 L 465.421875 600.019531 L 466.019531 604.339844 L 466.441406 607.160156 L 467.207031 612.375 L 468.65625 622.8125 C 469.601562 629.773438 470.542969 636.734375 471.640625 643.679688 C 473.722656 656.832031 475.5 670.027344 477.453125 683.199219 C 477.546875 683.839844 477.664062 684.480469 477.792969 685.113281 C 467.71875 672.652344 455.328125 659.882812 450.113281 653.941406 C 438.386719 640.585938 425.875 627.925781 414.066406 614.613281 C 410.972656 611.125 407.839844 607.679688 404.675781 604.257812 L 399.902344 599.152344 L 393.496094 592.386719 L 383.121094 592.40625 L 375.078125 592.476562 L 358.988281 592.679688 C 348.261719 592.824219 337.535156 592.945312 326.808594 592.878906 C 312.007812 592.671875 297.210938 593.121094 282.414062 593.199219 C 281.660156 593.203125 280.90625 593.207031 280.148438 593.210938 C 276.703125 593.15625 273.257812 593.089844 269.8125 593 C 251.113281 592.515625 232.410156 592.535156 213.703125 592.648438 L 199.6875 592.734375 C 195.0625 592.742188 190.480469 592.675781 186.148438 592.175781 C 185.054688 592.066406 184.035156 591.84375 182.976562 591.691406 C 182.460938 591.589844 181.980469 591.445312 181.480469 591.328125 C 180.996094 591.1875 180.457031 591.117188 180.019531 590.921875 C 179.113281 590.574219 178.15625 590.289062 177.371094 589.808594 C 176.5 589.433594 175.8125 588.851562 175.066406 588.332031 C 172.292969 586.066406 170.492188 582.382812 169.308594 578.25 C 168.207031 574.25 167.519531 569.957031 166.988281 565.613281 C 166.484375 561.25 166.101562 556.832031 165.8125 552.386719 C 165.226562 543.492188 164.863281 534.527344 164.625 525.550781 C 164.125 505.359375 163.710938 485.132812 163 464.917969 C 162.832031 435.625 162.445312 406.296875 163.042969 376.957031 C 163.566406 350.160156 163.753906 323.335938 163.734375 296.503906 L 163.492188 215.96875 C 163.488281 212.734375 163.527344 209.511719 163.476562 206.269531 C 163.386719 202.996094 163.328125 199.847656 163.324219 196.675781 C 163.335938 193.523438 163.4375 190.410156 163.761719 187.40625 C 164.085938 184.410156 164.664062 181.523438 165.726562 178.980469 C 166.78125 176.433594 168.332031 174.257812 170.40625 172.488281 C 172.472656 170.710938 175.035156 169.339844 177.792969 168.242188 C 183.371094 166.109375 189.589844 164.980469 195.847656 164.242188 C 201.347656 163.570312 206.9375 163.21875 212.535156 162.976562 C 218.132812 162.710938 223.761719 162.636719 229.390625 162.574219 C 235.027344 162.546875 240.652344 162.566406 246.3125 162.640625 C 249.144531 162.660156 251.980469 162.761719 254.808594 162.714844 L 263.296875 162.628906 C 274.824219 162.507812 286.351562 162.367188 297.875 162.199219 C 320.519531 162.296875 343.1875 162.066406 365.84375 162.402344 C 416.199219 163.152344 466.554688 161.796875 516.886719 162.585938 C 528.988281 162.777344 541.085938 162.96875 553.183594 163.164062 L 571.324219 163.460938 C 577.363281 163.589844 583.375 163.730469 589.269531 164.195312 C 594.425781 164.617188 599.511719 165.273438 604.195312 166.667969 C 608.886719 168.042969 612.964844 170.398438 616.179688 173.753906 C 619.359375 177.152344 621.601562 181.582031 623.292969 186.300781 C 624.984375 191.03125 626.15625 196.070312 627.035156 201.191406 C 627.144531 201.808594 627.238281 202.429688 627.34375 203.050781 C 627.574219 204.847656 627.789062 206.652344 627.992188 208.453125 C 628.804688 215.710938 629.492188 222.925781 630.015625 229.722656 C 630.449219 235.222656 630.8125 240.429688 631.109375 245.167969 C 631.414062 251.515625 631.664062 257.871094 631.878906 264.230469 C 632.132812 271.421875 632.386719 278.621094 632.71875 285.796875 C 632.722656 285.847656 632.726562 285.90625 632.730469 285.957031 C 633.371094 308.417969 633.785156 330.925781 633.640625 353.4375 Z M 633.640625 353.4375 " fill-opacity="1" fill-rule="nonzero"/></g><g fill="#a8d8ea" fill-opacity="1"><g transform="translate(264.022783, 501.772173)"><g><path d="M 165.015625 -63.625 L 170.984375 -67.921875 C 178.492188 -72.347656 183.796875 -74.5625 186.890625 -74.5625 C 193.734375 -74.5625 201.132812 -68.375 209.09375 -56 C 213.945312 -48.269531 216.375 -42.082031 216.375 -37.4375 C 216.375 -32.800781 214.882812 -28.9375 211.90625 -25.84375 C 208.925781 -22.75 205.445312 -19.988281 201.46875 -17.5625 C 197.488281 -15.132812 193.675781 -12.816406 190.03125 -10.609375 C 186.382812 -8.398438 178.925781 -5.523438 167.65625 -1.984375 C 156.394531 1.546875 145.519531 3.3125 135.03125 3.3125 C 124.539062 3.3125 113.9375 1.929688 103.21875 -0.828125 C 92.5 -3.585938 81.453125 -8.222656 70.078125 -14.734375 C 58.703125 -21.253906 48.484375 -29.207031 39.421875 -38.59375 C 30.367188 -47.988281 22.914062 -60.03125 17.0625 -74.71875 C 11.207031 -89.40625 8.28125 -105.363281 8.28125 -122.59375 C 8.28125 -139.832031 11.148438 -155.460938 16.890625 -169.484375 C 22.640625 -183.515625 29.988281 -195.113281 38.9375 -204.28125 C 47.882812 -213.445312 58.097656 -221.125 69.578125 -227.3125 C 91.234375 -239.238281 112.992188 -245.203125 134.859375 -245.203125 C 145.242188 -245.203125 155.789062 -243.597656 166.5 -240.390625 C 177.21875 -237.191406 185.335938 -233.9375 190.859375 -230.625 L 198.8125 -225.984375 C 202.789062 -223.554688 205.882812 -221.566406 208.09375 -220.015625 C 213.832031 -215.378906 216.703125 -210.132812 216.703125 -204.28125 C 216.703125 -198.425781 214.382812 -192.296875 209.75 -185.890625 C 201.132812 -173.960938 193.40625 -168 186.5625 -168 C 182.582031 -168 176.945312 -170.429688 169.65625 -175.296875 C 160.375 -182.804688 148.003906 -186.5625 132.546875 -186.5625 C 118.179688 -186.5625 104.039062 -181.585938 90.125 -171.640625 C 83.5 -166.785156 77.976562 -159.9375 73.5625 -151.09375 C 69.144531 -142.257812 66.9375 -132.265625 66.9375 -121.109375 C 66.9375 -109.953125 69.144531 -99.957031 73.5625 -91.125 C 77.976562 -82.289062 83.613281 -75.332031 90.46875 -70.25 C 103.9375 -60.53125 117.960938 -55.671875 132.546875 -55.671875 C 139.390625 -55.671875 145.847656 -56.550781 151.921875 -58.3125 C 158.003906 -60.082031 162.367188 -61.851562 165.015625 -63.625 Z M 165.015625 -63.625 "/></g></g></g></svg>